<?xml version="1.0" encoding="us-ascii" standalone="no"?><svg xmlns="http://www.w3.org/2000/svg" xmlns:xlink="http://www.w3.org/1999/xlink" contentStyleType="text/css" height="865px" preserveAspectRatio="none" style="width:521px;height:865px;background:#FFFFFF;" version="1.1" viewBox="0 0 521 865" width="521px" zoomAndPan="magnify"><defs/><g><!--cluster python-tackerclient--><g id="cluster_python-tackerclient"><rect fill="none" height="97" rx="2.5" ry="2.5" style="stroke:#181818;stroke-width:1.0;" width="160" x="27" y="7"/><path d="M180,7 L180,16.4883 L170,26.4883 L27,26.4883 " fill="none" style="stroke:#181818;stroke-width:1.0;"/><text fill="#000000" font-family="sans-serif" font-size="14" font-weight="bold" lengthAdjust="spacing" textLength="143" x="30" y="21.5352">python-tackerclient</text></g><!--cluster tacker--><g id="cluster_tacker"><rect fill="none" height="426" rx="2.5" ry="2.5" style="stroke:#181818;stroke-width:1.0;" width="200" x="7" y="168"/><path d="M61,168 L61,177.4883 L51,187.4883 L7,187.4883 " fill="none" style="stroke:#181818;stroke-width:1.0;"/><text fill="#000000" font-family="sans-serif" font-size="14" font-weight="bold" lengthAdjust="spacing" textLength="44" x="10" y="182.5352">tacker</text></g><!--cluster tacker-server--><g id="cluster_tacker-server"><rect fill="none" height="97" rx="2.5" ry="2.5" style="stroke:#181818;stroke-width:1.0;" width="114" x="50" y="211"/><rect fill="none" height="10" style="stroke:#181818;stroke-width:1.0;" width="15" x="144" y="216"/><rect fill="none" height="2" style="stroke:#181818;stroke-width:1.0;" width="4" x="142" y="218"/><rect fill="none" height="2" style="stroke:#181818;stroke-width:1.0;" width="4" x="142" y="222"/><text fill="#000000" font-family="sans-serif" font-size="14" font-weight="bold" lengthAdjust="spacing" textLength="97" x="58.5" y="237.5352">tacker-server</text></g><!--cluster tacker-conductor--><g id="cluster_tacker-conductor"><rect fill="none" height="229" rx="2.5" ry="2.5" style="stroke:#181818;stroke-width:1.0;" width="152" x="31" y="341"/><rect fill="none" height="10" style="stroke:#181818;stroke-width:1.0;" width="15" x="163" y="346"/><rect fill="none" height="2" style="stroke:#181818;stroke-width:1.0;" width="4" x="161" y="348"/><rect fill="none" height="2" style="stroke:#181818;stroke-width:1.0;" width="4" x="161" y="352"/><text fill="#000000" font-family="sans-serif" font-size="14" font-weight="bold" lengthAdjust="spacing" textLength="124" x="45" y="367.5352">tacker-conductor</text></g><!--cluster hw--><g id="cluster_hw"><path d="M270.2949,652.9231 C274.2025,645.6786 279.0425,643.8619 285.0203,650.769 C289.2895,642.3057 297.6471,643.445 302.0657,650.606 C305.6833,642.2088 312.3214,642.9497 317.2815,649.2126 C320.9662,642.1551 325.7312,641.2682 331.0495,647.523 C335.4114,637.7991 340.9916,637.7768 347.9785,644.8827 C352.0569,637.2625 359.0027,637.9763 362.4836,645.4565 C366.8273,638.1206 372.6045,637.3034 378.8465,643.0894 C384.1731,636.2568 390.967,637.7869 393.6294,645.7512 C397.7215,639.801 404.1011,639.5523 407.7,646.2978 C412.6913,639.437 419.5951,637.6367 424.1508,646.7465 C429.9023,638.8879 436.2527,638.9097 440.748,647.9782 C446.2982,640.5421 453.8412,642.4691 456.1157,651.1095 C459.9302,645.0682 465.9983,644.9855 469.6053,651.3354 C479.0055,641.1458 489.2619,645.8033 492,658 C492.755,658.1934 493.0797,658.7187 492.5962,659.4288 C501.1504,662.1752 505.0636,670.3586 497.2409,677.3495 C503.9418,682.9737 503.5808,687.9957 496.6898,693.1456 C504.9055,696.6725 506.7099,705.6138 499.7209,711.6335 C509.8116,714.4083 510.4907,722.1363 503.6813,728.8082 C513.893,733.6836 514.5127,740.1314 505.5348,746.9656 C513.2441,752.5087 512.506,759.4601 503.3631,762.6734 C509.7237,769.9063 508.0736,776.4178 498.9022,779.5437 C506.5922,785.2223 506.906,792.9786 497.9026,797.7402 C505.0756,804.0431 507.0405,809.9115 497.0855,815.4229 C503.5184,826.5086 497.2217,836.363 485,837 C485.5193,836.3349 486.1492,836.2375 486.5625,837.1079 C483.4516,844.1103 476.9036,845.2221 472.0074,839.0857 C468.4448,848.7804 461.0015,848.2789 455.3393,841.1682 C452.3328,847.9625 445.2598,849.9047 440.7211,842.7769 C438.4895,851.851 431.7324,852.6224 425.8998,846.2269 C421.4442,855.1178 414.6853,853.5008 409.6906,846.7868 C405.7906,855.8258 400.0739,856.7607 393.4448,849.5083 C390.3437,857.9556 384.6363,858.6995 379.1107,851.7681 C373.8801,858.993 365.6863,857.6008 362.3524,849.6708 C357.399,855.9949 350.5134,856.899 346.5833,848.5695 C340.4941,855.1748 335.6009,854.0234 332.6133,845.6724 C327.4876,852.2072 320.6192,852.6756 317.2536,843.906 C311.5042,850.9536 305.2362,849.9429 301.0879,842.1605 C295.5705,848.4003 288.5506,847.7675 285.2556,839.701 C273.3853,850.2157 263.1761,843.724 261,830 C262.3219,830.3031 262.8529,831.1619 262.0608,832.3995 C253.34,827.8436 253.6188,820.8748 260.6939,815.0728 C252.0165,810.4028 252.4167,802.6821 259.7941,797.2036 C250.808,792.5314 253.1792,784.89 260.1607,780.5697 C249.3578,775.9206 251.0421,767.0176 259.1406,761.3646 C251.8725,756.6306 251.9603,751.0464 259.4932,746.6676 C251.1725,739.9302 249.24,733.0285 260.024,726.8015 C252.6126,722.0579 251.6104,715.3241 259.2071,709.8569 C250.5891,704.0732 253.9309,696.3787 261.5942,692.8851 C254.7359,688.1683 254.5295,682.1835 261.6866,677.5511 C249.6173,665.9635 253.0534,656.1638 268,651 C269.5225,650.6491 270.4005,651.3311 270.2949,652.9231 " fill="none" style="stroke:#181818;stroke-width:1.0;"/><text fill="#000000" font-family="sans-serif" font-size="14" font-weight="bold" lengthAdjust="spacing" textLength="146" x="303.5" y="669.5352">Hardware Resources</text></g><!--cluster k8s_w--><g id="cluster_k8s_w"><polygon fill="none" points="277,696,287,686,476,686,476,811,466,821,277,821,277,696" style="stroke:#181818;stroke-width:1.0;"/><line style="stroke:#181818;stroke-width:1.0;" x1="466" x2="476" y1="696" y2="686"/><line style="stroke:#181818;stroke-width:1.0;" x1="277" x2="466" y1="696" y2="696"/><line style="stroke:#181818;stroke-width:1.0;" x1="466" x2="466" y1="696" y2="821"/><text fill="#000000" font-family="sans-serif" font-size="14" font-weight="bold" lengthAdjust="spacing" textLength="81" x="332" y="712.5352">Kubernetes</text><text fill="#000000" font-family="sans-serif" font-size="14" font-weight="bold" lengthAdjust="spacing" textLength="52" x="346.5" y="729.0234">Cluster</text><text fill="#000000" font-family="sans-serif" font-size="14" font-weight="bold" lengthAdjust="spacing" textLength="61" x="342" y="745.5117">(Worker)</text></g><!--entity client--><g id="elem_client"><rect fill="#F1F1F1" height="46.4883" rx="2.5" ry="2.5" style="stroke:#181818;stroke-width:0.5;" width="127" x="43.5" y="42"/><rect fill="#F1F1F1" height="10" style="stroke:#181818;stroke-width:0.5;" width="15" x="150.5" y="47"/><rect fill="#F1F1F1" height="2" style="stroke:#181818;stroke-width:0.5;" width="4" x="148.5" y="49"/><rect fill="#F1F1F1" height="2" style="stroke:#181818;stroke-width:0.5;" width="4" x="148.5" y="53"/><text fill="#000000" font-family="sans-serif" font-size="14" lengthAdjust="spacing" textLength="87" x="58.5" y="75.5352">tacker-client</text></g><!--entity serv--><g id="elem_serv"><rect fill="#F1F1F1" height="46.4883" rx="2.5" ry="2.5" style="stroke:#181818;stroke-width:0.5;" width="82" x="66" y="246"/><rect fill="#F1F1F1" height="10" style="stroke:#181818;stroke-width:0.5;" width="15" x="128" y="251"/><rect fill="#F1F1F1" height="2" style="stroke:#181818;stroke-width:0.5;" width="4" x="126" y="253"/><rect fill="#F1F1F1" height="2" style="stroke:#181818;stroke-width:0.5;" width="4" x="126" y="257"/><text fill="#000000" font-family="sans-serif" font-size="14" lengthAdjust="spacing" textLength="42" x="81" y="279.5352">server</text></g><!--entity cond--><g id="elem_cond"><rect fill="#F1F1F1" height="46.4883" rx="2.5" ry="2.5" style="stroke:#181818;stroke-width:0.5;" width="110" x="52" y="376"/><rect fill="#F1F1F1" height="10" style="stroke:#181818;stroke-width:0.5;" width="15" x="142" y="381"/><rect fill="#F1F1F1" height="2" style="stroke:#181818;stroke-width:0.5;" width="4" x="140" y="383"/><rect fill="#F1F1F1" height="2" style="stroke:#181818;stroke-width:0.5;" width="4" x="140" y="387"/><text fill="#000000" font-family="sans-serif" font-size="14" lengthAdjust="spacing" textLength="70" x="67" y="409.5352">conductor</text></g><!--entity infra--><g id="elem_infra"><rect fill="#F1F1F1" height="62.9766" rx="2.5" ry="2.5" style="stroke:#181818;stroke-width:0.5;" width="120" x="47" y="491"/><rect fill="#F1F1F1" height="10" style="stroke:#181818;stroke-width:0.5;" width="15" x="147" y="496"/><rect fill="#F1F1F1" height="2" style="stroke:#181818;stroke-width:0.5;" width="4" x="145" y="498"/><rect fill="#F1F1F1" height="2" style="stroke:#181818;stroke-width:0.5;" width="4" x="145" y="502"/><text fill="#000000" font-family="sans-serif" font-size="14" lengthAdjust="spacing" textLength="78" x="62" y="524.5352">Kubernetes</text><text fill="#000000" font-family="sans-serif" font-size="14" lengthAdjust="spacing" textLength="80" x="62" y="541.0234">infra-driver</text></g><!--entity ins1--><g id="elem_ins1"><polygon fill="#F1F1F1" points="293,769,303,759,359,759,359,795.4883,349,805.4883,293,805.4883,293,769" style="stroke:#181818;stroke-width:0.5;"/><line style="stroke:#181818;stroke-width:0.5;" x1="349" x2="359" y1="769" y2="759"/><line style="stroke:#181818;stroke-width:0.5;" x1="293" x2="349" y1="769" y2="769"/><line style="stroke:#181818;stroke-width:0.5;" x1="349" x2="349" y1="769" y2="805.4883"/><text fill="#000000" font-family="sans-serif" font-size="14" lengthAdjust="spacing" textLength="26" x="308" y="792.5352">Pod</text></g><!--entity ins2--><g id="elem_ins2"><polygon fill="#F1F1F1" points="394,769,404,759,460,759,460,795.4883,450,805.4883,394,805.4883,394,769" style="stroke:#181818;stroke-width:0.5;"/><line style="stroke:#181818;stroke-width:0.5;" x1="450" x2="460" y1="769" y2="759"/><line style="stroke:#181818;stroke-width:0.5;" x1="394" x2="450" y1="769" y2="769"/><line style="stroke:#181818;stroke-width:0.5;" x1="450" x2="450" y1="769" y2="805.4883"/><text fill="#000000" font-family="sans-serif" font-size="14" lengthAdjust="spacing" textLength="26" x="409" y="792.5352">Pod</text></g><!--entity k8s_m--><g id="elem_k8s_m"><polygon fill="#F1F1F1" points="318,493,328,483,436,483,436,552.4648,426,562.4648,318,562.4648,318,493" style="stroke:#181818;stroke-width:0.5;"/><line style="stroke:#181818;stroke-width:0.5;" x1="426" x2="436" y1="493" y2="483"/><line style="stroke:#181818;stroke-width:0.5;" x1="318" x2="426" y1="493" y2="493"/><line style="stroke:#181818;stroke-width:0.5;" x1="426" x2="426" y1="493" y2="562.4648"/><text fill="#000000" font-family="sans-serif" font-size="14" lengthAdjust="spacing" textLength="78" x="333" y="516.5352">Kubernetes</text><text fill="#000000" font-family="sans-serif" font-size="14" lengthAdjust="spacing" textLength="49" x="333" y="533.0234">Cluster</text><text fill="#000000" font-family="sans-serif" font-size="14" lengthAdjust="spacing" textLength="56" x="333" y="549.5117">(Master)</text></g><!--link client to serv--><g id="link_client_serv"><path d="M107,88.39 C107,127.22 107,200.61 107,239.51 " fill="none" id="client-to-serv" style="stroke:#181818;stroke-width:1.0;"/><polygon fill="#181818" points="107,245.51,111,236.51,107,240.51,103,236.51,107,245.51" style="stroke:#181818;stroke-width:1.0;"/><text fill="#000000" font-family="sans-serif" font-size="13" lengthAdjust="spacing" textLength="66" x="108" y="133.5684">1. Request</text><text fill="#000000" font-family="sans-serif" font-size="13" lengthAdjust="spacing" textLength="55" x="115.5" y="148.8789">heal VNF</text></g><!--link serv to cond--><g id="link_serv_cond"><path d="M107,292.3 C107,315.65 107,346.11 107,369.53 " fill="none" id="serv-to-cond" style="stroke:#181818;stroke-width:1.0;"/><polygon fill="#181818" points="107,375.53,111,366.53,107,370.53,103,366.53,107,375.53" style="stroke:#181818;stroke-width:1.0;"/></g><!--link cond to infra--><g id="link_cond_infra"><path d="M107,422.28 C107,441.47 107,463.34 107,484.66 " fill="none" id="cond-to-infra" style="stroke:#181818;stroke-width:1.0;"/><polygon fill="#181818" points="107,490.66,111,481.66,107,485.66,103,481.66,107,490.66" style="stroke:#181818;stroke-width:1.0;"/></g><!--link infra to k8s_m--><g id="link_infra_k8s_m"><path d="M167.26,522.5 C212.17,522.5 267.21,522.5 311.86,522.5 " fill="none" id="infra-to-k8s_m" style="stroke:#181818;stroke-width:1.0;"/><polygon fill="#181818" points="317.86,522.5,308.86,518.5,312.86,522.5,308.86,526.5,317.86,522.5" style="stroke:#181818;stroke-width:1.0;"/><text fill="#000000" font-family="sans-serif" font-size="13" lengthAdjust="spacing" textLength="114" x="185.5" y="501.0684">2. Call Kubernetes</text><text fill="#000000" font-family="sans-serif" font-size="13" lengthAdjust="spacing" textLength="20" x="234.5" y="516.3789">API</text></g><!--link k8s_m to ins1--><g id="link_k8s_m_ins1"><path d="M333.15,562.11 C320.63,575.84 308.6,592.31 302,610 C283.03,660.84 300.6655,719.6936 313.9255,753.0836 " fill="none" id="k8s_m-to-ins1" style="stroke:#181818;stroke-width:1.0;"/><polygon fill="#181818" points="316.14,758.66,316.5358,748.8191,314.2946,754.013,309.1006,751.7718,316.14,758.66" style="stroke:#181818;stroke-width:1.0;"/><text fill="#000000" font-family="sans-serif" font-size="13" lengthAdjust="spacing" textLength="111" x="303" y="623.5684">3. Re-create Pods</text></g><!--link k8s_m to ins2--><g id="link_k8s_m_ins2"><path d="M402.63,562.38 C410.73,576.75 418.69,593.55 423,610 C436.58,661.85 433.5956,719.6296 430.2956,752.7096 " fill="none" id="k8s_m-to-ins2" style="stroke:#181818;stroke-width:1.0;"/><polygon fill="#181818" points="429.7,758.68,434.5736,750.1215,430.1963,753.7047,426.6131,749.3274,429.7,758.68" style="stroke:#181818;stroke-width:1.0;"/></g><!--link ins1 to ins2--><!--SRC=[VL5BImCn4BxdLmphGJsaq7gH7WGfY29AyQ07AnAJgHkQ9ZMJjOZqlvl7BjsAwnx2PBv7lfbTUh56g3PVeNQM1o5NwANHQ4C5tmpY9zrwusniG5LWtk62e9HinzYo61NAi9RGV-xnNvmEZCQfp9JTK0XdLIE36_BguIbdlFt5kctUq5iCI0khRPo1Aw-x3BdHXeWJMgVmK34p3GNq2tjo9r9nccMhStfTCsbSew2w5bvjXKTuG7ADbqYPKs_RrF-PFZc_wfjkUvCMtTofDYcDXw79VWPsV1IJ616qirJh3R7o1u7pYxppAOn7aV7H88M5XHg5WSVxAvQmJCgRJ4U-bHNb4xZNxtM8pRo0AKn6C1F6G7yuk9pVi8otSXfFuIozoAL74H1YRZfaJ5YY0N-kjL9eNxfdClG3]--></g></svg>