<?xml version="1.0" encoding="us-ascii" standalone="no"?><svg xmlns="http://www.w3.org/2000/svg" xmlns:xlink="http://www.w3.org/1999/xlink" contentStyleType="text/css" height="860px" preserveAspectRatio="none" style="width:919px;height:860px;background:#FFFFFF;" version="1.1" viewBox="0 0 919 860" width="919px" zoomAndPan="magnify"><defs/><g><!--cluster Prometheus--><g id="cluster_Prometheus"><rect fill="none" height="97" rx="2.5" ry="2.5" style="stroke:#181818;stroke-width:1.0;" width="154" x="539" y="366"/><path d="M635,366 L635,375.4883 L625,385.4883 L539,385.4883 " fill="none" style="stroke:#181818;stroke-width:1.0;"/><text fill="#000000" font-family="sans-serif" font-size="14" font-weight="bold" lengthAdjust="spacing" textLength="86" x="542" y="380.5352">Prometheus</text></g><!--cluster NFVO--><g id="cluster_NFVO"><rect fill="none" height="97" rx="2.5" ry="2.5" style="stroke:#181818;stroke-width:1.0;" width="110" x="327" y="366"/><path d="M378,366 L378,375.4883 L368,385.4883 L327,385.4883 " fill="none" style="stroke:#181818;stroke-width:1.0;"/><text fill="#000000" font-family="sans-serif" font-size="14" font-weight="bold" lengthAdjust="spacing" textLength="41" x="330" y="380.5352">NFVO</text></g><!--cluster tacker--><g id="cluster_tacker"><rect fill="none" height="327" rx="2.5" ry="2.5" style="stroke:#181818;stroke-width:1.0;" width="660" x="253" y="527"/><path d="M307,527 L307,536.4883 L297,546.4883 L253,546.4883 " fill="none" style="stroke:#181818;stroke-width:1.0;"/><text fill="#000000" font-family="sans-serif" font-size="14" font-weight="bold" lengthAdjust="spacing" textLength="44" x="256" y="541.5352">tacker</text></g><!--cluster tacker-server--><g id="cluster_tacker-server"><rect fill="none" height="97" rx="2.5" ry="2.5" style="stroke:#181818;stroke-width:1.0;" width="612" x="277" y="570"/><rect fill="none" height="10" style="stroke:#181818;stroke-width:1.0;" width="15" x="869" y="575"/><rect fill="none" height="2" style="stroke:#181818;stroke-width:1.0;" width="4" x="867" y="577"/><rect fill="none" height="2" style="stroke:#181818;stroke-width:1.0;" width="4" x="867" y="581"/><text fill="#000000" font-family="sans-serif" font-size="14" font-weight="bold" lengthAdjust="spacing" textLength="97" x="534.5" y="596.5352">tacker-server</text></g><!--cluster tacker-conductor--><g id="cluster_tacker-conductor"><rect fill="none" height="114" rx="2.5" ry="2.5" style="stroke:#181818;stroke-width:1.0;" width="269" x="291" y="716"/><rect fill="none" height="10" style="stroke:#181818;stroke-width:1.0;" width="15" x="540" y="721"/><rect fill="none" height="2" style="stroke:#181818;stroke-width:1.0;" width="4" x="538" y="723"/><rect fill="none" height="2" style="stroke:#181818;stroke-width:1.0;" width="4" x="538" y="727"/><text fill="#000000" font-family="sans-serif" font-size="14" font-weight="bold" lengthAdjust="spacing" textLength="124" x="363.5" y="742.5352">tacker-conductor</text></g><!--cluster hw--><g id="cluster_hw"><path d="M163.0868,142.7979 C167.476,133.1676 175.424,132.4105 181.3602,141.2689 C184.5479,134.387 190.4396,133.7203 195.5823,138.9785 C199.2009,129.7534 205.3611,128.5733 212.2373,135.6504 C217.5959,125.3677 224.0397,126.4073 231.2006,133.7064 C235.2552,126.2025 241.0534,124.9364 246.7867,131.8976 C251.5666,123.5039 257.3175,122.1486 263.5694,130.4147 C267.1981,121.138 271.9346,120.8806 278.8149,127.2454 C284.8921,121.0385 292.8116,122.8311 294.8276,131.5905 C300.2264,124.547 307.3879,123.1559 312.3763,132.0426 C318.1524,124.2818 323.1988,126.4567 327.898,133.1955 C334.8622,124.3777 341.0672,124.8363 346.0258,135.1008 C352.1303,128.5628 357.5664,127.6623 362.0222,136.7848 C368.3224,130.305 374.5601,130.663 379.0625,138.8706 C389.8706,130.1801 398.2362,133.9823 401,147 C402.9419,146.5148 404.4558,147.4757 404.0438,149.6719 C414.0278,156.5764 412.0751,163.3749 402.8631,169.1136 C413.5947,173.2139 414.8899,182.6466 404.9045,188.8858 C412.0033,195.031 412.6684,203.4733 402.324,207.1545 C413.9156,210.366 414.8013,220.2643 405.8251,227.0883 C414.105,234.0565 415.1328,241.1251 404.1131,246.3805 C414.9064,252.2502 413.0155,259.9689 404.2977,266.0219 C411.3485,271.6955 412.9277,280.0212 403.0136,284.517 C412.5387,297.1067 409.8528,305.7533 394,309 C394.4095,308.5016 394.8893,308.5817 395.1168,309.1846 C389.9199,317.7691 384.4729,316.5084 378.8118,309.6755 C374.6165,317.5808 367.5434,318.3227 362.9099,310.1077 C358.3158,318.8648 352.0765,317.7448 346.8525,310.7498 C343.4559,319.6752 335.7937,318.4521 330.8324,312.4264 C324.6445,322.2716 316.8641,321.129 312.1722,311.027 C308.0411,317.4021 302.3993,319.2593 297.7705,311.5355 C291.6319,320.8568 286.0613,319.9664 279.8931,311.5653 C275.215,319.1165 268.1036,319.4534 263.0215,312.0202 C259.1774,320.0845 252.6908,321.5523 247.3651,313.4555 C241.019,320.862 233.6171,322.4028 228.7472,311.9192 C223.832,320.2958 216.7079,320.766 212.1448,311.5862 C207.5612,316.9944 201.4283,318.2196 198.0837,310.2809 C193.236,320.519 185.761,321.0215 179.4837,311.6359 C167.4056,320.1045 158.6951,314.8317 155,302 C156.0409,302.5853 156.2363,303.6957 155.0556,304.334 C146.1516,300.4256 143.0928,291.1262 152.5335,284.844 C140.9264,279.7331 141.3625,272.1056 149.5259,264.1248 C140.7868,260.8629 139.6133,253.6155 145.7802,247.0782 C134.2913,241.4536 132.2162,233.4124 142.8344,224.857 C133.9704,216.8168 138.621,208.3713 148.1809,205.3914 C140.9052,198.1842 140.1138,190.6466 150.819,185.8692 C143.0114,179.3365 146.2415,170.5706 154.8327,167.6507 C145.0523,156.1682 145.8853,144.7704 162,140 C163.7994,140.4007 163.898,141.3831 163.0868,142.7979 " fill="none" style="stroke:#181818;stroke-width:1.0;"/><text fill="#000000" font-family="sans-serif" font-size="14" font-weight="bold" lengthAdjust="spacing" textLength="146" x="205" y="158.5352">Hardware Resources</text></g><!--cluster k8s_w--><g id="cluster_k8s_w"><polygon fill="none" points="171,185,181,175,385,175,385,283,375,293,171,293,171,185" style="stroke:#181818;stroke-width:1.0;"/><line style="stroke:#181818;stroke-width:1.0;" x1="375" x2="385" y1="185" y2="175"/><line style="stroke:#181818;stroke-width:1.0;" x1="171" x2="375" y1="185" y2="185"/><line style="stroke:#181818;stroke-width:1.0;" x1="375" x2="375" y1="185" y2="293"/><text fill="#000000" font-family="sans-serif" font-size="14" font-weight="bold" lengthAdjust="spacing" textLength="138" x="205" y="201.5352">Kubernetes Cluster</text><text fill="#000000" font-family="sans-serif" font-size="14" font-weight="bold" lengthAdjust="spacing" textLength="61" x="243.5" y="218.0234">(Worker)</text></g><!--entity prom--><g id="elem_prom"><rect fill="#F1F1F1" height="46.4883" rx="2.5" ry="2.5" style="stroke:#181818;stroke-width:0.5;" width="122" x="555" y="401"/><rect fill="#F1F1F1" height="10" style="stroke:#181818;stroke-width:0.5;" width="15" x="657" y="406"/><rect fill="#F1F1F1" height="2" style="stroke:#181818;stroke-width:0.5;" width="4" x="655" y="408"/><rect fill="#F1F1F1" height="2" style="stroke:#181818;stroke-width:0.5;" width="4" x="655" y="412"/><text fill="#000000" font-family="sans-serif" font-size="14" lengthAdjust="spacing" textLength="82" x="570" y="434.5352">Prometheus</text></g><!--entity nfvo--><g id="elem_nfvo"><rect fill="#F1F1F1" height="46.4883" rx="2.5" ry="2.5" style="stroke:#181818;stroke-width:0.5;" width="78" x="343" y="401"/><rect fill="#F1F1F1" height="10" style="stroke:#181818;stroke-width:0.5;" width="15" x="401" y="406"/><rect fill="#F1F1F1" height="2" style="stroke:#181818;stroke-width:0.5;" width="4" x="399" y="408"/><rect fill="#F1F1F1" height="2" style="stroke:#181818;stroke-width:0.5;" width="4" x="399" y="412"/><text fill="#000000" font-family="sans-serif" font-size="14" lengthAdjust="spacing" textLength="38" x="358" y="434.5352">NFVO</text></g><!--entity fm_ctl--><g id="elem_fm_ctl"><rect fill="#F1F1F1" height="46.4883" rx="2.5" ry="2.5" style="stroke:#181818;stroke-width:0.5;" width="169" x="503.5" y="605"/><rect fill="#F1F1F1" height="10" style="stroke:#181818;stroke-width:0.5;" width="15" x="652.5" y="610"/><rect fill="#F1F1F1" height="2" style="stroke:#181818;stroke-width:0.5;" width="4" x="650.5" y="612"/><rect fill="#F1F1F1" height="2" style="stroke:#181818;stroke-width:0.5;" width="4" x="650.5" y="616"/><text fill="#000000" font-family="sans-serif" font-size="14" lengthAdjust="spacing" textLength="129" x="518.5" y="638.5352">VnffmControllerV2</text></g><!--entity plugin--><g id="elem_plugin"><rect fill="#F1F1F1" height="46.4883" rx="2.5" ry="2.5" style="stroke:#181818;stroke-width:0.5;" width="165" x="707.5" y="605"/><rect fill="#F1F1F1" height="10" style="stroke:#181818;stroke-width:0.5;" width="15" x="852.5" y="610"/><rect fill="#F1F1F1" height="2" style="stroke:#181818;stroke-width:0.5;" width="4" x="850.5" y="612"/><rect fill="#F1F1F1" height="2" style="stroke:#181818;stroke-width:0.5;" width="4" x="850.5" y="616"/><text fill="#000000" font-family="sans-serif" font-size="14" lengthAdjust="spacing" textLength="125" x="722.5" y="638.5352">PrometheusPlugin</text></g><!--entity lcm_ctl--><g id="elem_lcm_ctl"><rect fill="#F1F1F1" height="46.4883" rx="2.5" ry="2.5" style="stroke:#181818;stroke-width:0.5;" width="175" x="293.5" y="605"/><rect fill="#F1F1F1" height="10" style="stroke:#181818;stroke-width:0.5;" width="15" x="448.5" y="610"/><rect fill="#F1F1F1" height="2" style="stroke:#181818;stroke-width:0.5;" width="4" x="446.5" y="612"/><rect fill="#F1F1F1" height="2" style="stroke:#181818;stroke-width:0.5;" width="4" x="446.5" y="616"/><text fill="#000000" font-family="sans-serif" font-size="14" lengthAdjust="spacing" textLength="135" x="308.5" y="638.5352">VnflcmControllerV2</text></g><!--entity fm_driver--><g id="elem_fm_driver"><rect fill="#F1F1F1" height="62.9766" rx="2.5" ry="2.5" style="stroke:#181818;stroke-width:0.5;" width="81" x="462.5" y="751"/><rect fill="#F1F1F1" height="10" style="stroke:#181818;stroke-width:0.5;" width="15" x="523.5" y="756"/><rect fill="#F1F1F1" height="2" style="stroke:#181818;stroke-width:0.5;" width="4" x="521.5" y="758"/><rect fill="#F1F1F1" height="2" style="stroke:#181818;stroke-width:0.5;" width="4" x="521.5" y="762"/><text fill="#000000" font-family="sans-serif" font-size="14" lengthAdjust="spacing" textLength="41" x="477.5" y="784.5352">Vnffm</text><text fill="#000000" font-family="sans-serif" font-size="14" lengthAdjust="spacing" textLength="40" x="477.5" y="801.0234">driver</text></g><!--entity infra--><g id="elem_infra"><rect fill="#F1F1F1" height="62.9766" rx="2.5" ry="2.5" style="stroke:#181818;stroke-width:0.5;" width="120" x="307" y="751"/><rect fill="#F1F1F1" height="10" style="stroke:#181818;stroke-width:0.5;" width="15" x="407" y="756"/><rect fill="#F1F1F1" height="2" style="stroke:#181818;stroke-width:0.5;" width="4" x="405" y="758"/><rect fill="#F1F1F1" height="2" style="stroke:#181818;stroke-width:0.5;" width="4" x="405" y="762"/><text fill="#000000" font-family="sans-serif" font-size="14" lengthAdjust="spacing" textLength="78" x="322" y="784.5352">Kubernetes</text><text fill="#000000" font-family="sans-serif" font-size="14" lengthAdjust="spacing" textLength="80" x="322" y="801.0234">infra-driver</text></g><!--entity ins1--><g id="elem_ins1"><polygon fill="#F1F1F1" points="295,241,305,231,361,231,361,267.4883,351,277.4883,295,277.4883,295,241" style="stroke:#181818;stroke-width:0.5;"/><line style="stroke:#181818;stroke-width:0.5;" x1="351" x2="361" y1="241" y2="231"/><line style="stroke:#181818;stroke-width:0.5;" x1="295" x2="351" y1="241" y2="241"/><line style="stroke:#181818;stroke-width:0.5;" x1="351" x2="351" y1="241" y2="277.4883"/><text fill="#000000" font-family="sans-serif" font-size="14" lengthAdjust="spacing" textLength="26" x="310" y="264.5352">Pod</text></g><!--entity ins2--><g id="elem_ins2"><polygon fill="#F1F1F1" points="194,241,204,231,260,231,260,267.4883,250,277.4883,194,277.4883,194,241" style="stroke:#181818;stroke-width:0.5;"/><line style="stroke:#181818;stroke-width:0.5;" x1="250" x2="260" y1="241" y2="231"/><line style="stroke:#181818;stroke-width:0.5;" x1="194" x2="250" y1="241" y2="241"/><line style="stroke:#181818;stroke-width:0.5;" x1="250" x2="250" y1="241" y2="277.4883"/><text fill="#000000" font-family="sans-serif" font-size="14" lengthAdjust="spacing" textLength="26" x="209" y="264.5352">Pod</text></g><!--entity k8s_m--><g id="elem_k8s_m"><polygon fill="#F1F1F1" points="76.5,16,86.5,6,247.5,6,247.5,58.9766,237.5,68.9766,76.5,68.9766,76.5,16" style="stroke:#181818;stroke-width:0.5;"/><line style="stroke:#181818;stroke-width:0.5;" x1="237.5" x2="247.5" y1="16" y2="6"/><line style="stroke:#181818;stroke-width:0.5;" x1="76.5" x2="237.5" y1="16" y2="16"/><line style="stroke:#181818;stroke-width:0.5;" x1="237.5" x2="237.5" y1="16" y2="68.9766"/><text fill="#000000" font-family="sans-serif" font-size="14" lengthAdjust="spacing" textLength="131" x="91.5" y="39.5352">Kubernetes Cluster</text><text fill="#000000" font-family="sans-serif" font-size="14" lengthAdjust="spacing" textLength="56" x="91.5" y="56.0234">(Master)</text></g><!--link nfvo to fm_ctl--><g id="link_nfvo_fm_ctl"><path d="M386.04,447.19 C390.93,467.24 401.24,495.87 422,511 C445.16,527.89 460.43,506.04 486,519 C524.88,538.71 553.5105,574.4955 570.7705,599.9255 " fill="none" id="nfvo-to-fm_ctl" style="stroke:#181818;stroke-width:1.0;"/><polygon fill="#181818" points="574.14,604.89,572.3954,595.1969,571.3321,600.7529,565.776,599.6896,574.14,604.89" style="stroke:#181818;stroke-width:1.0;"/><text fill="#000000" font-family="sans-serif" font-size="13" lengthAdjust="spacing" textLength="139" x="423" y="492.5684">1. Create subscription</text><text fill="#000000" font-family="sans-serif" font-size="13" lengthAdjust="spacing" textLength="121" x="432" y="507.8789">(Notification Mode)</text></g><!--link nfvo to fm_ctl--><g id="link_nfvo_fm_ctl"><path d="M421.34,436.6 C453.08,445.95 498.89,459.4 539,471 C551.43,474.6 558.5,469.24 567,479 C597.6,514.12 596.3416,566.7948 592.4216,598.7048 " fill="none" id="nfvo-to-fm_ctl-1" style="stroke:#181818;stroke-width:1.0;"/><polygon fill="#181818" points="591.69,604.66,596.7575,596.2149,592.2996,599.6973,588.8172,595.2394,591.69,604.66" style="stroke:#181818;stroke-width:1.0;"/><text fill="#000000" font-family="sans-serif" font-size="13" lengthAdjust="spacing" textLength="85" x="587" y="492.5684">5. Get Alarms</text><text fill="#000000" font-family="sans-serif" font-size="13" lengthAdjust="spacing" textLength="89" x="585" y="507.8789">(Polling Mode)</text></g><!--link ins1 to prom--><g id="link_ins1_prom"><path d="M361.32,274.44 C415.07,305.79 515.4373,364.3368 572.3173,397.5168 " fill="none" id="ins1-to-prom" style="stroke:#181818;stroke-width:1.0;"/><polygon fill="#181818" points="577.5,400.54,571.7415,392.55,573.1811,398.0206,567.7105,399.4603,577.5,400.54" style="stroke:#181818;stroke-width:1.0;"/><text fill="#000000" font-family="sans-serif" font-size="13" lengthAdjust="spacing" textLength="111" x="490" y="346.5684">2. Collect metrics</text></g><!--link prom to plugin--><g id="link_prom_plugin"><path d="M662.64,447.37 C677.33,455.89 692.88,466.59 705,479 C741.84,516.74 766.2594,568.0044 779.1094,599.1144 " fill="none" id="prom-to-plugin" style="stroke:#181818;stroke-width:1.0;"/><polygon fill="#181818" points="781.4,604.66,781.6611,594.8146,779.4912,600.0387,774.2671,597.8687,781.4,604.66" style="stroke:#181818;stroke-width:1.0;"/><text fill="#000000" font-family="sans-serif" font-size="13" lengthAdjust="spacing" textLength="80" x="729" y="500.0684">3. POST alert</text></g><!--link plugin to fm_driver--><g id="link_plugin_fm_driver"><path d="M747.96,651.34 C693.15,680.46 603.2184,728.2445 549.0584,757.0245 " fill="none" id="plugin-to-fm_driver" style="stroke:#181818;stroke-width:1.0;"/><polygon fill="#181818" points="543.76,759.84,553.5846,759.149,548.1753,757.4937,549.8306,752.0845,543.76,759.84" style="stroke:#181818;stroke-width:1.0;"/><text fill="#000000" font-family="sans-serif" font-size="13" lengthAdjust="spacing" textLength="153" x="681" y="696.5684">4. Convert alert to alarm</text></g><!--link fm_driver to nfvo--><g id="link_fm_driver_nfvo"><path d="M486.74,750.75 C476.84,735.23 462.68,717.68 445,708 C379.97,672.4 162.77,729.96 113,675 C66.46,623.61 72.87,575.54 113,519 C165.69,444.77 275.6081,429.0022 336.6481,425.8222 " fill="none" id="fm_driver-to-nfvo" style="stroke:#181818;stroke-width:1.0;"/><polygon fill="#181818" points="342.64,425.51,333.4441,421.9837,337.6468,425.7701,333.8603,429.9728,342.64,425.51" style="stroke:#181818;stroke-width:1.0;"/><text fill="#000000" font-family="sans-serif" font-size="13" lengthAdjust="spacing" textLength="162" x="114" y="625.5684">6. Send alarm notification</text><text fill="#000000" font-family="sans-serif" font-size="13" lengthAdjust="spacing" textLength="121" x="134.5" y="640.8789">(Notification Mode)</text></g><!--link nfvo to lcm_ctl--><g id="link_nfvo_lcm_ctl"><path d="M356.8,447.32 C348.52,456.24 340.34,467.21 336,479 C319.85,522.85 343.2162,570.406 361.9062,599.616 " fill="none" id="nfvo-to-lcm_ctl" style="stroke:#181818;stroke-width:1.0;"/><polygon fill="#181818" points="365.14,604.67,363.6586,594.9332,362.4452,600.4584,356.92,599.2449,365.14,604.67" style="stroke:#181818;stroke-width:1.0;"/><text fill="#000000" font-family="sans-serif" font-size="13" lengthAdjust="spacing" textLength="44" x="337" y="500.0684">7. Heal</text></g><!--link lcm_ctl to infra--><g id="link_lcm_ctl_infra"><path d="M378.96,651.17 C376.56,677.36 373.0989,715.1052 370.3889,744.6052 " fill="none" id="lcm_ctl-to-infra" style="stroke:#181818;stroke-width:1.0;"/><polygon fill="#181818" points="369.84,750.58,374.6465,741.9837,370.2974,745.601,366.6801,741.2518,369.84,750.58" style="stroke:#181818;stroke-width:1.0;"/></g><!--link infra to k8s_m--><g id="link_infra_k8s_m"><path d="M306.58,782.07 C203.81,779.54 6,757.93 6,629 C6,253 6,253 6,253 C6,175.41 68.9303,110.8222 115.1303,73.1422 " fill="none" id="infra-to-k8s_m" style="stroke:#181818;stroke-width:1.0;"/><polygon fill="#181818" points="119.78,69.35,110.2774,71.9385,115.9053,72.5102,115.3336,78.1381,119.78,69.35" style="stroke:#181818;stroke-width:1.0;"/><text fill="#000000" font-family="sans-serif" font-size="13" lengthAdjust="spacing" textLength="138" x="7" y="429.0684">8. Call Kubernetes API</text></g><!--link k8s_m to ins2--><g id="link_k8s_m_ins2"><path d="M157.05,69.41 C155.71,83.75 155.46,100.92 159,116 C169.19,159.43 192.0507,199.8095 208.7907,225.9095 " fill="none" id="k8s_m-to-ins2" style="stroke:#181818;stroke-width:1.0;"/><polygon fill="#181818" points="212.03,230.96,210.5381,221.2248,209.3306,226.7513,203.8041,225.5438,212.03,230.96" style="stroke:#181818;stroke-width:1.0;"/><text fill="#000000" font-family="sans-serif" font-size="13" lengthAdjust="spacing" textLength="124" x="160" y="112.5684">9. Create a new pod</text></g><!--link k8s_m to ins1--><g id="link_k8s_m_ins1"><path d="M247.88,66.62 C263.33,74.97 278,85.59 289,99 C320.58,137.49 326.8163,192.2631 327.8663,224.7631 " fill="none" id="k8s_m-to-ins1" style="stroke:#181818;stroke-width:1.0;"/><polygon fill="#181818" points="328.06,230.76,331.7673,221.6355,327.8985,225.7626,323.7715,221.8939,328.06,230.76" style="stroke:#181818;stroke-width:1.0;"/><text fill="#000000" font-family="sans-serif" font-size="13" lengthAdjust="spacing" textLength="140" x="299" y="112.5684">10. Delete the old pod</text></g><!--SRC=[VLDDJnin4BtxLup20JXarQHVi8TAAAYbge1LgT9B96JiMMB5QwziBpbK_FUExMsob0qvHEEPzsRUV6pjU8CmgPnjCAonynFumu1-mZQjDMZ2oo3tqDAJFJDMP-hDr-Nj22cx2Mxg9pk01ousw4O8EJ3rw9xsyVymIrFNpSAQuApMw9RpLA5kxaNGO_YzyaftZyfa_Saya5wBr_d9jolmV42si4Ps8jWtbQ-CT2frbrNdrnZyH_U0pc10lpBAqEYc0sPoz6feiCPA739WeJiVqAtCoJMFncbYRSxyVSE4jfs4oHLtSiiTma_qjdC2yshNsrxz6pb_MxSPvjmE6iwqoifUfvyT3itt7HmVaGxDWxB6hrNhgISw6fXEl_IxBM5MmC8X3mY-U_32gJQYISwD3QfM8f7XcegSibWtaUEbbZ0dQbod2437u9JmB0Oo8jr22UyBg6xlVW6dhGUMlV_gvycNy27cCMI638DWoU2kUQtsOm7VCC15ZD86JogghynZhs-NCt4YkOHF1ToXaJaX3MlVr7YFkvBzSPRmkO0hv9hrZXJCbvB-qplTG0bdr0dN6WRxlQY-inJjUNvUmlbkvXmCRg6ryYLcHdjvLy0bQie1z9s1rJB1_W80]--></g></svg>