<?xml version="1.0" encoding="us-ascii" standalone="no"?><svg xmlns="http://www.w3.org/2000/svg" xmlns:xlink="http://www.w3.org/1999/xlink" contentStyleType="text/css" height="741px" preserveAspectRatio="none" style="width:480px;height:741px;background:#FFFFFF;" version="1.1" viewBox="0 0 480 741" width="480px" zoomAndPan="magnify"><defs/><g><!--cluster python-tackerclient--><g id="cluster_python-tackerclient"><rect fill="none" height="97" rx="2.5" ry="2.5" style="stroke:#181818;stroke-width:1.0;" width="160" x="27" y="7"/><path d="M180,7 L180,16.4883 L170,26.4883 L27,26.4883 " fill="none" style="stroke:#181818;stroke-width:1.0;"/><text fill="#000000" font-family="sans-serif" font-size="14" font-weight="bold" lengthAdjust="spacing" textLength="143" x="30" y="21.5352">python-tackerclient</text></g><!--cluster tacker--><g id="cluster_tacker"><rect fill="none" height="418" rx="2.5" ry="2.5" style="stroke:#181818;stroke-width:1.0;" width="200" x="7" y="168"/><path d="M61,168 L61,177.4883 L51,187.4883 L7,187.4883 " fill="none" style="stroke:#181818;stroke-width:1.0;"/><text fill="#000000" font-family="sans-serif" font-size="14" font-weight="bold" lengthAdjust="spacing" textLength="44" x="10" y="182.5352">tacker</text></g><!--cluster tacker-server--><g id="cluster_tacker-server"><rect fill="none" height="97" rx="2.5" ry="2.5" style="stroke:#181818;stroke-width:1.0;" width="114" x="50" y="211"/><rect fill="none" height="10" style="stroke:#181818;stroke-width:1.0;" width="15" x="144" y="216"/><rect fill="none" height="2" style="stroke:#181818;stroke-width:1.0;" width="4" x="142" y="218"/><rect fill="none" height="2" style="stroke:#181818;stroke-width:1.0;" width="4" x="142" y="222"/><text fill="#000000" font-family="sans-serif" font-size="14" font-weight="bold" lengthAdjust="spacing" textLength="97" x="58.5" y="237.5352">tacker-server</text></g><!--cluster tacker-conductor--><g id="cluster_tacker-conductor"><rect fill="none" height="221" rx="2.5" ry="2.5" style="stroke:#181818;stroke-width:1.0;" width="152" x="31" y="341"/><rect fill="none" height="10" style="stroke:#181818;stroke-width:1.0;" width="15" x="163" y="346"/><rect fill="none" height="2" style="stroke:#181818;stroke-width:1.0;" width="4" x="161" y="348"/><rect fill="none" height="2" style="stroke:#181818;stroke-width:1.0;" width="4" x="161" y="352"/><text fill="#000000" font-family="sans-serif" font-size="14" font-weight="bold" lengthAdjust="spacing" textLength="124" x="45" y="367.5352">tacker-conductor</text></g><!--cluster hw--><g id="cluster_hw"><path d="M283.1367,643.2097 C287.4308,636.6273 293.0585,636.21 297.5831,642.96 C300.8738,638.7141 304.5999,638.8253 307.8634,642.9931 C311.7573,636.7354 317.9192,636.5917 321.1487,643.6557 C323.8162,637.4205 329.5535,636.8636 333.0771,642.818 C335.9936,636.7215 342.0832,636.441 345.6034,642.179 C348.9493,635.3103 352.7554,634.7284 357.7628,640.5923 C361.2604,634.8871 367.4784,634.9478 370.5467,641.0568 C374.4795,635.8281 380.8917,635.0728 383.6835,642.2638 C386.9415,636.3224 391.6321,637.5094 394.9378,642.2134 C398.8531,635.4461 404.3916,635.6213 408.3734,642.1462 C411.8018,636.2627 416.667,637.3469 419.8111,642.4425 C424.6589,635.267 430.5707,636.3461 434.1501,643.6947 C437.0749,639.3963 442.0562,638.4563 444.5784,644.1163 C449.4856,639.3358 453.586,638.558 457.3989,645.3307 C464.9366,647.0842 467.7395,651.4658 462.2512,658.15 C470.1147,660.9138 470.7053,667.826 463.5489,671.9974 C471.5322,674.1589 473.5128,679.8052 467.3706,685.8607 C473.1736,690.1224 471.236,695.6637 465.1975,697.7634 C469.7216,704.157 470.2466,709.8964 460.9394,712.2145 C465.8161,718.4535 464.3635,722.5134 457.6451,725.9769 C454.5609,731.8112 448.4085,732.4232 444.9616,726.3638 C441.8421,731.6786 436.9063,732.0497 433.4924,726.6799 C429.5995,732.995 425.1884,733.9547 420.8003,727.1592 C417.1699,732.9183 411.1912,731.438 408.6307,725.9967 C404.9877,732.0884 400.3848,733.1574 395.6903,727.1183 C391.9642,733.5659 388.0923,732.1796 384.0282,727.4716 C381.0856,732.6259 376.2713,734.5384 372.3118,728.5398 C367.6657,733.7374 363.5263,734.058 359.4285,727.9168 C355.6572,734.7854 350.0917,734.009 346.6198,727.6275 C342.375,733.2347 338.5659,732.2353 334.7214,727.1807 C330.3452,732.4202 326.0738,733.5896 322.0141,726.8452 C318.675,733.0937 313.0233,733.0482 309.8656,726.6707 C303.9932,732.0172 299.6997,731.2313 295.88,724.3272 C292.6208,729.7538 287.9341,730.409 284.514,724.4884 C278.2501,722.033 278.0174,716.8886 282.5927,712.6711 C275.4445,709.2571 273.705,704.7803 279.201,698.368 C271.3139,695.6354 271.1508,689.0191 276.8922,684.0837 C271.2399,679.216 271.6383,674.6907 277.7188,670.5391 C272.8764,664.6105 274.5322,659.3089 282.3626,658.1183 C276.0431,653.7668 274.8434,646.8024 283.1367,643.2097 " fill="none" style="stroke:#181818;stroke-width:1.0;"/><text fill="#000000" font-family="sans-serif" font-size="14" font-weight="bold" lengthAdjust="spacing" textLength="146" x="297" y="661.5352">Hardware Resources</text></g><!--entity client--><g id="elem_client"><rect fill="#F1F1F1" height="46.4883" rx="2.5" ry="2.5" style="stroke:#181818;stroke-width:0.5;" width="127" x="43.5" y="42"/><rect fill="#F1F1F1" height="10" style="stroke:#181818;stroke-width:0.5;" width="15" x="150.5" y="47"/><rect fill="#F1F1F1" height="2" style="stroke:#181818;stroke-width:0.5;" width="4" x="148.5" y="49"/><rect fill="#F1F1F1" height="2" style="stroke:#181818;stroke-width:0.5;" width="4" x="148.5" y="53"/><text fill="#000000" font-family="sans-serif" font-size="14" lengthAdjust="spacing" textLength="87" x="58.5" y="75.5352">tacker-client</text></g><!--entity serv--><g id="elem_serv"><rect fill="#F1F1F1" height="46.4883" rx="2.5" ry="2.5" style="stroke:#181818;stroke-width:0.5;" width="82" x="66" y="246"/><rect fill="#F1F1F1" height="10" style="stroke:#181818;stroke-width:0.5;" width="15" x="128" y="251"/><rect fill="#F1F1F1" height="2" style="stroke:#181818;stroke-width:0.5;" width="4" x="126" y="253"/><rect fill="#F1F1F1" height="2" style="stroke:#181818;stroke-width:0.5;" width="4" x="126" y="257"/><text fill="#000000" font-family="sans-serif" font-size="14" lengthAdjust="spacing" textLength="42" x="81" y="279.5352">server</text></g><!--entity cond--><g id="elem_cond"><rect fill="#F1F1F1" height="46.4883" rx="2.5" ry="2.5" style="stroke:#181818;stroke-width:0.5;" width="110" x="52" y="376"/><rect fill="#F1F1F1" height="10" style="stroke:#181818;stroke-width:0.5;" width="15" x="142" y="381"/><rect fill="#F1F1F1" height="2" style="stroke:#181818;stroke-width:0.5;" width="4" x="140" y="383"/><rect fill="#F1F1F1" height="2" style="stroke:#181818;stroke-width:0.5;" width="4" x="140" y="387"/><text fill="#000000" font-family="sans-serif" font-size="14" lengthAdjust="spacing" textLength="70" x="67" y="409.5352">conductor</text></g><!--entity infra--><g id="elem_infra"><rect fill="#F1F1F1" height="62.9766" rx="2.5" ry="2.5" style="stroke:#181818;stroke-width:0.5;" width="120" x="47" y="483"/><rect fill="#F1F1F1" height="10" style="stroke:#181818;stroke-width:0.5;" width="15" x="147" y="488"/><rect fill="#F1F1F1" height="2" style="stroke:#181818;stroke-width:0.5;" width="4" x="145" y="490"/><rect fill="#F1F1F1" height="2" style="stroke:#181818;stroke-width:0.5;" width="4" x="145" y="494"/><text fill="#000000" font-family="sans-serif" font-size="14" lengthAdjust="spacing" textLength="73" x="62" y="516.5352">OpenStack</text><text fill="#000000" font-family="sans-serif" font-size="14" lengthAdjust="spacing" textLength="80" x="62" y="533.0234">infra-driver</text></g><!--entity ins1--><g id="elem_ins1"><polygon fill="#F1F1F1" points="291.5,680,301.5,670,352.5,670,352.5,706.4883,342.5,716.4883,291.5,716.4883,291.5,680" style="stroke:#181818;stroke-width:0.5;"/><line style="stroke:#181818;stroke-width:0.5;" x1="342.5" x2="352.5" y1="680" y2="670"/><line style="stroke:#181818;stroke-width:0.5;" x1="291.5" x2="342.5" y1="680" y2="680"/><line style="stroke:#181818;stroke-width:0.5;" x1="342.5" x2="342.5" y1="680" y2="716.4883"/><text fill="#000000" font-family="sans-serif" font-size="14" lengthAdjust="spacing" textLength="21" x="306.5" y="703.5352">VM</text></g><!--entity ins2--><g id="elem_ins2"><polygon fill="#F1F1F1" points="387.5,680,397.5,670,448.5,670,448.5,706.4883,438.5,716.4883,387.5,716.4883,387.5,680" style="stroke:#181818;stroke-width:0.5;"/><line style="stroke:#181818;stroke-width:0.5;" x1="438.5" x2="448.5" y1="680" y2="670"/><line style="stroke:#181818;stroke-width:0.5;" x1="387.5" x2="438.5" y1="680" y2="680"/><line style="stroke:#181818;stroke-width:0.5;" x1="438.5" x2="438.5" y1="680" y2="716.4883"/><text fill="#000000" font-family="sans-serif" font-size="14" lengthAdjust="spacing" textLength="21" x="402.5" y="703.5352">VM</text></g><!--entity heat--><g id="elem_heat"><polygon fill="#F1F1F1" points="314.5,493,324.5,483,427.5,483,427.5,535.9766,417.5,545.9766,314.5,545.9766,314.5,493" style="stroke:#181818;stroke-width:0.5;"/><line style="stroke:#181818;stroke-width:0.5;" x1="417.5" x2="427.5" y1="493" y2="483"/><line style="stroke:#181818;stroke-width:0.5;" x1="314.5" x2="417.5" y1="493" y2="493"/><line style="stroke:#181818;stroke-width:0.5;" x1="417.5" x2="417.5" y1="493" y2="545.9766"/><text fill="#000000" font-family="sans-serif" font-size="14" lengthAdjust="spacing" textLength="73" x="329.5" y="516.5352">OpenStack</text><text fill="#000000" font-family="sans-serif" font-size="14" lengthAdjust="spacing" textLength="31" x="329.5" y="533.0234">Heat</text></g><!--link client to serv--><g id="link_client_serv"><path d="M107,88.39 C107,127.22 107,200.61 107,239.51 " fill="none" id="client-to-serv" style="stroke:#181818;stroke-width:1.0;"/><polygon fill="#181818" points="107,245.51,111,236.51,107,240.51,103,236.51,107,245.51" style="stroke:#181818;stroke-width:1.0;"/><text fill="#000000" font-family="sans-serif" font-size="13" lengthAdjust="spacing" textLength="66" x="166" y="133.5684">1. Request</text><text fill="#000000" font-family="sans-serif" font-size="13" lengthAdjust="spacing" textLength="182" x="112" y="148.8789">Change Current VNF Package</text></g><!--link serv to cond--><g id="link_serv_cond"><path d="M107,292.3 C107,315.65 107,346.11 107,369.53 " fill="none" id="serv-to-cond" style="stroke:#181818;stroke-width:1.0;"/><polygon fill="#181818" points="107,375.53,111,366.53,107,370.53,103,366.53,107,375.53" style="stroke:#181818;stroke-width:1.0;"/></g><!--link cond to infra--><g id="link_cond_infra"><path d="M107,422.42 C107,439.61 107,457.52 107,476.53 " fill="none" id="cond-to-infra" style="stroke:#181818;stroke-width:1.0;"/><polygon fill="#181818" points="107,482.53,111,473.53,107,477.53,103,473.53,107,482.53" style="stroke:#181818;stroke-width:1.0;"/></g><!--link infra to heat--><g id="link_infra_heat"><path d="M167.24,514.5 C211.37,514.5 264.88,514.5 308.19,514.5 " fill="none" id="infra-to-heat" style="stroke:#181818;stroke-width:1.0;"/><polygon fill="#181818" points="314.19,514.5,305.19,510.5,309.19,514.5,305.19,518.5,314.19,514.5" style="stroke:#181818;stroke-width:1.0;"/><text fill="#000000" font-family="sans-serif" font-size="13" lengthAdjust="spacing" textLength="111" x="185.25" y="493.0684">2. Call OpenStack</text><text fill="#000000" font-family="sans-serif" font-size="13" lengthAdjust="spacing" textLength="53" x="216.25" y="508.3789">Heat API</text></g><!--link heat to ins1--><g id="link_heat_ins1"><path d="M314.16,542.95 C291.4,557.15 267.62,576.85 255,602 C241.72,628.46 263.0125,651.6534 286.4225,669.0334 " fill="none" id="heat-to-ins1" style="stroke:#181818;stroke-width:1.0;"/><polygon fill="#181818" points="291.24,672.61,286.3982,664.0335,287.2254,669.6295,281.6294,670.4568,291.24,672.61" style="stroke:#181818;stroke-width:1.0;"/><text fill="#000000" font-family="sans-serif" font-size="13" lengthAdjust="spacing" textLength="192" x="256" y="615.5684">3. Change the resource of VMs</text></g><!--link heat to ins2--><g id="link_heat_ins2"><path d="M413.89,546.4 C430.68,561.12 448.04,580.27 457,602 C466.55,625.14 455.9165,646.6152 442.0265,664.7652 " fill="none" id="heat-to-ins2" style="stroke:#181818;stroke-width:1.0;"/><polygon fill="#181818" points="438.38,669.53,447.0262,664.8138,441.4187,665.5593,440.6731,659.9518,438.38,669.53" style="stroke:#181818;stroke-width:1.0;"/></g><!--link ins1 to ins2--><!--SRC=[TL0zQyCm4DtrAmvtwAI0tSr3eHXACgGDBNXfEWZhR8awaYl93QNalrSVDarAh458zzwzU-zQmmu8sV3jX5RKiUO3JTDBL2w37mB-DFemQEKBa2MOpZYpa9xaH4YRX19bkTUY-Vh3_t5cq0k7PwISbanenSV6wIMjCppuzBzhhES1rMjGt2kfV0JAZPmjnCBamGTKckD5mnfPMeBm3zBqUkIGhPdXHsOGNj3gqJHe4-KukKmgzNQQOFEhrI8C9BStNgLdJcfbXHmiITi6Ik_ZVah8LvxnEQ9ri5TG2QOwX6eq9j3gfqVOUQUiGnBeiIyk8bpnboB66wYHdN2-6EAKKAoWOdqFPu4X98Q7tOO4oYHWynBkLlDi9n3Cb1nq2_NMNf0B4Zg0lWd9EQhtUMQ4VW40]--></g></svg>