<?xml version="1.0" encoding="us-ascii" standalone="no"?><svg xmlns="http://www.w3.org/2000/svg" xmlns:xlink="http://www.w3.org/1999/xlink" contentStyleType="text/css" height="854px" preserveAspectRatio="none" style="width:1153px;height:854px;background:#FFFFFF;" version="1.1" viewBox="0 0 1153 854" width="1153px" zoomAndPan="magnify"><defs/><g><!--cluster Prometheus--><g id="cluster_Prometheus"><rect fill="none" height="97" rx="2.5" ry="2.5" style="stroke:#181818;stroke-width:1.0;" width="154" x="291.5" y="582.5"/><path d="M387.5,582.5 L387.5,591.9883 L377.5,601.9883 L291.5,601.9883 " fill="none" style="stroke:#181818;stroke-width:1.0;"/><text fill="#000000" font-family="sans-serif" font-size="14" font-weight="bold" lengthAdjust="spacing" textLength="86" x="294.5" y="597.0352">Prometheus</text></g><!--cluster NFVO--><g id="cluster_NFVO"><rect fill="none" height="97" rx="2.5" ry="2.5" style="stroke:#181818;stroke-width:1.0;" width="110" x="717.5" y="7"/><path d="M768.5,7 L768.5,16.4883 L758.5,26.4883 L717.5,26.4883 " fill="none" style="stroke:#181818;stroke-width:1.0;"/><text fill="#000000" font-family="sans-serif" font-size="14" font-weight="bold" lengthAdjust="spacing" textLength="41" x="720.5" y="21.5352">NFVO</text></g><!--cluster tacker--><g id="cluster_tacker"><rect fill="none" height="559" rx="2.5" ry="2.5" style="stroke:#181818;stroke-width:1.0;" width="464" x="469.5" y="153"/><path d="M523.5,153 L523.5,162.4883 L513.5,172.4883 L469.5,172.4883 " fill="none" style="stroke:#181818;stroke-width:1.0;"/><text fill="#000000" font-family="sans-serif" font-size="14" font-weight="bold" lengthAdjust="spacing" textLength="44" x="472.5" y="167.5352">tacker</text></g><!--cluster tacker-server--><g id="cluster_tacker-server"><rect fill="none" height="305" rx="2.5" ry="2.5" style="stroke:#181818;stroke-width:1.0;" width="416" x="493.5" y="196"/><rect fill="none" height="10" style="stroke:#181818;stroke-width:1.0;" width="15" x="889.5" y="201"/><rect fill="none" height="2" style="stroke:#181818;stroke-width:1.0;" width="4" x="887.5" y="203"/><rect fill="none" height="2" style="stroke:#181818;stroke-width:1.0;" width="4" x="887.5" y="207"/><text fill="#000000" font-family="sans-serif" font-size="14" font-weight="bold" lengthAdjust="spacing" textLength="97" x="653" y="222.5352">tacker-server</text></g><!--cluster tacker-conductor--><g id="cluster_tacker-conductor"><rect fill="none" height="114" rx="2.5" ry="2.5" style="stroke:#181818;stroke-width:1.0;" width="287" x="581.5" y="574"/><rect fill="none" height="10" style="stroke:#181818;stroke-width:1.0;" width="15" x="848.5" y="579"/><rect fill="none" height="2" style="stroke:#181818;stroke-width:1.0;" width="4" x="846.5" y="581"/><rect fill="none" height="2" style="stroke:#181818;stroke-width:1.0;" width="4" x="846.5" y="585"/><text fill="#000000" font-family="sans-serif" font-size="14" font-weight="bold" lengthAdjust="spacing" textLength="124" x="663" y="600.5352">tacker-conductor</text></g><!--cluster hw--><g id="cluster_hw"><path d="M45.434,350.641 C51.5205,339.6015 62.19,339.5096 69.6489,349.0241 C75.6578,339.9017 81.6041,339.3417 89.3555,346.9747 C94.9146,332.018 106.6785,331.6063 115.6883,343.6034 C121.8528,334.5143 128.4126,333.9182 135.8712,342.0902 C142.7542,331.0559 152.2586,332.9877 158.8851,342.3792 C165.3233,331.706 171.937,328.174 181.5795,338.9962 C187.583,325.8834 195.7662,326.7631 204.1987,336.6025 C211.8111,325.9358 223.1363,325.6459 229.2974,338.173 C237.7479,329.0979 246.511,332.1169 249.2747,343.6782 C254.5633,331.8492 264.9848,330.9674 272.1731,341.7548 C281.2651,332.7836 289.466,333.4905 293.4309,346.6743 C300.6539,336.2326 310.8798,335.6 316.1508,348.5687 C324.5113,338.3063 335.8555,338.4989 342.8561,350.2205 C352.4011,337.6668 363.7328,341.9192 368.5,355 C370.0599,355.9852 370.0799,357.5511 368.502,358.5381 C383.9078,364.418 383.3012,373.7119 374.5991,385.1212 C386.3711,391.2714 389.4558,399.6597 377.5493,408.7645 C390.518,415.3898 389.3473,426.6906 377.0826,432.8265 C388.6391,441.3529 390.4523,452.37 375.7922,459.6343 C386.3544,466.0927 387.5654,478.1751 375.5824,484.4428 C389.1142,501.1189 379.4505,513.9413 361.5,517 C362.1086,516.4467 362.4774,516.6966 362.7373,517.3558 C357.6559,530.3277 348.2875,531.2586 339.4868,521.0933 C332.0484,531.2148 324.2099,528.6183 318.234,519.4795 C311.5852,530.4193 302.1968,532.2957 294.9447,520.0865 C289.3085,531.4637 281.872,532.5678 274.3208,521.8761 C268.0051,533.8313 258.9837,535.3832 249.727,525.1335 C241.7819,534.6478 234.4403,536.0962 226.7961,524.802 C219.1657,536.8303 209.6692,536.1829 202.5416,524.2923 C198.951,535.2398 190.7026,535.9657 183.9728,527.2579 C176.0819,536.1616 164.0982,536.5621 160.5786,522.7551 C153.114,531.7947 144.8717,531.7913 137.8489,522.2156 C130.7021,535.0213 122.6361,532.8863 114.8727,522.8354 C107.5993,531.1494 96.3598,529.9423 92.1016,519.2272 C84.8577,531.8179 74.8291,531.1428 66.493,520.4273 C53.7792,532.6369 39.1627,526.7015 36.5,510 C38.1341,510.9494 38.2736,512.2931 36.5904,513.3325 C23.1571,503.5495 24.6697,495.1543 37.3136,486.0629 C21.5113,480.4074 20.2388,470.5738 32.0286,459.4408 C17.9109,452.5739 19.9482,442.5025 30.3766,434.0393 C18.6682,423.8539 21.0745,415.8708 34.4253,409.8861 C24.1868,402.3983 23.4938,389.7945 35.9096,383.5854 C19.7387,367.4796 22.2226,356.1181 43.5,348 C45.3952,347.8342 46.1286,348.9102 45.434,350.641 " fill="none" style="stroke:#181818;stroke-width:1.0;"/><text fill="#000000" font-family="sans-serif" font-size="14" font-weight="bold" lengthAdjust="spacing" textLength="146" x="129.5" y="366.5352">Hardware Resources</text></g><!--cluster k8s_w--><g id="cluster_k8s_w"><polygon fill="none" points="52.5,393,62.5,383,352.5,383,352.5,491,342.5,501,52.5,501,52.5,393" style="stroke:#181818;stroke-width:1.0;"/><line style="stroke:#181818;stroke-width:1.0;" x1="342.5" x2="352.5" y1="393" y2="383"/><line style="stroke:#181818;stroke-width:1.0;" x1="52.5" x2="342.5" y1="393" y2="393"/><line style="stroke:#181818;stroke-width:1.0;" x1="342.5" x2="342.5" y1="393" y2="501"/><text fill="#000000" font-family="sans-serif" font-size="14" font-weight="bold" lengthAdjust="spacing" textLength="138" x="129.5" y="409.5352">Kubernetes Cluster</text><text fill="#000000" font-family="sans-serif" font-size="14" font-weight="bold" lengthAdjust="spacing" textLength="61" x="168" y="426.0234">(Worker)</text></g><!--entity prom--><g id="elem_prom"><rect fill="#F1F1F1" height="46.4883" rx="2.5" ry="2.5" style="stroke:#181818;stroke-width:0.5;" width="122" x="307.5" y="617.5"/><rect fill="#F1F1F1" height="10" style="stroke:#181818;stroke-width:0.5;" width="15" x="409.5" y="622.5"/><rect fill="#F1F1F1" height="2" style="stroke:#181818;stroke-width:0.5;" width="4" x="407.5" y="624.5"/><rect fill="#F1F1F1" height="2" style="stroke:#181818;stroke-width:0.5;" width="4" x="407.5" y="628.5"/><text fill="#000000" font-family="sans-serif" font-size="14" lengthAdjust="spacing" textLength="82" x="322.5" y="651.0352">Prometheus</text></g><!--entity nfvo--><g id="elem_nfvo"><rect fill="#F1F1F1" height="46.4883" rx="2.5" ry="2.5" style="stroke:#181818;stroke-width:0.5;" width="78" x="733.5" y="42"/><rect fill="#F1F1F1" height="10" style="stroke:#181818;stroke-width:0.5;" width="15" x="791.5" y="47"/><rect fill="#F1F1F1" height="2" style="stroke:#181818;stroke-width:0.5;" width="4" x="789.5" y="49"/><rect fill="#F1F1F1" height="2" style="stroke:#181818;stroke-width:0.5;" width="4" x="789.5" y="53"/><text fill="#000000" font-family="sans-serif" font-size="14" lengthAdjust="spacing" textLength="38" x="748.5" y="75.5352">NFVO</text></g><!--entity pm_ctl--><g id="elem_pm_ctl"><rect fill="#F1F1F1" height="46.4883" rx="2.5" ry="2.5" style="stroke:#181818;stroke-width:0.5;" width="173" x="510" y="231"/><rect fill="#F1F1F1" height="10" style="stroke:#181818;stroke-width:0.5;" width="15" x="663" y="236"/><rect fill="#F1F1F1" height="2" style="stroke:#181818;stroke-width:0.5;" width="4" x="661" y="238"/><rect fill="#F1F1F1" height="2" style="stroke:#181818;stroke-width:0.5;" width="4" x="661" y="242"/><text fill="#000000" font-family="sans-serif" font-size="14" lengthAdjust="spacing" textLength="133" x="525" y="264.5352">VnfpmControllerV2</text></g><!--entity plugin--><g id="elem_plugin"><rect fill="#F1F1F1" height="46.4883" rx="2.5" ry="2.5" style="stroke:#181818;stroke-width:0.5;" width="165" x="511" y="439"/><rect fill="#F1F1F1" height="10" style="stroke:#181818;stroke-width:0.5;" width="15" x="656" y="444"/><rect fill="#F1F1F1" height="2" style="stroke:#181818;stroke-width:0.5;" width="4" x="654" y="446"/><rect fill="#F1F1F1" height="2" style="stroke:#181818;stroke-width:0.5;" width="4" x="654" y="450"/><text fill="#000000" font-family="sans-serif" font-size="14" lengthAdjust="spacing" textLength="125" x="526" y="472.5352">PrometheusPlugin</text></g><!--entity lcm_ctl--><g id="elem_lcm_ctl"><rect fill="#F1F1F1" height="46.4883" rx="2.5" ry="2.5" style="stroke:#181818;stroke-width:0.5;" width="175" x="718" y="231"/><rect fill="#F1F1F1" height="10" style="stroke:#181818;stroke-width:0.5;" width="15" x="873" y="236"/><rect fill="#F1F1F1" height="2" style="stroke:#181818;stroke-width:0.5;" width="4" x="871" y="238"/><rect fill="#F1F1F1" height="2" style="stroke:#181818;stroke-width:0.5;" width="4" x="871" y="242"/><text fill="#000000" font-family="sans-serif" font-size="14" lengthAdjust="spacing" textLength="135" x="733" y="264.5352">VnflcmControllerV2</text></g><!--entity pm_driver--><g id="elem_pm_driver"><rect fill="#F1F1F1" height="62.9766" rx="2.5" ry="2.5" style="stroke:#181818;stroke-width:0.5;" width="99" x="598" y="609"/><rect fill="#F1F1F1" height="10" style="stroke:#181818;stroke-width:0.5;" width="15" x="677" y="614"/><rect fill="#F1F1F1" height="2" style="stroke:#181818;stroke-width:0.5;" width="4" x="675" y="616"/><rect fill="#F1F1F1" height="2" style="stroke:#181818;stroke-width:0.5;" width="4" x="675" y="620"/><text fill="#000000" font-family="sans-serif" font-size="14" lengthAdjust="spacing" textLength="44" x="613" y="642.5352">VnfPm</text><text fill="#000000" font-family="sans-serif" font-size="14" lengthAdjust="spacing" textLength="59" x="613" y="659.0234">DriverV2</text></g><!--entity infra--><g id="elem_infra"><rect fill="#F1F1F1" height="62.9766" rx="2.5" ry="2.5" style="stroke:#181818;stroke-width:0.5;" width="120" x="732.5" y="609"/><rect fill="#F1F1F1" height="10" style="stroke:#181818;stroke-width:0.5;" width="15" x="832.5" y="614"/><rect fill="#F1F1F1" height="2" style="stroke:#181818;stroke-width:0.5;" width="4" x="830.5" y="616"/><rect fill="#F1F1F1" height="2" style="stroke:#181818;stroke-width:0.5;" width="4" x="830.5" y="620"/><text fill="#000000" font-family="sans-serif" font-size="14" lengthAdjust="spacing" textLength="78" x="747.5" y="642.5352">Kubernetes</text><text fill="#000000" font-family="sans-serif" font-size="14" lengthAdjust="spacing" textLength="80" x="747.5" y="659.0234">infra-driver</text></g><!--entity ins1--><g id="elem_ins1"><polygon fill="#F1F1F1" points="169.5,449,179.5,439,235.5,439,235.5,475.4883,225.5,485.4883,169.5,485.4883,169.5,449" style="stroke:#181818;stroke-width:0.5;"/><line style="stroke:#181818;stroke-width:0.5;" x1="225.5" x2="235.5" y1="449" y2="439"/><line style="stroke:#181818;stroke-width:0.5;" x1="169.5" x2="225.5" y1="449" y2="449"/><line style="stroke:#181818;stroke-width:0.5;" x1="225.5" x2="225.5" y1="449" y2="485.4883"/><text fill="#000000" font-family="sans-serif" font-size="14" lengthAdjust="spacing" textLength="26" x="184.5" y="472.5352">Pod</text></g><!--entity ins2--><g id="elem_ins2"><polygon fill="#F1F1F1" points="270.5,449,280.5,439,336.5,439,336.5,475.4883,326.5,485.4883,270.5,485.4883,270.5,449" style="stroke:#181818;stroke-width:0.5;"/><line style="stroke:#181818;stroke-width:0.5;" x1="326.5" x2="336.5" y1="449" y2="439"/><line style="stroke:#181818;stroke-width:0.5;" x1="270.5" x2="326.5" y1="449" y2="449"/><line style="stroke:#181818;stroke-width:0.5;" x1="326.5" x2="326.5" y1="449" y2="485.4883"/><text fill="#000000" font-family="sans-serif" font-size="14" lengthAdjust="spacing" textLength="26" x="285.5" y="472.5352">Pod</text></g><!--entity ins3--><g id="elem_ins3"><polygon fill="#F1F1F1" points="68.5,449,78.5,439,134.5,439,134.5,475.4883,124.5,485.4883,68.5,485.4883,68.5,449" style="stroke:#181818;stroke-width:0.5;"/><line style="stroke:#181818;stroke-width:0.5;" x1="124.5" x2="134.5" y1="449" y2="439"/><line style="stroke:#181818;stroke-width:0.5;" x1="68.5" x2="124.5" y1="449" y2="449"/><line style="stroke:#181818;stroke-width:0.5;" x1="124.5" x2="124.5" y1="449" y2="485.4883"/><text fill="#000000" font-family="sans-serif" font-size="14" lengthAdjust="spacing" textLength="26" x="83.5" y="472.5352">Pod</text></g><!--entity k8s_m--><g id="elem_k8s_m"><polygon fill="#F1F1F1" points="16,785,26,775,187,775,187,827.9766,177,837.9766,16,837.9766,16,785" style="stroke:#181818;stroke-width:0.5;"/><line style="stroke:#181818;stroke-width:0.5;" x1="177" x2="187" y1="785" y2="775"/><line style="stroke:#181818;stroke-width:0.5;" x1="16" x2="177" y1="785" y2="785"/><line style="stroke:#181818;stroke-width:0.5;" x1="177" x2="177" y1="785" y2="837.9766"/><text fill="#000000" font-family="sans-serif" font-size="14" lengthAdjust="spacing" textLength="131" x="31" y="808.5352">Kubernetes Cluster</text><text fill="#000000" font-family="sans-serif" font-size="14" lengthAdjust="spacing" textLength="56" x="31" y="825.0234">(Master)</text></g><!--link nfvo to pm_ctl--><g id="link_nfvo_pm_ctl"><path d="M733.4,69.98 C676.77,76.64 576.31,92.13 554.5,120 C528.68,152.99 553.3683,197.3089 574.4083,225.7089 " fill="none" id="nfvo-to-pm_ctl" style="stroke:#181818;stroke-width:1.0;"/><polygon fill="#181818" points="577.98,230.53,575.8365,220.9172,575.0036,226.5124,569.4084,225.6795,577.98,230.53" style="stroke:#181818;stroke-width:1.0;"/><text fill="#000000" font-family="sans-serif" font-size="13" lengthAdjust="spacing" textLength="102" x="555.5" y="133.5684">1. Create PM job</text></g><!--link nfvo to pm_ctl--><g id="link_nfvo_pm_ctl"><path d="M734.87,88.41 C721.38,97.35 706.55,108.3 694.5,120 C659.11,154.37 630.1786,197.4825 612.9486,225.4325 " fill="none" id="nfvo-to-pm_ctl-1" style="stroke:#181818;stroke-width:1.0;"/><polygon fill="#181818" points="609.8,230.54,617.9278,224.9778,612.4238,226.2837,611.1178,220.7797,609.8,230.54" style="stroke:#181818;stroke-width:1.0;"/><text fill="#000000" font-family="sans-serif" font-size="13" lengthAdjust="spacing" textLength="101" x="695.5" y="133.5684">7. Get PM report</text></g><!--link pm_ctl to plugin--><g id="link_pm_ctl_plugin"><path d="M596.17,277.44 C595.6,317.06 594.4863,392.9806 593.9163,432.5906 " fill="none" id="pm_ctl-to-plugin" style="stroke:#181818;stroke-width:1.0;"/><polygon fill="#181818" points="593.83,438.59,597.9591,429.6485,593.9019,433.5905,589.9599,429.5334,593.83,438.59" style="stroke:#181818;stroke-width:1.0;"/></g><!--link plugin to prom--><g id="link_plugin_prom"><path d="M565.43,485.34 C541.15,504.64 505.08,533.25 473.5,558 C447.89,578.07 423.3858,597.0888 402.2758,613.4188 " fill="none" id="plugin-to-prom" style="stroke:#181818;stroke-width:1.0;"/><polygon fill="#181818" points="397.53,617.09,407.0961,614.7471,401.4848,614.0307,402.2012,608.4194,397.53,617.09" style="stroke:#181818;stroke-width:1.0;"/><text fill="#000000" font-family="sans-serif" font-size="13" lengthAdjust="spacing" textLength="81" x="493.5" y="554.5684">2. Set PM job</text></g><!--link prom to plugin--><g id="link_prom_plugin"><path d="M364.21,617.1 C361.38,595.37 360.81,562.61 377.5,541 C409.06,500.14 458.0858,481.8331 504.6358,472.5531 " fill="none" id="prom-to-plugin" style="stroke:#181818;stroke-width:1.0;"/><polygon fill="#181818" points="510.52,471.38,500.9116,469.2168,505.6165,472.3575,502.4757,477.0624,510.52,471.38" style="stroke:#181818;stroke-width:1.0;"/><text fill="#000000" font-family="sans-serif" font-size="13" lengthAdjust="spacing" textLength="86" x="378.5" y="554.5684">4. POST event</text></g><!--link ins1 to prom--><g id="link_ins1_prom"><path d="M201.04,485.33 C200.94,507.15 204.54,539.68 224.5,558 C243.02,575 257.53,555.77 280.5,566 C307.23,577.9 328.1012,596.0644 344.5812,613.0444 " fill="none" id="ins1-to-prom" style="stroke:#181818;stroke-width:1.0;"/><polygon fill="#181818" points="348.76,617.35,345.3622,608.1058,345.2777,613.762,339.6215,613.6775,348.76,617.35" style="stroke:#181818;stroke-width:1.0;"/><text fill="#000000" font-family="sans-serif" font-size="13" lengthAdjust="spacing" textLength="99" x="225.5" y="554.5684">3. Trigger event</text></g><!--link ins2 to prom--><g id="link_ins2_prom"><path d="M311.73,485.35 C324.2,519.21 345.6668,577.4996 358.1568,611.4196 " fill="none" id="ins2-to-prom" style="stroke:#181818;stroke-width:1.0;"/><polygon fill="#181818" points="360.23,617.05,360.8738,607.2222,358.5023,612.358,353.3665,609.9865,360.23,617.05" style="stroke:#181818;stroke-width:1.0;"/></g><!--link plugin to pm_driver--><g id="link_plugin_pm_driver"><path d="M600.34,485.35 C609.9,516.61 625.5549,567.7624 636.3349,603.0024 " fill="none" id="plugin-to-pm_driver" style="stroke:#181818;stroke-width:1.0;"/><polygon fill="#181818" points="638.09,608.74,639.2823,598.9636,636.6274,603.9587,631.6323,601.3038,638.09,608.74" style="stroke:#181818;stroke-width:1.0;"/><text fill="#000000" font-family="sans-serif" font-size="13" lengthAdjust="spacing" textLength="162" x="622.5" y="554.5684">5. Convert event to report</text></g><!--link pm_driver to nfvo--><g id="link_pm_driver_nfvo"><path d="M667.71,608.71 C679.66,593.18 696.22,575.63 715.5,566 C746.68,550.43 759.08,563.46 793.5,558 C845.59,549.74 876.37,574.03 909.5,533 C1017.83,398.83 995.5,294.47 909.5,145 C888.76,108.95 850.2555,89.8464 817.6555,78.6664 " fill="none" id="pm_driver-to-nfvo" style="stroke:#181818;stroke-width:1.0;"/><polygon fill="#181818" points="811.98,76.72,819.1957,83.4233,816.7096,78.342,821.7909,75.8559,811.98,76.72" style="stroke:#181818;stroke-width:1.0;"/><text fill="#000000" font-family="sans-serif" font-size="13" lengthAdjust="spacing" textLength="165" x="980.5" y="320.5684">6. Send report notification</text></g><!--link nfvo to lcm_ctl--><g id="link_nfvo_lcm_ctl"><path d="M789.96,88.35 C796.15,97.6 802.35,108.79 805.5,120 C816.13,157.79 813.4254,198.0916 809.8854,224.9016 " fill="none" id="nfvo-to-lcm_ctl" style="stroke:#181818;stroke-width:1.0;"/><polygon fill="#181818" points="809.1,230.85,814.2437,222.4511,809.7545,225.893,806.3126,221.4038,809.1,230.85" style="stroke:#181818;stroke-width:1.0;"/><text fill="#000000" font-family="sans-serif" font-size="13" lengthAdjust="spacing" textLength="48" x="809.5" y="133.5684">8. Scale</text></g><!--link lcm_ctl to infra--><g id="link_lcm_ctl_infra"><path d="M804.74,277.33 C802.54,342.65 796.2927,527.4134 793.7527,602.5634 " fill="none" id="lcm_ctl-to-infra" style="stroke:#181818;stroke-width:1.0;"/><polygon fill="#181818" points="793.55,608.56,797.8517,599.7003,793.7189,603.5629,789.8563,599.43,793.55,608.56" style="stroke:#181818;stroke-width:1.0;"/></g><!--link infra to k8s_m--><g id="link_infra_k8s_m"><path d="M770.32,672.11 C756.3,689.07 736.67,708.92 714.5,720 C623.79,765.35 339.596,789.891 193.386,799.881 " fill="none" id="infra-to-k8s_m" style="stroke:#181818;stroke-width:1.0;"/><polygon fill="#181818" points="187.4,800.29,196.6517,803.6672,192.3884,799.9492,196.1064,795.6858,187.4,800.29" style="stroke:#181818;stroke-width:1.0;"/><text fill="#000000" font-family="sans-serif" font-size="13" lengthAdjust="spacing" textLength="138" x="689.5" y="741.5684">9. Call Kubernetes API</text></g><!--link k8s_m to ins3--><g id="link_k8s_m_ins3"><path d="M97.02,774.71 C94.88,758.47 92.56,738.2 91.5,720 C87.52,651.67 88.19,634.36 91.5,566 C92.85,538.19 95.5263,512.2486 97.9863,491.4186 " fill="none" id="k8s_m-to-ins3" style="stroke:#181818;stroke-width:1.0;"/><polygon fill="#181818" points="98.69,485.46,93.6621,493.9288,98.1036,490.4255,101.6068,494.867,98.69,485.46" style="stroke:#181818;stroke-width:1.0;"/><text fill="#000000" font-family="sans-serif" font-size="13" lengthAdjust="spacing" textLength="198" x="92.5" y="645.5684">10. Change the number of Pods</text></g><!--SRC=[VLDDRzim3BthLn3fOTiXHflie_EXG95X7nYw6ckHNG8KgamdNcJHaEJaCFI_ZvRKn6sJ-Y1BVE_HJoHTMTaWZ0fB3VeLTcu4_mJmewXfoQ3nJq7feEMZU12YYj9VN-VN1qGnp7HJRMX0zrAjqHuGH63iq6xs-3FEt5HjCoFZBMcDTZw9XfexvVKX_jvveRjbRI8zR8-ar-fbVexjFl1mnBOYKtRAqolEYsPXljXwC_HTXlCXmS_k7gr1ZsvXQiF56qTkK8P0yiEbDLJYK04ptJcFTc7UNib-yowerkVkhX5AKrV2wBkqvLPQXD_egBCAOtDNs-J_bPn_oAw7ERU3AqTPGMNowSwEGvFZq7H_kJSdR55BNvDngxfreXye68ylKjzpECjWPb5wXE8A_jAzY43an6R7LupmJEGmoU06_QEWzpa0fndSsdgvH0kuuMxq-6I7YtuP9C_XVGR5zSrj8W-_zTZX73wmIJAyzP46di1YIzQB7Ije-klbyB7tPyf4uGBvkgfLgCBB0dpAu5kyJCguOwJHpU6SyocfKQH8GECOXJMSmu3ay9cjIgrXqFpBueS8QDAvAPVzb7ahQPO8_8k1wHgc0rN0VNJYFm00]--></g></svg>