<?xml version="1.0" encoding="us-ascii" standalone="no"?><svg xmlns="http://www.w3.org/2000/svg" xmlns:xlink="http://www.w3.org/1999/xlink" contentStyleType="text/css" height="884px" preserveAspectRatio="none" style="width:453px;height:884px;background:#FFFFFF;" version="1.1" viewBox="0 0 453 884" width="453px" zoomAndPan="magnify"><defs/><g><!--cluster python-tackerclient--><g id="cluster_python-tackerclient"><rect fill="none" height="97" rx="2.5" ry="2.5" style="stroke:#181818;stroke-width:1.0;" width="160" x="27" y="7"/><path d="M180,7 L180,16.4883 L170,26.4883 L27,26.4883 " fill="none" style="stroke:#181818;stroke-width:1.0;"/><text fill="#000000" font-family="sans-serif" font-size="14" font-weight="bold" lengthAdjust="spacing" textLength="143" x="30" y="21.5352">python-tackerclient</text></g><!--cluster tacker--><g id="cluster_tacker"><rect fill="none" height="426" rx="2.5" ry="2.5" style="stroke:#181818;stroke-width:1.0;" width="200" x="7" y="168"/><path d="M61,168 L61,177.4883 L51,187.4883 L7,187.4883 " fill="none" style="stroke:#181818;stroke-width:1.0;"/><text fill="#000000" font-family="sans-serif" font-size="14" font-weight="bold" lengthAdjust="spacing" textLength="44" x="10" y="182.5352">tacker</text></g><!--cluster tacker-server--><g id="cluster_tacker-server"><rect fill="none" height="97" rx="2.5" ry="2.5" style="stroke:#181818;stroke-width:1.0;" width="114" x="50" y="211"/><rect fill="none" height="10" style="stroke:#181818;stroke-width:1.0;" width="15" x="144" y="216"/><rect fill="none" height="2" style="stroke:#181818;stroke-width:1.0;" width="4" x="142" y="218"/><rect fill="none" height="2" style="stroke:#181818;stroke-width:1.0;" width="4" x="142" y="222"/><text fill="#000000" font-family="sans-serif" font-size="14" font-weight="bold" lengthAdjust="spacing" textLength="97" x="58.5" y="237.5352">tacker-server</text></g><!--cluster tacker-conductor--><g id="cluster_tacker-conductor"><rect fill="none" height="229" rx="2.5" ry="2.5" style="stroke:#181818;stroke-width:1.0;" width="152" x="31" y="341"/><rect fill="none" height="10" style="stroke:#181818;stroke-width:1.0;" width="15" x="163" y="346"/><rect fill="none" height="2" style="stroke:#181818;stroke-width:1.0;" width="4" x="161" y="348"/><rect fill="none" height="2" style="stroke:#181818;stroke-width:1.0;" width="4" x="161" y="352"/><text fill="#000000" font-family="sans-serif" font-size="14" font-weight="bold" lengthAdjust="spacing" textLength="124" x="45" y="367.5352">tacker-conductor</text></g><!--cluster hw--><g id="cluster_hw"><path d="M77.3769,667.1069 C84.6483,657.1608 94.3089,658.9831 99.8357,669.0633 C104.5205,652.8482 116.4217,652.8349 126.7014,663.4638 C131.8501,652.9818 142.1061,654.4024 147.8589,662.7863 C154.9394,652.4634 162.6363,650.728 170.0294,662.4723 C175.0561,649.0194 186.5902,647.4408 194.8123,659.3499 C200.7487,647.2593 212.0004,648.8083 217.629,659.6561 C226.0156,649.7396 234.2062,650.875 241.5946,660.8583 C248.8364,650.9685 255.7659,649.6036 264.2503,659.4305 C272.5354,648.0892 279.7684,647.563 288.1319,659.3496 C298.157,645.4853 306.3246,647.6123 314.6453,661.0073 C323.6442,649.0698 332.8356,651.4371 338.6587,664.1066 C346.809,654.7085 354.643,652.0329 362.1995,664.7388 C368.7778,652.8749 377.7739,655.3484 384.4244,664.663 C395.9155,652.6548 408.4177,658.8492 412,673 C414.0541,672.128 415.425,672.4585 415.4835,675.0229 C428.952,681.7982 431.1092,693.4103 417.5224,702.2143 C432.298,710.5923 431.7801,721.342 418.6797,730.8468 C433.158,736.8928 434.9,751.4492 422.4569,760.8809 C433.8687,771.5031 434.4172,781.6887 419.0361,789.0581 C431.6183,799.5239 430.5013,808.8104 417.5045,817.9188 C429.5903,832.6432 423.2163,848.3936 405,852 C405.4458,851.6769 405.8305,851.6679 406.0066,852.2879 C400.0898,864.7657 392.1672,865.2203 383.4087,855.1338 C378.2827,867.0424 369.9884,869.7536 360.2792,860.0356 C354.4316,872.8552 343.8374,871.6343 336.1763,861.9806 C328.702,872.069 320.3755,871.5561 315.1584,859.8081 C310.4146,875.3012 298.1841,876.153 288.0842,865.3154 C280.8566,876.4892 272.6033,877.1181 264.2198,866.5863 C256.6765,876.8119 247.2093,877.405 240.5375,865.6475 C233.8476,875.9848 224.3576,874.1431 219.8361,863.5071 C213.693,874.6016 201.8104,875.6496 195.3549,863.8411 C185.1372,874.7731 177.0724,873.1979 170.4913,860.0813 C164.2653,871.0058 155.8656,869.3859 149.5983,860.1239 C140.435,869.4061 133.0591,870.6457 126.27,857.639 C118.1095,867.2583 111.0067,868.5464 103.7386,856.7021 C88.8319,868.1998 73.4306,864.6016 69,845 C71.1765,845.4974 71.5764,846.9502 70.1041,848.5746 C55.9787,840.6576 55.8932,826.0686 70.8522,818.8845 C55.4688,810.7666 55.4638,798.659 68.0706,788.0187 C56.4073,781.6648 51.6333,772.7246 63.9121,762.4732 C50.4503,750.9025 51.4141,741.5657 66.2445,732.1729 C52.478,723.1962 55.3568,708.9267 69.6385,703.2404 C54.074,687.8659 58.0056,675.6418 76,666 C76.9081,665.6035 77.4746,666.2522 77.3769,667.1069 " fill="none" style="stroke:#181818;stroke-width:1.0;"/><text fill="#000000" font-family="sans-serif" font-size="14" font-weight="bold" lengthAdjust="spacing" textLength="146" x="167.5" y="684.5352">Hardware Resources</text></g><!--cluster k8s_w--><g id="cluster_k8s_w"><polygon fill="none" points="85,711,95,701,396,701,396,826,386,836,85,836,85,711" style="stroke:#181818;stroke-width:1.0;"/><line style="stroke:#181818;stroke-width:1.0;" x1="386" x2="396" y1="711" y2="701"/><line style="stroke:#181818;stroke-width:1.0;" x1="85" x2="386" y1="711" y2="711"/><line style="stroke:#181818;stroke-width:1.0;" x1="386" x2="386" y1="711" y2="836"/><text fill="#000000" font-family="sans-serif" font-size="14" font-weight="bold" lengthAdjust="spacing" textLength="81" x="196" y="727.5352">Kubernetes</text><text fill="#000000" font-family="sans-serif" font-size="14" font-weight="bold" lengthAdjust="spacing" textLength="52" x="210.5" y="744.0234">Cluster</text><text fill="#000000" font-family="sans-serif" font-size="14" font-weight="bold" lengthAdjust="spacing" textLength="61" x="206" y="760.5117">(Worker)</text></g><!--entity client--><g id="elem_client"><rect fill="#F1F1F1" height="46.4883" rx="2.5" ry="2.5" style="stroke:#181818;stroke-width:0.5;" width="127" x="43.5" y="42"/><rect fill="#F1F1F1" height="10" style="stroke:#181818;stroke-width:0.5;" width="15" x="150.5" y="47"/><rect fill="#F1F1F1" height="2" style="stroke:#181818;stroke-width:0.5;" width="4" x="148.5" y="49"/><rect fill="#F1F1F1" height="2" style="stroke:#181818;stroke-width:0.5;" width="4" x="148.5" y="53"/><text fill="#000000" font-family="sans-serif" font-size="14" lengthAdjust="spacing" textLength="87" x="58.5" y="75.5352">tacker-client</text></g><!--entity serv--><g id="elem_serv"><rect fill="#F1F1F1" height="46.4883" rx="2.5" ry="2.5" style="stroke:#181818;stroke-width:0.5;" width="82" x="66" y="246"/><rect fill="#F1F1F1" height="10" style="stroke:#181818;stroke-width:0.5;" width="15" x="128" y="251"/><rect fill="#F1F1F1" height="2" style="stroke:#181818;stroke-width:0.5;" width="4" x="126" y="253"/><rect fill="#F1F1F1" height="2" style="stroke:#181818;stroke-width:0.5;" width="4" x="126" y="257"/><text fill="#000000" font-family="sans-serif" font-size="14" lengthAdjust="spacing" textLength="42" x="81" y="279.5352">server</text></g><!--entity cond--><g id="elem_cond"><rect fill="#F1F1F1" height="46.4883" rx="2.5" ry="2.5" style="stroke:#181818;stroke-width:0.5;" width="110" x="52" y="376"/><rect fill="#F1F1F1" height="10" style="stroke:#181818;stroke-width:0.5;" width="15" x="142" y="381"/><rect fill="#F1F1F1" height="2" style="stroke:#181818;stroke-width:0.5;" width="4" x="140" y="383"/><rect fill="#F1F1F1" height="2" style="stroke:#181818;stroke-width:0.5;" width="4" x="140" y="387"/><text fill="#000000" font-family="sans-serif" font-size="14" lengthAdjust="spacing" textLength="70" x="67" y="409.5352">conductor</text></g><!--entity infra--><g id="elem_infra"><rect fill="#F1F1F1" height="62.9766" rx="2.5" ry="2.5" style="stroke:#181818;stroke-width:0.5;" width="120" x="47" y="491"/><rect fill="#F1F1F1" height="10" style="stroke:#181818;stroke-width:0.5;" width="15" x="147" y="496"/><rect fill="#F1F1F1" height="2" style="stroke:#181818;stroke-width:0.5;" width="4" x="145" y="498"/><rect fill="#F1F1F1" height="2" style="stroke:#181818;stroke-width:0.5;" width="4" x="145" y="502"/><text fill="#000000" font-family="sans-serif" font-size="14" lengthAdjust="spacing" textLength="78" x="62" y="524.5352">Kubernetes</text><text fill="#000000" font-family="sans-serif" font-size="14" lengthAdjust="spacing" textLength="80" x="62" y="541.0234">infra-driver</text></g><!--entity ins1--><g id="elem_ins1"><polygon fill="#F1F1F1" points="101,784,111,774,223,774,223,810.4883,213,820.4883,101,820.4883,101,784" style="stroke:#181818;stroke-width:0.5;"/><line style="stroke:#181818;stroke-width:0.5;" x1="213" x2="223" y1="784" y2="774"/><line style="stroke:#181818;stroke-width:0.5;" x1="101" x2="213" y1="784" y2="784"/><line style="stroke:#181818;stroke-width:0.5;" x1="213" x2="213" y1="784" y2="820.4883"/><text fill="#000000" font-family="sans-serif" font-size="14" lengthAdjust="spacing" textLength="82" x="116" y="807.5352">Deployment</text></g><!--entity ins2--><g id="elem_ins2"><polygon fill="#F1F1F1" points="258,784,268,774,380,774,380,810.4883,370,820.4883,258,820.4883,258,784" style="stroke:#181818;stroke-width:0.5;"/><line style="stroke:#181818;stroke-width:0.5;" x1="370" x2="380" y1="784" y2="774"/><line style="stroke:#181818;stroke-width:0.5;" x1="258" x2="370" y1="784" y2="784"/><line style="stroke:#181818;stroke-width:0.5;" x1="370" x2="370" y1="784" y2="820.4883"/><text fill="#000000" font-family="sans-serif" font-size="14" lengthAdjust="spacing" textLength="82" x="273" y="807.5352">Deployment</text></g><!--entity k8s_m--><g id="elem_k8s_m"><polygon fill="#F1F1F1" points="318,493,328,483,436,483,436,552.4648,426,562.4648,318,562.4648,318,493" style="stroke:#181818;stroke-width:0.5;"/><line style="stroke:#181818;stroke-width:0.5;" x1="426" x2="436" y1="493" y2="483"/><line style="stroke:#181818;stroke-width:0.5;" x1="318" x2="426" y1="493" y2="493"/><line style="stroke:#181818;stroke-width:0.5;" x1="426" x2="426" y1="493" y2="562.4648"/><text fill="#000000" font-family="sans-serif" font-size="14" lengthAdjust="spacing" textLength="78" x="333" y="516.5352">Kubernetes</text><text fill="#000000" font-family="sans-serif" font-size="14" lengthAdjust="spacing" textLength="49" x="333" y="533.0234">Cluster</text><text fill="#000000" font-family="sans-serif" font-size="14" lengthAdjust="spacing" textLength="56" x="333" y="549.5117">(Master)</text></g><!--link client to serv--><g id="link_client_serv"><path d="M107,88.39 C107,127.22 107,200.61 107,239.51 " fill="none" id="client-to-serv" style="stroke:#181818;stroke-width:1.0;"/><polygon fill="#181818" points="107,245.51,111,236.51,107,240.51,103,236.51,107,245.51" style="stroke:#181818;stroke-width:1.0;"/><text fill="#000000" font-family="sans-serif" font-size="13" lengthAdjust="spacing" textLength="66" x="166" y="133.5684">1. Request</text><text fill="#000000" font-family="sans-serif" font-size="13" lengthAdjust="spacing" textLength="182" x="112" y="148.8789">Change Current VNF Package</text></g><!--link serv to cond--><g id="link_serv_cond"><path d="M107,292.3 C107,315.65 107,346.11 107,369.53 " fill="none" id="serv-to-cond" style="stroke:#181818;stroke-width:1.0;"/><polygon fill="#181818" points="107,375.53,111,366.53,107,370.53,103,366.53,107,375.53" style="stroke:#181818;stroke-width:1.0;"/></g><!--link cond to infra--><g id="link_cond_infra"><path d="M107,422.28 C107,441.47 107,463.34 107,484.66 " fill="none" id="cond-to-infra" style="stroke:#181818;stroke-width:1.0;"/><polygon fill="#181818" points="107,490.66,111,481.66,107,485.66,103,481.66,107,490.66" style="stroke:#181818;stroke-width:1.0;"/></g><!--link infra to k8s_m--><g id="link_infra_k8s_m"><path d="M167.26,522.5 C212.17,522.5 267.21,522.5 311.86,522.5 " fill="none" id="infra-to-k8s_m" style="stroke:#181818;stroke-width:1.0;"/><polygon fill="#181818" points="317.86,522.5,308.86,518.5,312.86,522.5,308.86,526.5,317.86,522.5" style="stroke:#181818;stroke-width:1.0;"/><text fill="#000000" font-family="sans-serif" font-size="13" lengthAdjust="spacing" textLength="114" x="185.5" y="501.0684">2. Call Kubernetes</text><text fill="#000000" font-family="sans-serif" font-size="13" lengthAdjust="spacing" textLength="20" x="234.5" y="516.3789">API</text></g><!--link k8s_m to ins1--><g id="link_k8s_m_ins1"><path d="M317.67,552.34 C279.97,569.44 229.64,590.05 183,602 C168.26,605.78 125.11,598.63 115,610 C73.39,656.79 114.8051,730.2505 141.5751,768.5905 " fill="none" id="k8s_m-to-ins1" style="stroke:#181818;stroke-width:1.0;"/><polygon fill="#181818" points="145.01,773.51,143.1373,763.8408,142.1476,769.4104,136.578,768.4207,145.01,773.51" style="stroke:#181818;stroke-width:1.0;"/><text fill="#000000" font-family="sans-serif" font-size="13" lengthAdjust="spacing" textLength="211" x="144" y="623.5684">3. Change the image of Container</text><text fill="#000000" font-family="sans-serif" font-size="13" lengthAdjust="spacing" textLength="267" x="120" y="638.8789">defined in the manifest file of Deployment</text></g><!--link k8s_m to ins2--><g id="link_k8s_m_ins2"><path d="M390.87,562.47 C397.26,585.72 402.2,615.74 396,642 C384.12,692.33 356.4114,739.9368 337.5714,768.7768 " fill="none" id="k8s_m-to-ins2" style="stroke:#181818;stroke-width:1.0;"/><polygon fill="#181818" points="334.29,773.8,342.5609,768.4529,337.0245,769.614,335.8634,764.0776,334.29,773.8" style="stroke:#181818;stroke-width:1.0;"/></g><!--link ins1 to ins2--><!--SRC=[XL5DImCn4BtdLmphGJrieVKYFGYo8eeenOCUh4ZSp7P3ivCroLgAzB-RZoxTYjKSmYJllPatCvNX3KBMhbsjANUyNA8fbKHo6NmnyAVKJQl9Vq2MuBp7kOKKiWrZLKgKA8Ur5itd3l_1wK6VE8IHiZbaGfFeIgSFvHhWmQT__SQwwzxH43gqSvBaUyY5aRs7-B4ruJiaBN1VKQZEEZHpEhdd8JYDikMvVMjOgNGd8BlXHgouGNX4gpjJeesSUhLr_LVIPssMmwIhGQT9TuMjqkkctuOaE_wNCTbrn8wFl2_5dTHaQzbQblO9UNuHDp25ySWpFZgq3kO4HSrfWL1qnWJQqyCrpFmw-09Pe4TT77MuuYlDCDwG6xcedV-C4vh2P0G5Lmg6tSFbx9P5V2ktuocSZVhAhaQGZQy7ke92a-EIq0Hh0YiV2g-8f8QJh8BhIgf8tWrYF_s4XHgGlzHI2AJNtcE4lW40]--></g></svg>