<?xml version="1.0" encoding="us-ascii" standalone="no"?><svg xmlns="http://www.w3.org/2000/svg" xmlns:xlink="http://www.w3.org/1999/xlink" contentStyleType="text/css" height="838px" preserveAspectRatio="none" style="width:1299px;height:838px;background:#FFFFFF;" version="1.1" viewBox="0 0 1299 838" width="1299px" zoomAndPan="magnify"><defs/><g><!--cluster Prometheus--><g id="cluster_Prometheus"><rect fill="none" height="97" rx="2.5" ry="2.5" style="stroke:#181818;stroke-width:1.0;" width="154" x="308.5891" y="566.5"/><path d="M404.5891,566.5 L404.5891,575.9883 L394.5891,585.9883 L308.5891,585.9883 " fill="none" style="stroke:#181818;stroke-width:1.0;"/><text fill="#000000" font-family="sans-serif" font-size="14" font-weight="bold" lengthAdjust="spacing" textLength="86" x="311.5891" y="581.0352">Prometheus</text></g><!--cluster NFVO--><g id="cluster_NFVO"><rect fill="none" height="97" rx="2.5" ry="2.5" style="stroke:#181818;stroke-width:1.0;" width="110" x="887.5891" y="7"/><path d="M938.5891,7 L938.5891,16.4883 L928.5891,26.4883 L887.5891,26.4883 " fill="none" style="stroke:#181818;stroke-width:1.0;"/><text fill="#000000" font-family="sans-serif" font-size="14" font-weight="bold" lengthAdjust="spacing" textLength="41" x="890.5891" y="21.5352">NFVO</text></g><!--cluster tacker--><g id="cluster_tacker"><rect fill="none" height="543" rx="2.5" ry="2.5" style="stroke:#181818;stroke-width:1.0;" width="464" x="606.5891" y="153"/><path d="M660.5891,153 L660.5891,162.4883 L650.5891,172.4883 L606.5891,172.4883 " fill="none" style="stroke:#181818;stroke-width:1.0;"/><text fill="#000000" font-family="sans-serif" font-size="14" font-weight="bold" lengthAdjust="spacing" textLength="44" x="609.5891" y="167.5352">tacker</text></g><!--cluster tacker-server--><g id="cluster_tacker-server"><rect fill="none" height="289" rx="2.5" ry="2.5" style="stroke:#181818;stroke-width:1.0;" width="416" x="630.5891" y="196"/><rect fill="none" height="10" style="stroke:#181818;stroke-width:1.0;" width="15" x="1026.5891" y="201"/><rect fill="none" height="2" style="stroke:#181818;stroke-width:1.0;" width="4" x="1024.5891" y="203"/><rect fill="none" height="2" style="stroke:#181818;stroke-width:1.0;" width="4" x="1024.5891" y="207"/><text fill="#000000" font-family="sans-serif" font-size="14" font-weight="bold" lengthAdjust="spacing" textLength="97" x="790.0891" y="222.5352">tacker-server</text></g><!--cluster tacker-conductor--><g id="cluster_tacker-conductor"><rect fill="none" height="114" rx="2.5" ry="2.5" style="stroke:#181818;stroke-width:1.0;" width="273" x="689.5891" y="558"/><rect fill="none" height="10" style="stroke:#181818;stroke-width:1.0;" width="15" x="942.5891" y="563"/><rect fill="none" height="2" style="stroke:#181818;stroke-width:1.0;" width="4" x="940.5891" y="565"/><rect fill="none" height="2" style="stroke:#181818;stroke-width:1.0;" width="4" x="940.5891" y="569"/><text fill="#000000" font-family="sans-serif" font-size="14" font-weight="bold" lengthAdjust="spacing" textLength="124" x="764.0891" y="584.5352">tacker-conductor</text></g><!--cluster hw--><g id="cluster_hw"><path d="M33.5231,334.641 C39.6095,323.6015 50.2791,323.5096 57.738,333.0241 C63.7469,323.9017 69.6932,323.3417 77.4446,330.9747 C83.0037,316.018 94.7675,315.6063 103.7774,327.6034 C109.9419,318.5143 116.5017,317.9182 123.9603,326.0902 C130.8433,315.0559 140.3477,316.9877 146.9742,326.3792 C153.4124,315.706 160.0261,312.174 169.6686,322.9962 C175.672,309.8834 183.8553,310.7631 192.2877,320.6025 C199.9002,309.9358 211.2253,309.6459 217.3865,322.173 C225.8369,313.0979 234.6,316.1169 237.3637,327.6782 C242.6524,315.8492 253.0739,314.9674 260.2622,325.7548 C269.3542,316.7836 277.555,317.4905 281.52,330.6743 C288.743,320.2326 298.9689,319.6 304.2399,332.5687 C312.6004,322.3063 323.9445,322.4989 330.9452,334.2205 C340.4902,321.6668 351.8219,325.9192 356.5891,339 C358.1489,339.9852 358.1689,341.5511 356.591,342.5381 C371.9968,348.418 371.3903,357.7119 362.6882,369.1212 C374.4602,375.2714 377.5449,383.6597 365.6384,392.7645 C378.6071,399.3898 377.4364,410.6906 365.1717,416.8265 C376.7282,425.3529 378.5413,436.37 363.8812,443.6343 C374.4435,450.0927 375.6545,462.1751 363.6714,468.4428 C377.2033,485.1189 367.5396,497.9413 349.5891,501 C350.1976,500.4467 350.5665,500.6966 350.8264,501.3558 C345.7449,514.3277 336.3766,515.2586 327.5759,505.0933 C320.1375,515.2148 312.299,512.6183 306.3231,503.4795 C299.6743,514.4193 290.2859,516.2957 283.0337,504.0865 C277.3976,515.4637 269.961,516.5678 262.4098,505.8761 C256.0941,517.8313 247.0728,519.3832 237.8161,509.1335 C229.871,518.6478 222.5294,520.0962 214.8851,508.802 C207.2548,520.8303 197.7583,520.1829 190.6307,508.2923 C187.04,519.2398 178.7917,519.9657 172.0618,511.2579 C164.1709,520.1616 152.1873,520.5621 148.6677,506.7551 C141.203,515.7947 132.9608,515.7913 125.938,506.2156 C118.7912,519.0213 110.7252,516.8863 102.9618,506.8354 C95.6883,515.1494 84.4489,513.9423 80.1906,503.2272 C72.9468,515.8179 62.9181,515.1428 54.5821,504.4273 C41.8683,516.6369 27.2518,510.7015 24.5891,494 C26.2232,494.9494 26.3627,496.2931 24.6795,497.3325 C11.2461,487.5495 12.7588,479.1543 25.4026,470.0629 C9.6004,464.4074 8.3278,454.5738 20.1176,443.4408 C6,436.5739 8.0373,426.5025 18.4657,418.0393 C6.7573,407.8539 9.1636,399.8708 22.5144,393.8861 C12.2759,386.3983 11.5829,373.7945 23.9987,367.5854 C7.8278,351.4796 10.3117,340.1181 31.5891,332 C33.4843,331.8342 34.2177,332.9102 33.5231,334.641 " fill="none" style="stroke:#181818;stroke-width:1.0;"/><text fill="#000000" font-family="sans-serif" font-size="14" font-weight="bold" lengthAdjust="spacing" textLength="146" x="117.5891" y="350.5352">Hardware Resources</text></g><!--cluster k8s_w--><g id="cluster_k8s_w"><polygon fill="none" points="40.5891,377,50.5891,367,340.5891,367,340.5891,475,330.5891,485,40.5891,485,40.5891,377" style="stroke:#181818;stroke-width:1.0;"/><line style="stroke:#181818;stroke-width:1.0;" x1="330.5891" x2="340.5891" y1="377" y2="367"/><line style="stroke:#181818;stroke-width:1.0;" x1="40.5891" x2="330.5891" y1="377" y2="377"/><line style="stroke:#181818;stroke-width:1.0;" x1="330.5891" x2="330.5891" y1="377" y2="485"/><text fill="#000000" font-family="sans-serif" font-size="14" font-weight="bold" lengthAdjust="spacing" textLength="138" x="117.5891" y="393.5352">Kubernetes Cluster</text><text fill="#000000" font-family="sans-serif" font-size="14" font-weight="bold" lengthAdjust="spacing" textLength="61" x="156.0891" y="410.0234">(Worker)</text></g><!--entity prom--><g id="elem_prom"><rect fill="#F1F1F1" height="46.4883" rx="2.5" ry="2.5" style="stroke:#181818;stroke-width:0.5;" width="122" x="324.5891" y="601.5"/><rect fill="#F1F1F1" height="10" style="stroke:#181818;stroke-width:0.5;" width="15" x="426.5891" y="606.5"/><rect fill="#F1F1F1" height="2" style="stroke:#181818;stroke-width:0.5;" width="4" x="424.5891" y="608.5"/><rect fill="#F1F1F1" height="2" style="stroke:#181818;stroke-width:0.5;" width="4" x="424.5891" y="612.5"/><text fill="#000000" font-family="sans-serif" font-size="14" lengthAdjust="spacing" textLength="82" x="339.5891" y="635.0352">Prometheus</text></g><!--entity nfvo--><g id="elem_nfvo"><rect fill="#F1F1F1" height="46.4883" rx="2.5" ry="2.5" style="stroke:#181818;stroke-width:0.5;" width="78" x="903.5891" y="42"/><rect fill="#F1F1F1" height="10" style="stroke:#181818;stroke-width:0.5;" width="15" x="961.5891" y="47"/><rect fill="#F1F1F1" height="2" style="stroke:#181818;stroke-width:0.5;" width="4" x="959.5891" y="49"/><rect fill="#F1F1F1" height="2" style="stroke:#181818;stroke-width:0.5;" width="4" x="959.5891" y="53"/><text fill="#000000" font-family="sans-serif" font-size="14" lengthAdjust="spacing" textLength="38" x="918.5891" y="75.5352">NFVO</text></g><!--entity pm_ctl--><g id="elem_pm_ctl"><rect fill="#F1F1F1" height="46.4883" rx="2.5" ry="2.5" style="stroke:#181818;stroke-width:0.5;" width="173" x="647.0891" y="231"/><rect fill="#F1F1F1" height="10" style="stroke:#181818;stroke-width:0.5;" width="15" x="800.0891" y="236"/><rect fill="#F1F1F1" height="2" style="stroke:#181818;stroke-width:0.5;" width="4" x="798.0891" y="238"/><rect fill="#F1F1F1" height="2" style="stroke:#181818;stroke-width:0.5;" width="4" x="798.0891" y="242"/><text fill="#000000" font-family="sans-serif" font-size="14" lengthAdjust="spacing" textLength="133" x="662.0891" y="264.5352">VnfpmControllerV2</text></g><!--entity plugin--><g id="elem_plugin"><rect fill="#F1F1F1" height="46.4883" rx="2.5" ry="2.5" style="stroke:#181818;stroke-width:0.5;" width="165" x="651.0891" y="423"/><rect fill="#F1F1F1" height="10" style="stroke:#181818;stroke-width:0.5;" width="15" x="796.0891" y="428"/><rect fill="#F1F1F1" height="2" style="stroke:#181818;stroke-width:0.5;" width="4" x="794.0891" y="430"/><rect fill="#F1F1F1" height="2" style="stroke:#181818;stroke-width:0.5;" width="4" x="794.0891" y="434"/><text fill="#000000" font-family="sans-serif" font-size="14" lengthAdjust="spacing" textLength="125" x="666.0891" y="456.5352">PrometheusPlugin</text></g><!--entity lcm_ctl--><g id="elem_lcm_ctl"><rect fill="#F1F1F1" height="46.4883" rx="2.5" ry="2.5" style="stroke:#181818;stroke-width:0.5;" width="175" x="855.0891" y="231"/><rect fill="#F1F1F1" height="10" style="stroke:#181818;stroke-width:0.5;" width="15" x="1010.0891" y="236"/><rect fill="#F1F1F1" height="2" style="stroke:#181818;stroke-width:0.5;" width="4" x="1008.0891" y="238"/><rect fill="#F1F1F1" height="2" style="stroke:#181818;stroke-width:0.5;" width="4" x="1008.0891" y="242"/><text fill="#000000" font-family="sans-serif" font-size="14" lengthAdjust="spacing" textLength="135" x="870.0891" y="264.5352">VnflcmControllerV2</text></g><!--entity pm_driver--><g id="elem_pm_driver"><rect fill="#F1F1F1" height="62.9766" rx="2.5" ry="2.5" style="stroke:#181818;stroke-width:0.5;" width="85" x="706.0891" y="593"/><rect fill="#F1F1F1" height="10" style="stroke:#181818;stroke-width:0.5;" width="15" x="771.0891" y="598"/><rect fill="#F1F1F1" height="2" style="stroke:#181818;stroke-width:0.5;" width="4" x="769.0891" y="600"/><rect fill="#F1F1F1" height="2" style="stroke:#181818;stroke-width:0.5;" width="4" x="769.0891" y="604"/><text fill="#000000" font-family="sans-serif" font-size="14" lengthAdjust="spacing" textLength="45" x="721.0891" y="626.5352">Vnfpm</text><text fill="#000000" font-family="sans-serif" font-size="14" lengthAdjust="spacing" textLength="40" x="721.0891" y="643.0234">driver</text></g><!--entity infra--><g id="elem_infra"><rect fill="#F1F1F1" height="62.9766" rx="2.5" ry="2.5" style="stroke:#181818;stroke-width:0.5;" width="120" x="826.5891" y="593"/><rect fill="#F1F1F1" height="10" style="stroke:#181818;stroke-width:0.5;" width="15" x="926.5891" y="598"/><rect fill="#F1F1F1" height="2" style="stroke:#181818;stroke-width:0.5;" width="4" x="924.5891" y="600"/><rect fill="#F1F1F1" height="2" style="stroke:#181818;stroke-width:0.5;" width="4" x="924.5891" y="604"/><text fill="#000000" font-family="sans-serif" font-size="14" lengthAdjust="spacing" textLength="78" x="841.5891" y="626.5352">Kubernetes</text><text fill="#000000" font-family="sans-serif" font-size="14" lengthAdjust="spacing" textLength="80" x="841.5891" y="643.0234">infra-driver</text></g><!--entity ins1--><g id="elem_ins1"><polygon fill="#F1F1F1" points="157.5891,433,167.5891,423,223.5891,423,223.5891,459.4883,213.5891,469.4883,157.5891,469.4883,157.5891,433" style="stroke:#181818;stroke-width:0.5;"/><line style="stroke:#181818;stroke-width:0.5;" x1="213.5891" x2="223.5891" y1="433" y2="423"/><line style="stroke:#181818;stroke-width:0.5;" x1="157.5891" x2="213.5891" y1="433" y2="433"/><line style="stroke:#181818;stroke-width:0.5;" x1="213.5891" x2="213.5891" y1="433" y2="469.4883"/><text fill="#000000" font-family="sans-serif" font-size="14" lengthAdjust="spacing" textLength="26" x="172.5891" y="456.5352">Pod</text></g><!--entity ins2--><g id="elem_ins2"><polygon fill="#F1F1F1" points="258.5891,433,268.5891,423,324.5891,423,324.5891,459.4883,314.5891,469.4883,258.5891,469.4883,258.5891,433" style="stroke:#181818;stroke-width:0.5;"/><line style="stroke:#181818;stroke-width:0.5;" x1="314.5891" x2="324.5891" y1="433" y2="423"/><line style="stroke:#181818;stroke-width:0.5;" x1="258.5891" x2="314.5891" y1="433" y2="433"/><line style="stroke:#181818;stroke-width:0.5;" x1="314.5891" x2="314.5891" y1="433" y2="469.4883"/><text fill="#000000" font-family="sans-serif" font-size="14" lengthAdjust="spacing" textLength="26" x="273.5891" y="456.5352">Pod</text></g><!--entity ins3--><g id="elem_ins3"><polygon fill="#F1F1F1" points="56.5891,433,66.5891,423,122.5891,423,122.5891,459.4883,112.5891,469.4883,56.5891,469.4883,56.5891,433" style="stroke:#181818;stroke-width:0.5;"/><line style="stroke:#181818;stroke-width:0.5;" x1="112.5891" x2="122.5891" y1="433" y2="423"/><line style="stroke:#181818;stroke-width:0.5;" x1="56.5891" x2="112.5891" y1="433" y2="433"/><line style="stroke:#181818;stroke-width:0.5;" x1="112.5891" x2="112.5891" y1="433" y2="469.4883"/><text fill="#000000" font-family="sans-serif" font-size="14" lengthAdjust="spacing" textLength="26" x="71.5891" y="456.5352">Pod</text></g><!--entity k8s_m--><g id="elem_k8s_m"><polygon fill="#F1F1F1" points="33.0891,769,43.0891,759,204.0891,759,204.0891,811.9766,194.0891,821.9766,33.0891,821.9766,33.0891,769" style="stroke:#181818;stroke-width:0.5;"/><line style="stroke:#181818;stroke-width:0.5;" x1="194.0891" x2="204.0891" y1="769" y2="759"/><line style="stroke:#181818;stroke-width:0.5;" x1="33.0891" x2="194.0891" y1="769" y2="769"/><line style="stroke:#181818;stroke-width:0.5;" x1="194.0891" x2="194.0891" y1="769" y2="821.9766"/><text fill="#000000" font-family="sans-serif" font-size="14" lengthAdjust="spacing" textLength="131" x="48.0891" y="792.5352">Kubernetes Cluster</text><text fill="#000000" font-family="sans-serif" font-size="14" lengthAdjust="spacing" textLength="56" x="48.0891" y="809.0234">(Master)</text></g><!--link nfvo to pm_ctl--><g id="link_nfvo_pm_ctl"><path d="M903.4191,71.01 C869.7091,77.21 821.7291,90.78 790.5891,120 C758.5291,150.08 744.91,195.3197 738.71,224.6497 " fill="none" id="nfvo-to-pm_ctl" style="stroke:#181818;stroke-width:1.0;"/><polygon fill="#181818" points="737.4691,230.52,743.2439,222.5419,738.5032,225.6281,735.4169,220.8873,737.4691,230.52" style="stroke:#181818;stroke-width:1.0;"/><text fill="#000000" font-family="sans-serif" font-size="13" lengthAdjust="spacing" textLength="142" x="791.5891" y="133.5684">1. Create PM threshold</text></g><!--link pm_ctl to plugin--><g id="link_pm_ctl_plugin"><path d="M733.5891,277.17 C733.5891,313.68 733.5891,380.07 733.5891,416.68 " fill="none" id="pm_ctl-to-plugin" style="stroke:#181818;stroke-width:1.0;"/><polygon fill="#181818" points="733.5891,422.68,737.5891,413.68,733.5891,417.68,729.5891,413.68,733.5891,422.68" style="stroke:#181818;stroke-width:1.0;"/></g><!--link plugin to prom--><g id="link_plugin_prom"><path d="M689.3891,469.48 C651.5091,488.74 595.4691,517.21 546.5891,542 C507.1891,561.98 467.7027,581.9609 435.3727,598.3209 " fill="none" id="plugin-to-prom" style="stroke:#181818;stroke-width:1.0;"/><polygon fill="#181818" points="430.0191,601.03,439.8555,600.5354,434.4804,598.7724,436.2434,593.3973,430.0191,601.03" style="stroke:#181818;stroke-width:1.0;"/><text fill="#000000" font-family="sans-serif" font-size="13" lengthAdjust="spacing" textLength="121" x="577.5891" y="538.5684">2. Set PM threshold</text></g><!--link prom to plugin--><g id="link_prom_plugin"><path d="M378.6491,601.31 C373.2991,579.43 369.3891,546.28 386.5891,525 C419.2491,484.61 552.8919,464.2467 644.7719,454.5967 " fill="none" id="prom-to-plugin" style="stroke:#181818;stroke-width:1.0;"/><polygon fill="#181818" points="650.7391,453.97,641.3705,450.932,645.7664,454.4923,642.2061,458.8882,650.7391,453.97" style="stroke:#181818;stroke-width:1.0;"/><text fill="#000000" font-family="sans-serif" font-size="13" lengthAdjust="spacing" textLength="150" x="387.5891" y="538.5684">4. POST threshold event</text></g><!--link ins1 to prom--><g id="link_ins1_prom"><path d="M173.2491,469.4 C159.0191,490.65 143.9891,522.2 162.5891,542 C172.2691,552.31 276.3491,545.04 289.5891,550 C318.6791,560.89 341.8934,579.592 359.9534,596.952 " fill="none" id="ins1-to-prom" style="stroke:#181818;stroke-width:1.0;"/><polygon fill="#181818" points="364.2791,601.11,360.5626,591.9893,360.6744,597.645,355.0186,597.7568,364.2791,601.11" style="stroke:#181818;stroke-width:1.0;"/><text fill="#000000" font-family="sans-serif" font-size="13" lengthAdjust="spacing" textLength="163" x="163.5891" y="538.5684">3. Trigger threshold event</text></g><!--link ins2 to prom--><g id="link_ins2_prom"><path d="M303.4991,469.35 C321.5291,503.21 352.7493,561.8339 370.8093,595.7539 " fill="none" id="ins2-to-prom" style="stroke:#181818;stroke-width:1.0;"/><polygon fill="#181818" points="373.6291,601.05,372.9301,591.226,371.2792,596.6366,365.8686,594.9857,373.6291,601.05" style="stroke:#181818;stroke-width:1.0;"/></g><!--link plugin to pm_driver--><g id="link_plugin_pm_driver"><path d="M735.4891,469.35 C738.1491,500.61 742.4701,551.5216 745.4701,586.7616 " fill="none" id="plugin-to-pm_driver" style="stroke:#181818;stroke-width:1.0;"/><polygon fill="#181818" points="745.9791,592.74,749.2012,583.4331,745.555,587.758,741.2301,584.1117,745.9791,592.74" style="stroke:#181818;stroke-width:1.0;"/><text fill="#000000" font-family="sans-serif" font-size="13" lengthAdjust="spacing" textLength="283" x="741.5891" y="538.5684">5. Convert threshold event to threshold state</text></g><!--link plugin to nfvo--><g id="link_plugin_nfvo"><path d="M816.4791,426.21 C891.5891,404.31 997.8591,360 1047.5891,277 C1077.7391,226.67 1073.7891,197.49 1047.5891,145 C1033.8891,117.55 1010.845,100.0422 987.085,86.8522 " fill="none" id="plugin-to-nfvo" style="stroke:#181818;stroke-width:1.0;"/><polygon fill="#181818" points="981.8391,83.94,987.7664,91.8055,986.2106,86.3668,991.6493,84.811,981.8391,83.94" style="stroke:#181818;stroke-width:1.0;"/><text fill="#000000" font-family="sans-serif" font-size="13" lengthAdjust="spacing" textLength="222" x="1069.5891" y="259.0684">6. Send threshold state notification</text></g><!--link nfvo to lcm_ctl--><g id="link_nfvo_lcm_ctl"><path d="M942.5891,88.19 C942.5891,124.08 942.5891,188.49 942.5891,224.55 " fill="none" id="nfvo-to-lcm_ctl" style="stroke:#181818;stroke-width:1.0;"/><polygon fill="#181818" points="942.5891,230.55,946.5891,221.55,942.5891,225.55,938.5891,221.55,942.5891,230.55" style="stroke:#181818;stroke-width:1.0;"/><text fill="#000000" font-family="sans-serif" font-size="13" lengthAdjust="spacing" textLength="48" x="943.5891" y="133.5684">7. Scale</text></g><!--link lcm_ctl to infra--><g id="link_lcm_ctl_infra"><path d="M961.3591,277.26 C1001.2591,327.42 1086.6491,451.92 1033.5891,542 C1014.8591,573.81 984.3295,591.9012 952.5895,604.2712 " fill="none" id="lcm_ctl-to-infra" style="stroke:#181818;stroke-width:1.0;"/><polygon fill="#181818" points="946.9991,606.45,956.8372,606.9088,951.6578,604.6344,953.9322,599.4549,946.9991,606.45" style="stroke:#181818;stroke-width:1.0;"/></g><!--link infra to k8s_m--><g id="link_infra_k8s_m"><path d="M864.4791,656.23 C850.4691,673.24 830.8391,693.09 808.5891,704 C704.0091,755.29 370.9317,777.5418 210.3717,785.5318 " fill="none" id="infra-to-k8s_m" style="stroke:#181818;stroke-width:1.0;"/><polygon fill="#181818" points="204.3791,785.83,213.5668,789.3777,209.3729,785.5815,213.1691,781.3876,204.3791,785.83" style="stroke:#181818;stroke-width:1.0;"/><text fill="#000000" font-family="sans-serif" font-size="13" lengthAdjust="spacing" textLength="138" x="779.5891" y="725.5684">8. Call Kubernetes API</text></g><!--link k8s_m to ins3--><g id="link_k8s_m_ins3"><path d="M115.9691,758.55 C110.1991,690.44 97.0358,534.9086 91.9958,475.4486 " fill="none" id="k8s_m-to-ins3" style="stroke:#181818;stroke-width:1.0;"/><polygon fill="#181818" points="91.4891,469.47,88.2635,478.7757,91.9114,474.4521,96.2349,478.1,91.4891,469.47" style="stroke:#181818;stroke-width:1.0;"/><text fill="#000000" font-family="sans-serif" font-size="13" lengthAdjust="spacing" textLength="190" x="111.5891" y="629.5684">9. Change the number of Pods</text></g><!--SRC=[VL9DJnin4BtxLup20Nf899BIqZrKgY8XK0Mi2aelaP3npcPNyNeYsviS4F-zi_QMDI4XXuqzxxtncu_IoWPXb5jgq5VOkX6y2E2VecP31er_3qe76xwALo7AABsxMjmV4CKmqqsvfOJkfLgZFI28mDYXtGxu7cTXoaqp9-CjQOrsCOs6cYVbzI7-u3pNxQesaHwEHz9hzJ4_nzuUU3rYMv4fMkNfK-TBKzWwL1TTnziX-k_s6Qr1ZsvfQiEj6oVA4EZTS6CD5PWgOAvRvz4kpTcjx0vVWcfzwPuQeJIr1OokfIrsqYByGKUjLHX7M-rwzv_a_4jsdURS9GL7MKv5xzET7uUcnw7PKDpf2LlKqjTaN5LldEZM2SRZd_tKCpYVmDoYz0ZvBVZAegj85oB2aHa77lzYXFSYW-a47j2_btMU4yfi0e-sNgtG3Xp0BS-eOqxVcABx98zby7K2-Vt3umTPwkB_1cHmmKMGuQFV5u2d9EGy5vhcwDgHmRUk4bFi4xcplYvh5TetTAxVvmo-iqn9ZQAF13HkL_Y6UzYR32xPeTGQaftubT-8WFOwDylW1zCgQLR8NlZzjc4sK0ayNIV-0G00]--></g></svg>