<?xml version="1.0" encoding="us-ascii" standalone="no"?><svg xmlns="http://www.w3.org/2000/svg" xmlns:xlink="http://www.w3.org/1999/xlink" contentStyleType="text/css" height="900px" preserveAspectRatio="none" style="width:593px;height:900px;background:#FFFFFF;" version="1.1" viewBox="0 0 593 900" width="593px" zoomAndPan="magnify"><defs/><g><!--cluster python-tackerclient--><g id="cluster_python-tackerclient"><rect fill="none" height="253" rx="2.5" ry="2.5" style="stroke:#181818;stroke-width:1.0;" width="580" x="7" y="7"/><path d="M160,7 L160,16.4883 L150,26.4883 L7,26.4883 " fill="none" style="stroke:#181818;stroke-width:1.0;"/><text fill="#000000" font-family="sans-serif" font-size="14" font-weight="bold" lengthAdjust="spacing" textLength="143" x="10" y="21.5352">python-tackerclient</text></g><!--cluster client--><g id="cluster_client"><rect fill="none" height="186" rx="2.5" ry="2.5" style="stroke:#181818;stroke-width:1.0;" width="532" x="31" y="50"/><rect fill="none" height="10" style="stroke:#181818;stroke-width:1.0;" width="15" x="543" y="55"/><rect fill="none" height="2" style="stroke:#181818;stroke-width:1.0;" width="4" x="541" y="57"/><rect fill="none" height="2" style="stroke:#181818;stroke-width:1.0;" width="4" x="541" y="61"/><text fill="#000000" font-family="sans-serif" font-size="14" font-weight="bold" lengthAdjust="spacing" textLength="93" x="250.5" y="76.5352">tacker-client</text></g><!--cluster vnfpkg--><g id="cluster_vnfpkg"><path d="M174.5,101 L267.5,101 A3.75,3.75 0 0 1 270,103.5 L277,123.4883 L528.5,123.4883 A2.5,2.5 0 0 1 531,125.9883 L531,201.5 A2.5,2.5 0 0 1 528.5,204 L174.5,204 A2.5,2.5 0 0 1 172,201.5 L172,103.5 A2.5,2.5 0 0 1 174.5,101 " fill="none" style="stroke:#000000;stroke-width:1.5;"/><line style="stroke:#000000;stroke-width:1.5;" x1="172" x2="277" y1="123.4883" y2="123.4883"/><text fill="#000000" font-family="sans-serif" font-size="14" font-weight="bold" lengthAdjust="spacing" textLength="92" x="176" y="116.5352">VNF Package</text></g><!--cluster tacker--><g id="cluster_tacker"><rect fill="none" height="418" rx="2.5" ry="2.5" style="stroke:#181818;stroke-width:1.0;" width="200" x="80" y="324"/><path d="M134,324 L134,333.4883 L124,343.4883 L80,343.4883 " fill="none" style="stroke:#181818;stroke-width:1.0;"/><text fill="#000000" font-family="sans-serif" font-size="14" font-weight="bold" lengthAdjust="spacing" textLength="44" x="83" y="338.5352">tacker</text></g><!--cluster tacker-server--><g id="cluster_tacker-server"><rect fill="none" height="97" rx="2.5" ry="2.5" style="stroke:#181818;stroke-width:1.0;" width="114" x="123" y="367"/><rect fill="none" height="10" style="stroke:#181818;stroke-width:1.0;" width="15" x="217" y="372"/><rect fill="none" height="2" style="stroke:#181818;stroke-width:1.0;" width="4" x="215" y="374"/><rect fill="none" height="2" style="stroke:#181818;stroke-width:1.0;" width="4" x="215" y="378"/><text fill="#000000" font-family="sans-serif" font-size="14" font-weight="bold" lengthAdjust="spacing" textLength="97" x="131.5" y="393.5352">tacker-server</text></g><!--cluster tacker-conductor--><g id="cluster_tacker-conductor"><rect fill="none" height="221" rx="2.5" ry="2.5" style="stroke:#181818;stroke-width:1.0;" width="152" x="104" y="497"/><rect fill="none" height="10" style="stroke:#181818;stroke-width:1.0;" width="15" x="236" y="502"/><rect fill="none" height="2" style="stroke:#181818;stroke-width:1.0;" width="4" x="234" y="504"/><rect fill="none" height="2" style="stroke:#181818;stroke-width:1.0;" width="4" x="234" y="508"/><text fill="#000000" font-family="sans-serif" font-size="14" font-weight="bold" lengthAdjust="spacing" textLength="124" x="118" y="523.5352">tacker-conductor</text></g><!--cluster hw--><g id="cluster_hw"><path d="M372.9468,800.9149 C376.9279,795.0441 381.0341,795.3991 385.3014,800.5955 C388.0432,795.5066 392.9788,794.7615 396.7165,799.4303 C399.889,794.2009 404.1869,794.2661 407.6362,799.1308 C410.2706,791.7798 416.4268,791.589 420.5528,797.6997 C424.0089,792.7281 428.9141,791.8788 432.002,798.0771 C435.0197,792.0519 439.0403,790.283 444.1889,795.8338 C448.4938,789.7009 454.758,790.6979 458.0746,796.9426 C462.803,792.0247 466.7992,792.2349 469.7245,798.7758 C473.4493,792.9318 476.9013,793.883 480.9993,798.3686 C485.9538,792.1641 490.1417,794.0019 493.4988,800.0043 C497.227,793.6774 502.7345,793.3962 506.2453,800.2151 C509.8396,794.8794 513.8361,794.793 517.9336,799.6374 C524.5047,802.6358 525.3189,809.2711 519.4749,813.6365 C525.9378,815.7685 527.9784,821.5402 522.5796,826.5287 C530.8565,830.0553 531.1678,835.5472 524.2849,840.8758 C530.8281,846.168 529.5388,851.1978 522.3228,854.5099 C527.8283,859.3771 527.0698,863.9645 520.3497,866.8819 C527.8799,871.4964 525.6509,878.5981 518.8188,881.7319 C515.8351,887.4241 509.7046,888.1151 506.3234,882.1583 C502.9056,888.4076 498.4145,889.0476 494.2315,882.9049 C491.1131,888.8715 484.6712,889.9505 480.7708,883.7715 C477.5572,888.7211 474.34,889.764 470.4392,884.4643 C467.0214,890.0642 462.3791,890.769 457.9581,885.6303 C454.2056,892.5599 450.1792,891.1931 445.652,886.447 C440.7888,892.6278 437.0077,892.2869 433.1802,885.4545 C430.462,891.2527 425.4862,891.7814 421.7834,886.464 C416.5084,893.3205 410.7015,891.1753 407.5147,884.2949 C404.012,889.2996 399.6491,889.9059 396.4605,883.9774 C392.3852,889.3531 386.5933,888.9431 384.4735,882.0646 C380.4711,886.6438 374.9249,886.1642 372.5664,880.207 C366.5479,877.1881 364.6341,873.5108 369.6497,867.8809 C363.6548,864.7665 363.2539,859.385 368.4192,855.1886 C361.2705,851.5165 360.8104,844.8586 367.3426,840.2036 C362.3537,835.1411 362.5563,829.6669 369.6068,826.6096 C364.1903,822.393 363.1683,816.2049 370.7073,813.0389 C366.5063,808.6305 366.0477,803.273 372.9468,800.9149 " fill="none" style="stroke:#181818;stroke-width:1.0;"/><text fill="#000000" font-family="sans-serif" font-size="14" font-weight="bold" lengthAdjust="spacing" textLength="146" x="371" y="817.5352">Hardware Resources</text></g><!--entity inst_param--><g id="elem_inst_param"><path d="M47,138 L47,185.9766 A2.5,2.5 0 0 0 49.5,188.4766 L142.5,188.4766 A2.5,2.5 0 0 0 145,185.9766 L145,145.5 L135,135.5 L49.5,135.5 A2.5,2.5 0 0 0 47,138 " fill="#F1F1F1" style="stroke:#181818;stroke-width:0.5;"/><path d="M135,135.5 L135,143 A2.5,2.5 0 0 0 137.5,145.5 L145,145.5 " fill="#F1F1F1" style="stroke:#181818;stroke-width:0.5;"/><text fill="#000000" font-family="sans-serif" font-size="14" lengthAdjust="spacing" textLength="72" x="57" y="159.0352">Instantiate</text><text fill="#000000" font-family="sans-serif" font-size="14" lengthAdjust="spacing" textLength="78" x="57" y="175.5234">parameters</text></g><!--entity vnfd--><g id="elem_vnfd"><path d="M449.5,146.5 L449.5,177.9883 A2.5,2.5 0 0 0 452,180.4883 L504,180.4883 A2.5,2.5 0 0 0 506.5,177.9883 L506.5,154 L496.5,144 L452,144 A2.5,2.5 0 0 0 449.5,146.5 " fill="#F1F1F1" style="stroke:#181818;stroke-width:0.5;"/><path d="M496.5,144 L496.5,151.5 A2.5,2.5 0 0 0 499,154 L506.5,154 " fill="#F1F1F1" style="stroke:#181818;stroke-width:0.5;"/><text fill="#000000" font-family="sans-serif" font-size="14" lengthAdjust="spacing" textLength="37" x="459.5" y="167.5352">VNFD</text></g><!--entity userdata--><g id="elem_userdata"><path d="M332,146.5 L332,177.9883 A2.5,2.5 0 0 0 334.5,180.4883 L411.5,180.4883 A2.5,2.5 0 0 0 414,177.9883 L414,154 L404,144 L334.5,144 A2.5,2.5 0 0 0 332,146.5 " fill="#F1F1F1" style="stroke:#181818;stroke-width:0.5;"/><path d="M404,144 L404,151.5 A2.5,2.5 0 0 0 406.5,154 L414,154 " fill="#F1F1F1" style="stroke:#181818;stroke-width:0.5;"/><text fill="#000000" font-family="sans-serif" font-size="14" lengthAdjust="spacing" textLength="62" x="342" y="167.5352">UserData</text></g><!--entity hot--><g id="elem_hot"><path d="M215.5,146.5 L215.5,177.9883 A2.5,2.5 0 0 0 218,180.4883 L294,180.4883 A2.5,2.5 0 0 0 296.5,177.9883 L296.5,154 L286.5,144 L218,144 A2.5,2.5 0 0 0 215.5,146.5 " fill="#F1F1F1" style="stroke:#181818;stroke-width:0.5;"/><path d="M286.5,144 L286.5,151.5 A2.5,2.5 0 0 0 289,154 L296.5,154 " fill="#F1F1F1" style="stroke:#181818;stroke-width:0.5;"/><text fill="#000000" font-family="sans-serif" font-size="14" lengthAdjust="spacing" textLength="61" x="225.5" y="167.5352">BaseHOT</text></g><!--entity serv--><g id="elem_serv"><rect fill="#F1F1F1" height="46.4883" rx="2.5" ry="2.5" style="stroke:#181818;stroke-width:0.5;" width="82" x="139" y="402"/><rect fill="#F1F1F1" height="10" style="stroke:#181818;stroke-width:0.5;" width="15" x="201" y="407"/><rect fill="#F1F1F1" height="2" style="stroke:#181818;stroke-width:0.5;" width="4" x="199" y="409"/><rect fill="#F1F1F1" height="2" style="stroke:#181818;stroke-width:0.5;" width="4" x="199" y="413"/><text fill="#000000" font-family="sans-serif" font-size="14" lengthAdjust="spacing" textLength="42" x="154" y="435.5352">server</text></g><!--entity cond--><g id="elem_cond"><rect fill="#F1F1F1" height="46.4883" rx="2.5" ry="2.5" style="stroke:#181818;stroke-width:0.5;" width="110" x="125" y="532"/><rect fill="#F1F1F1" height="10" style="stroke:#181818;stroke-width:0.5;" width="15" x="215" y="537"/><rect fill="#F1F1F1" height="2" style="stroke:#181818;stroke-width:0.5;" width="4" x="213" y="539"/><rect fill="#F1F1F1" height="2" style="stroke:#181818;stroke-width:0.5;" width="4" x="213" y="543"/><text fill="#000000" font-family="sans-serif" font-size="14" lengthAdjust="spacing" textLength="70" x="140" y="565.5352">conductor</text></g><!--entity infra--><g id="elem_infra"><rect fill="#F1F1F1" height="62.9766" rx="2.5" ry="2.5" style="stroke:#181818;stroke-width:0.5;" width="120" x="120" y="639"/><rect fill="#F1F1F1" height="10" style="stroke:#181818;stroke-width:0.5;" width="15" x="220" y="644"/><rect fill="#F1F1F1" height="2" style="stroke:#181818;stroke-width:0.5;" width="4" x="218" y="646"/><rect fill="#F1F1F1" height="2" style="stroke:#181818;stroke-width:0.5;" width="4" x="218" y="650"/><text fill="#000000" font-family="sans-serif" font-size="14" lengthAdjust="spacing" textLength="73" x="135" y="672.5352">OpenStack</text><text fill="#000000" font-family="sans-serif" font-size="14" lengthAdjust="spacing" textLength="80" x="135" y="689.0234">infra-driver</text></g><!--entity ins1--><g id="elem_ins1"><polygon fill="#F1F1F1" points="413.5,836,423.5,826,474.5,826,474.5,862.4883,464.5,872.4883,413.5,872.4883,413.5,836" style="stroke:#181818;stroke-width:0.5;"/><line style="stroke:#181818;stroke-width:0.5;" x1="464.5" x2="474.5" y1="836" y2="826"/><line style="stroke:#181818;stroke-width:0.5;" x1="413.5" x2="464.5" y1="836" y2="836"/><line style="stroke:#181818;stroke-width:0.5;" x1="464.5" x2="464.5" y1="836" y2="872.4883"/><text fill="#000000" font-family="sans-serif" font-size="14" lengthAdjust="spacing" textLength="21" x="428.5" y="859.5352">VM</text></g><!--entity heat--><g id="elem_heat"><polygon fill="#F1F1F1" points="387.5,649,397.5,639,500.5,639,500.5,691.9766,490.5,701.9766,387.5,701.9766,387.5,649" style="stroke:#181818;stroke-width:0.5;"/><line style="stroke:#181818;stroke-width:0.5;" x1="490.5" x2="500.5" y1="649" y2="639"/><line style="stroke:#181818;stroke-width:0.5;" x1="387.5" x2="490.5" y1="649" y2="649"/><line style="stroke:#181818;stroke-width:0.5;" x1="490.5" x2="490.5" y1="649" y2="701.9766"/><text fill="#000000" font-family="sans-serif" font-size="14" lengthAdjust="spacing" textLength="73" x="402.5" y="672.5352">OpenStack</text><text fill="#000000" font-family="sans-serif" font-size="14" lengthAdjust="spacing" textLength="31" x="402.5" y="689.0234">Heat</text></g><!--link hot to serv--><!--link vnfpkg to serv--><g id="link_vnfpkg_serv"><path d="M178.6437,204.2809 C178.6386,204.4549 178.6334,204.6292 178.6282,204.8038 C178.6178,205.1531 178.6074,205.5038 178.597,205.8557 C178.5554,207.2636 178.5136,208.6924 178.4717,210.1401 C178.388,213.0354 178.304,216.0061 178.2208,219.0346 C178.0543,225.0915 177.8907,231.3795 177.7373,237.7584 C177.4306,250.5163 177.165,263.6375 177,276 C176.41,320.59 177.7765,366.7242 178.8565,395.6942 " fill="none" id="vnfpkg-to-serv" style="stroke:#181818;stroke-width:1.0;"/><polygon fill="#181818" points="179.08,401.69,182.7419,392.5472,178.8937,396.6935,174.7475,392.8453,179.08,401.69" style="stroke:#181818;stroke-width:1.0;"/><text fill="#000000" font-family="sans-serif" font-size="13" lengthAdjust="spacing" textLength="66" x="180.5" y="289.5684">1. Request</text><text fill="#000000" font-family="sans-serif" font-size="13" lengthAdjust="spacing" textLength="67" x="182" y="304.8789">create VNF</text></g><!--link inst_param to serv--><g id="link_inst_param_serv"><path d="M81.75,188.98 C67.46,218.67 49.74,268.27 66,308 C82.2,347.59 114.3531,377.3458 141.8231,397.9858 " fill="none" id="inst_param-to-serv" style="stroke:#181818;stroke-width:1.0;"/><polygon fill="#181818" points="146.62,401.59,141.8275,392.9858,142.6226,398.5865,137.0219,399.3816,146.62,401.59" style="stroke:#181818;stroke-width:1.0;"/><text fill="#000000" font-family="sans-serif" font-size="13" lengthAdjust="spacing" textLength="66" x="84" y="289.5684">2. Request</text><text fill="#000000" font-family="sans-serif" font-size="13" lengthAdjust="spacing" textLength="96" x="71" y="304.8789">instantiate VNF</text></g><!--link serv to cond--><g id="link_serv_cond"><path d="M180,448.3 C180,471.65 180,502.11 180,525.53 " fill="none" id="serv-to-cond" style="stroke:#181818;stroke-width:1.0;"/><polygon fill="#181818" points="180,531.53,184,522.53,180,526.53,176,522.53,180,531.53" style="stroke:#181818;stroke-width:1.0;"/></g><!--link cond to infra--><g id="link_cond_infra"><path d="M180,578.42 C180,595.61 180,613.52 180,632.53 " fill="none" id="cond-to-infra" style="stroke:#181818;stroke-width:1.0;"/><polygon fill="#181818" points="180,638.53,184,629.53,180,633.53,176,629.53,180,638.53" style="stroke:#181818;stroke-width:1.0;"/></g><!--link infra to heat--><g id="link_infra_heat"><path d="M240.24,670.5 C284.37,670.5 337.88,670.5 381.19,670.5 " fill="none" id="infra-to-heat" style="stroke:#181818;stroke-width:1.0;"/><polygon fill="#181818" points="387.19,670.5,378.19,666.5,382.19,670.5,378.19,674.5,387.19,670.5" style="stroke:#181818;stroke-width:1.0;"/><text fill="#000000" font-family="sans-serif" font-size="13" lengthAdjust="spacing" textLength="111" x="258.25" y="649.0684">3. Call OpenStack</text><text fill="#000000" font-family="sans-serif" font-size="13" lengthAdjust="spacing" textLength="53" x="289.25" y="664.3789">Heat API</text></g><!--link heat to ins1--><g id="link_heat_ins1"><path d="M444,702.24 C444,737.5 444,788.46 444,819.71 " fill="none" id="heat-to-ins1" style="stroke:#181818;stroke-width:1.0;"/><polygon fill="#181818" points="444,825.71,448,816.71,444,820.71,440,816.71,444,825.71" style="stroke:#181818;stroke-width:1.0;"/><text fill="#000000" font-family="sans-serif" font-size="13" lengthAdjust="spacing" textLength="90" x="445" y="771.5684">4. Create a VM</text></g><!--SRC=[TP9DJyCm38Rl-HNME73gf06d7P202Ms7iOcFNHX2KPEkqJgd9EacXFRVSPAMTgZB8OhjnwxzkfdXEmc3yjlb6XF7qwqqQQ4akW7yCA2JwbsfaHmmYE6aYNCByLcJ_fI4y0rLN3qzmZ8QWTnZLcut7TAVJ1KHdJICw8c_MMactF70L6G8CdguUsxbTF4Qi5oxF-B8JhaPMiVHAUxa6alk5N3Is92dAFOPV2oc7XdBeaPn-lEoK6FxDlwFQOBq2VzaRLyz-ceKLUhqkLgTk5y1MNtKefJuuYkkKI6Da0YZcXQ2enqGjP0d2LF9utvpUh2qq9M0mPGRSU16mhEqkZAfZ8hbXxhBM6KrRtGS-TAN5uGNt2cDDbUbPRGOIDvp9OJ43w4FcDn6HUeV9AdjCOo6bFfLIUlM2AcXJYJGhyBQ5NNWgowisWM738y4DcZbhs155S8DYL6Rt97JJpo6wo4yyAA0ZYRWHO6xvOnvf2vWHsEu8JPsns4rPxy0]--></g></svg>