<?xml version="1.0" encoding="us-ascii" standalone="no"?><svg xmlns="http://www.w3.org/2000/svg" xmlns:xlink="http://www.w3.org/1999/xlink" contentStyleType="text/css" height="741px" preserveAspectRatio="none" style="width:481px;height:741px;background:#FFFFFF;" version="1.1" viewBox="0 0 481 741" width="481px" zoomAndPan="magnify"><defs/><g><!--cluster python-tackerclient--><g id="cluster_python-tackerclient"><rect fill="none" height="97" rx="2.5" ry="2.5" style="stroke:#181818;stroke-width:1.0;" width="160" x="27" y="7"/><path d="M180,7 L180,16.4883 L170,26.4883 L27,26.4883 " fill="none" style="stroke:#181818;stroke-width:1.0;"/><text fill="#000000" font-family="sans-serif" font-size="14" font-weight="bold" lengthAdjust="spacing" textLength="143" x="30" y="21.5352">python-tackerclient</text></g><!--cluster tacker--><g id="cluster_tacker"><rect fill="none" height="418" rx="2.5" ry="2.5" style="stroke:#181818;stroke-width:1.0;" width="200" x="7" y="168"/><path d="M61,168 L61,177.4883 L51,187.4883 L7,187.4883 " fill="none" style="stroke:#181818;stroke-width:1.0;"/><text fill="#000000" font-family="sans-serif" font-size="14" font-weight="bold" lengthAdjust="spacing" textLength="44" x="10" y="182.5352">tacker</text></g><!--cluster tacker-server--><g id="cluster_tacker-server"><rect fill="none" height="97" rx="2.5" ry="2.5" style="stroke:#181818;stroke-width:1.0;" width="114" x="50" y="211"/><rect fill="none" height="10" style="stroke:#181818;stroke-width:1.0;" width="15" x="144" y="216"/><rect fill="none" height="2" style="stroke:#181818;stroke-width:1.0;" width="4" x="142" y="218"/><rect fill="none" height="2" style="stroke:#181818;stroke-width:1.0;" width="4" x="142" y="222"/><text fill="#000000" font-family="sans-serif" font-size="14" font-weight="bold" lengthAdjust="spacing" textLength="97" x="58.5" y="237.5352">tacker-server</text></g><!--cluster tacker-conductor--><g id="cluster_tacker-conductor"><rect fill="none" height="221" rx="2.5" ry="2.5" style="stroke:#181818;stroke-width:1.0;" width="152" x="31" y="341"/><rect fill="none" height="10" style="stroke:#181818;stroke-width:1.0;" width="15" x="163" y="346"/><rect fill="none" height="2" style="stroke:#181818;stroke-width:1.0;" width="4" x="161" y="348"/><rect fill="none" height="2" style="stroke:#181818;stroke-width:1.0;" width="4" x="161" y="352"/><text fill="#000000" font-family="sans-serif" font-size="14" font-weight="bold" lengthAdjust="spacing" textLength="124" x="45" y="367.5352">tacker-conductor</text></g><!--cluster hw--><g id="cluster_hw"><path d="M284.1367,643.2097 C288.4308,636.6273 294.0585,636.21 298.5831,642.96 C301.8738,638.7141 305.5999,638.8253 308.8634,642.9931 C312.7573,636.7354 318.9192,636.5917 322.1487,643.6557 C324.8162,637.4205 330.5535,636.8636 334.0771,642.818 C336.9936,636.7215 343.0832,636.441 346.6034,642.179 C349.9493,635.3103 353.7554,634.7284 358.7628,640.5923 C362.2604,634.8871 368.4784,634.9478 371.5467,641.0568 C375.4795,635.8281 381.8917,635.0728 384.6835,642.2638 C387.9415,636.3224 392.6321,637.5094 395.9378,642.2134 C399.8531,635.4461 405.3916,635.6213 409.3734,642.1462 C412.8018,636.2627 417.667,637.3469 420.8111,642.4425 C425.6589,635.267 431.5707,636.3461 435.1501,643.6947 C438.0749,639.3963 443.0562,638.4563 445.5784,644.1163 C450.4856,639.3358 454.586,638.558 458.3989,645.3307 C465.9366,647.0842 468.7395,651.4658 463.2512,658.15 C471.1147,660.9138 471.7053,667.826 464.5489,671.9974 C472.5322,674.1589 474.5128,679.8052 468.3706,685.8607 C474.1736,690.1224 472.236,695.6637 466.1975,697.7634 C470.7216,704.157 471.2466,709.8964 461.9394,712.2145 C466.8161,718.4535 465.3635,722.5134 458.6451,725.9769 C455.5609,731.8112 449.4085,732.4232 445.9616,726.3638 C442.8421,731.6786 437.9063,732.0497 434.4924,726.6799 C430.5995,732.995 426.1884,733.9547 421.8003,727.1592 C418.1699,732.9183 412.1912,731.438 409.6307,725.9967 C405.9877,732.0884 401.3848,733.1574 396.6903,727.1183 C392.9642,733.5659 389.0923,732.1796 385.0282,727.4716 C382.0856,732.6259 377.2713,734.5384 373.3118,728.5398 C368.6657,733.7374 364.5263,734.058 360.4285,727.9168 C356.6572,734.7854 351.0917,734.009 347.6198,727.6275 C343.375,733.2347 339.5659,732.2353 335.7214,727.1807 C331.3452,732.4202 327.0738,733.5896 323.0141,726.8452 C319.675,733.0937 314.0233,733.0482 310.8656,726.6707 C304.9932,732.0172 300.6997,731.2313 296.88,724.3272 C293.6208,729.7538 288.9341,730.409 285.514,724.4884 C279.2501,722.033 279.0174,716.8886 283.5927,712.6711 C276.4445,709.2571 274.705,704.7803 280.201,698.368 C272.3139,695.6354 272.1508,689.0191 277.8922,684.0837 C272.2399,679.216 272.6383,674.6907 278.7188,670.5391 C273.8764,664.6105 275.5322,659.3089 283.3626,658.1183 C277.0431,653.7668 275.8434,646.8024 284.1367,643.2097 " fill="none" style="stroke:#181818;stroke-width:1.0;"/><text fill="#000000" font-family="sans-serif" font-size="14" font-weight="bold" lengthAdjust="spacing" textLength="146" x="298" y="661.5352">Hardware Resources</text></g><!--entity client--><g id="elem_client"><rect fill="#F1F1F1" height="46.4883" rx="2.5" ry="2.5" style="stroke:#181818;stroke-width:0.5;" width="127" x="43.5" y="42"/><rect fill="#F1F1F1" height="10" style="stroke:#181818;stroke-width:0.5;" width="15" x="150.5" y="47"/><rect fill="#F1F1F1" height="2" style="stroke:#181818;stroke-width:0.5;" width="4" x="148.5" y="49"/><rect fill="#F1F1F1" height="2" style="stroke:#181818;stroke-width:0.5;" width="4" x="148.5" y="53"/><text fill="#000000" font-family="sans-serif" font-size="14" lengthAdjust="spacing" textLength="87" x="58.5" y="75.5352">tacker-client</text></g><!--entity serv--><g id="elem_serv"><rect fill="#F1F1F1" height="46.4883" rx="2.5" ry="2.5" style="stroke:#181818;stroke-width:0.5;" width="82" x="66" y="246"/><rect fill="#F1F1F1" height="10" style="stroke:#181818;stroke-width:0.5;" width="15" x="128" y="251"/><rect fill="#F1F1F1" height="2" style="stroke:#181818;stroke-width:0.5;" width="4" x="126" y="253"/><rect fill="#F1F1F1" height="2" style="stroke:#181818;stroke-width:0.5;" width="4" x="126" y="257"/><text fill="#000000" font-family="sans-serif" font-size="14" lengthAdjust="spacing" textLength="42" x="81" y="279.5352">server</text></g><!--entity cond--><g id="elem_cond"><rect fill="#F1F1F1" height="46.4883" rx="2.5" ry="2.5" style="stroke:#181818;stroke-width:0.5;" width="110" x="52" y="376"/><rect fill="#F1F1F1" height="10" style="stroke:#181818;stroke-width:0.5;" width="15" x="142" y="381"/><rect fill="#F1F1F1" height="2" style="stroke:#181818;stroke-width:0.5;" width="4" x="140" y="383"/><rect fill="#F1F1F1" height="2" style="stroke:#181818;stroke-width:0.5;" width="4" x="140" y="387"/><text fill="#000000" font-family="sans-serif" font-size="14" lengthAdjust="spacing" textLength="70" x="67" y="409.5352">conductor</text></g><!--entity infra--><g id="elem_infra"><rect fill="#F1F1F1" height="62.9766" rx="2.5" ry="2.5" style="stroke:#181818;stroke-width:0.5;" width="120" x="47" y="483"/><rect fill="#F1F1F1" height="10" style="stroke:#181818;stroke-width:0.5;" width="15" x="147" y="488"/><rect fill="#F1F1F1" height="2" style="stroke:#181818;stroke-width:0.5;" width="4" x="145" y="490"/><rect fill="#F1F1F1" height="2" style="stroke:#181818;stroke-width:0.5;" width="4" x="145" y="494"/><text fill="#000000" font-family="sans-serif" font-size="14" lengthAdjust="spacing" textLength="73" x="62" y="516.5352">OpenStack</text><text fill="#000000" font-family="sans-serif" font-size="14" lengthAdjust="spacing" textLength="80" x="62" y="533.0234">infra-driver</text></g><!--entity ins1--><g id="elem_ins1"><polygon fill="#F1F1F1" points="292.5,680,302.5,670,353.5,670,353.5,706.4883,343.5,716.4883,292.5,716.4883,292.5,680" style="stroke:#181818;stroke-width:0.5;"/><line style="stroke:#181818;stroke-width:0.5;" x1="343.5" x2="353.5" y1="680" y2="670"/><line style="stroke:#181818;stroke-width:0.5;" x1="292.5" x2="343.5" y1="680" y2="680"/><line style="stroke:#181818;stroke-width:0.5;" x1="343.5" x2="343.5" y1="680" y2="716.4883"/><text fill="#000000" font-family="sans-serif" font-size="14" lengthAdjust="spacing" textLength="21" x="307.5" y="703.5352">VM</text></g><!--entity ins2--><g id="elem_ins2"><polygon fill="#F1F1F1" points="388.5,680,398.5,670,449.5,670,449.5,706.4883,439.5,716.4883,388.5,716.4883,388.5,680" style="stroke:#181818;stroke-width:0.5;"/><line style="stroke:#181818;stroke-width:0.5;" x1="439.5" x2="449.5" y1="680" y2="670"/><line style="stroke:#181818;stroke-width:0.5;" x1="388.5" x2="439.5" y1="680" y2="680"/><line style="stroke:#181818;stroke-width:0.5;" x1="439.5" x2="439.5" y1="680" y2="716.4883"/><text fill="#000000" font-family="sans-serif" font-size="14" lengthAdjust="spacing" textLength="21" x="403.5" y="703.5352">VM</text></g><!--entity heat--><g id="elem_heat"><polygon fill="#F1F1F1" points="314.5,493,324.5,483,427.5,483,427.5,535.9766,417.5,545.9766,314.5,545.9766,314.5,493" style="stroke:#181818;stroke-width:0.5;"/><line style="stroke:#181818;stroke-width:0.5;" x1="417.5" x2="427.5" y1="493" y2="483"/><line style="stroke:#181818;stroke-width:0.5;" x1="314.5" x2="417.5" y1="493" y2="493"/><line style="stroke:#181818;stroke-width:0.5;" x1="417.5" x2="417.5" y1="493" y2="545.9766"/><text fill="#000000" font-family="sans-serif" font-size="14" lengthAdjust="spacing" textLength="73" x="329.5" y="516.5352">OpenStack</text><text fill="#000000" font-family="sans-serif" font-size="14" lengthAdjust="spacing" textLength="31" x="329.5" y="533.0234">Heat</text></g><!--link client to serv--><g id="link_client_serv"><path d="M107,88.39 C107,127.22 107,200.61 107,239.51 " fill="none" id="client-to-serv" style="stroke:#181818;stroke-width:1.0;"/><polygon fill="#181818" points="107,245.51,111,236.51,107,240.51,103,236.51,107,245.51" style="stroke:#181818;stroke-width:1.0;"/><text fill="#000000" font-family="sans-serif" font-size="13" lengthAdjust="spacing" textLength="66" x="108" y="133.5684">1. Request</text><text fill="#000000" font-family="sans-serif" font-size="13" lengthAdjust="spacing" textLength="55" x="115.5" y="148.8789">heal VNF</text></g><!--link serv to cond--><g id="link_serv_cond"><path d="M107,292.3 C107,315.65 107,346.11 107,369.53 " fill="none" id="serv-to-cond" style="stroke:#181818;stroke-width:1.0;"/><polygon fill="#181818" points="107,375.53,111,366.53,107,370.53,103,366.53,107,375.53" style="stroke:#181818;stroke-width:1.0;"/></g><!--link cond to infra--><g id="link_cond_infra"><path d="M107,422.42 C107,439.61 107,457.52 107,476.53 " fill="none" id="cond-to-infra" style="stroke:#181818;stroke-width:1.0;"/><polygon fill="#181818" points="107,482.53,111,473.53,107,477.53,103,473.53,107,482.53" style="stroke:#181818;stroke-width:1.0;"/></g><!--link infra to heat--><g id="link_infra_heat"><path d="M167.24,514.5 C211.37,514.5 264.88,514.5 308.19,514.5 " fill="none" id="infra-to-heat" style="stroke:#181818;stroke-width:1.0;"/><polygon fill="#181818" points="314.19,514.5,305.19,510.5,309.19,514.5,305.19,518.5,314.19,514.5" style="stroke:#181818;stroke-width:1.0;"/><text fill="#000000" font-family="sans-serif" font-size="13" lengthAdjust="spacing" textLength="111" x="185.25" y="493.0684">2. Call OpenStack</text><text fill="#000000" font-family="sans-serif" font-size="13" lengthAdjust="spacing" textLength="53" x="216.25" y="508.3789">Heat API</text></g><!--link heat to ins1--><g id="link_heat_ins1"><path d="M337.9,546.34 C323.96,561.58 309.3,581.15 302,602 C294.1,624.56 300.0214,645.8904 308.4314,664.3404 " fill="none" id="heat-to-ins1" style="stroke:#181818;stroke-width:1.0;"/><polygon fill="#181818" points="310.92,669.8,310.8268,659.9516,308.8462,665.2504,303.5474,663.2697,310.92,669.8" style="stroke:#181818;stroke-width:1.0;"/><text fill="#000000" font-family="sans-serif" font-size="13" lengthAdjust="spacing" textLength="107" x="303" y="615.5684">3. Re-create VMs</text></g><!--link heat to ins2--><g id="link_heat_ins2"><path d="M390.7,546.25 C399.86,562.22 409.85,582.45 415,602 C420.93,624.54 421.5538,645.3346 420.8338,663.7946 " fill="none" id="heat-to-ins2" style="stroke:#181818;stroke-width:1.0;"/><polygon fill="#181818" points="420.6,669.79,424.9477,660.9527,420.7949,664.7938,416.9538,660.6409,420.6,669.79" style="stroke:#181818;stroke-width:1.0;"/></g><!--link ins1 to ins2--><!--SRC=[TL31IWCn4BtdAuRru2c5NMzx44IGUgYAmbwiXv1CtM2Qh4dM8j9_DvFiOYjj3c4ox-NDUxFnOejG3T-nTvP78J_GIwFHnWf-6AGZtNPmDZMWAZ2VSH6Wb6pFsAO85Shvlm7zrn_-ZpE3IPZAJDcVC-6i6cLqvxGESFAPNgTOZmFQ5r9SMsrJ1AwydYtankGX1RHEuT679OgoX3uLJ1etAgYMmgkTy0ZF6Dpe9OP2sKqkYqgtcYQ4-cIteO7iyYAf616riw7NGs1bsy3vTTvF2_KYCJv7375joOQ1xk6E4PP9EJLT-LNov1kur-zzJ4totaApW5jX31oa0ue7Dq_tZ2YJGAXRkAAPNFhKHUXMuGXl6960l_PQARHlyvWC_G80]--></g></svg>