<?xml version="1.0" encoding="us-ascii" standalone="no"?><svg xmlns="http://www.w3.org/2000/svg" xmlns:xlink="http://www.w3.org/1999/xlink" contentStyleType="text/css" height="895px" preserveAspectRatio="none" style="width:572px;height:895px;background:#FFFFFF;" version="1.1" viewBox="0 0 572 895" width="572px" zoomAndPan="magnify"><defs/><g><!--cluster python-tackerclient--><g id="cluster_python-tackerclient"><rect fill="none" height="97" rx="2.5" ry="2.5" style="stroke:#181818;stroke-width:1.0;" width="160" x="27" y="7"/><path d="M180,7 L180,16.4883 L170,26.4883 L27,26.4883 " fill="none" style="stroke:#181818;stroke-width:1.0;"/><text fill="#000000" font-family="sans-serif" font-size="14" font-weight="bold" lengthAdjust="spacing" textLength="143" x="30" y="21.5352">python-tackerclient</text></g><!--cluster tacker--><g id="cluster_tacker"><rect fill="none" height="426" rx="2.5" ry="2.5" style="stroke:#181818;stroke-width:1.0;" width="200" x="7" y="168"/><path d="M61,168 L61,177.4883 L51,187.4883 L7,187.4883 " fill="none" style="stroke:#181818;stroke-width:1.0;"/><text fill="#000000" font-family="sans-serif" font-size="14" font-weight="bold" lengthAdjust="spacing" textLength="44" x="10" y="182.5352">tacker</text></g><!--cluster tacker-server--><g id="cluster_tacker-server"><rect fill="none" height="97" rx="2.5" ry="2.5" style="stroke:#181818;stroke-width:1.0;" width="114" x="50" y="211"/><rect fill="none" height="10" style="stroke:#181818;stroke-width:1.0;" width="15" x="144" y="216"/><rect fill="none" height="2" style="stroke:#181818;stroke-width:1.0;" width="4" x="142" y="218"/><rect fill="none" height="2" style="stroke:#181818;stroke-width:1.0;" width="4" x="142" y="222"/><text fill="#000000" font-family="sans-serif" font-size="14" font-weight="bold" lengthAdjust="spacing" textLength="97" x="58.5" y="237.5352">tacker-server</text></g><!--cluster tacker-conductor--><g id="cluster_tacker-conductor"><rect fill="none" height="229" rx="2.5" ry="2.5" style="stroke:#181818;stroke-width:1.0;" width="152" x="31" y="341"/><rect fill="none" height="10" style="stroke:#181818;stroke-width:1.0;" width="15" x="163" y="346"/><rect fill="none" height="2" style="stroke:#181818;stroke-width:1.0;" width="4" x="161" y="348"/><rect fill="none" height="2" style="stroke:#181818;stroke-width:1.0;" width="4" x="161" y="352"/><text fill="#000000" font-family="sans-serif" font-size="14" font-weight="bold" lengthAdjust="spacing" textLength="124" x="45" y="367.5352">tacker-conductor</text></g><!--cluster hw--><g id="cluster_hw"><path d="M321.2949,682.9231 C325.2025,675.6786 330.0425,673.8619 336.0203,680.769 C340.2895,672.3057 348.6471,673.445 353.0657,680.606 C356.6833,672.2088 363.3214,672.9497 368.2815,679.2126 C371.9662,672.1551 376.7312,671.2682 382.0495,677.523 C386.4114,667.7991 391.9916,667.7768 398.9785,674.8827 C403.0569,667.2625 410.0027,667.9763 413.4836,675.4565 C417.8273,668.1206 423.6045,667.3034 429.8465,673.0894 C435.1731,666.2568 441.967,667.7869 444.6294,675.7512 C448.7215,669.801 455.1011,669.5523 458.7,676.2978 C463.6913,669.437 470.5951,667.6367 475.1508,676.7465 C480.9023,668.8879 487.2527,668.9097 491.748,677.9782 C497.2982,670.5421 504.8412,672.4691 507.1157,681.1095 C510.9302,675.0682 516.9983,674.9855 520.6053,681.3354 C530.0055,671.1458 540.2619,675.8033 543,688 C543.755,688.1934 544.0797,688.7187 543.5962,689.4288 C552.1504,692.1752 556.0636,700.3586 548.2409,707.3495 C554.9418,712.9737 554.5808,717.9957 547.6898,723.1456 C555.9055,726.6725 557.7099,735.6138 550.7209,741.6335 C560.8116,744.4083 561.4907,752.1363 554.6813,758.8082 C564.893,763.6836 565.5127,770.1314 556.5348,776.9656 C564.2441,782.5087 563.506,789.4601 554.3631,792.6734 C560.7237,799.9063 559.0736,806.4178 549.9022,809.5437 C557.5922,815.2223 557.906,822.9786 548.9026,827.7402 C556.0756,834.0431 558.0405,839.9115 548.0855,845.4229 C554.5184,856.5086 548.2217,866.363 536,867 C536.5193,866.3349 537.1492,866.2375 537.5625,867.1079 C534.4516,874.1103 527.9036,875.2221 523.0074,869.0857 C519.4448,878.7804 512.0015,878.2789 506.3393,871.1682 C503.3328,877.9625 496.2598,879.9047 491.7211,872.7769 C489.4895,881.851 482.7324,882.6224 476.8998,876.2269 C472.4442,885.1178 465.6853,883.5008 460.6906,876.7868 C456.7906,885.8258 451.0739,886.7607 444.4448,879.5083 C441.3437,887.9556 435.6363,888.6995 430.1107,881.7681 C424.8801,888.993 416.6863,887.6008 413.3524,879.6708 C408.399,885.9949 401.5134,886.899 397.5833,878.5695 C391.4941,885.1748 386.6009,884.0234 383.6133,875.6724 C378.4876,882.2072 371.6192,882.6756 368.2536,873.906 C362.5042,880.9536 356.2362,879.9429 352.0879,872.1605 C346.5705,878.4003 339.5506,877.7675 336.2556,869.701 C324.3853,880.2157 314.1761,873.724 312,860 C313.3219,860.3031 313.8529,861.1619 313.0608,862.3995 C304.34,857.8436 304.6188,850.8748 311.6939,845.0728 C303.0165,840.4028 303.4167,832.6821 310.7941,827.2036 C301.808,822.5314 304.1792,814.89 311.1607,810.5697 C300.3578,805.9206 302.0421,797.0176 310.1406,791.3646 C302.8725,786.6306 302.9603,781.0464 310.4932,776.6676 C302.1725,769.9302 300.24,763.0285 311.024,756.8015 C303.6126,752.0579 302.6104,745.3241 310.2071,739.8569 C301.5891,734.0732 304.9309,726.3787 312.5942,722.8851 C305.7359,718.1683 305.5295,712.1835 312.6866,707.5511 C300.6173,695.9635 304.0534,686.1638 319,681 C320.5225,680.6491 321.4005,681.3311 321.2949,682.9231 " fill="none" style="stroke:#181818;stroke-width:1.0;"/><text fill="#000000" font-family="sans-serif" font-size="14" font-weight="bold" lengthAdjust="spacing" textLength="146" x="354.5" y="699.5352">Hardware Resources</text></g><!--cluster k8s_w--><g id="cluster_k8s_w"><polygon fill="none" points="328,726,338,716,527,716,527,841,517,851,328,851,328,726" style="stroke:#181818;stroke-width:1.0;"/><line style="stroke:#181818;stroke-width:1.0;" x1="517" x2="527" y1="726" y2="716"/><line style="stroke:#181818;stroke-width:1.0;" x1="328" x2="517" y1="726" y2="726"/><line style="stroke:#181818;stroke-width:1.0;" x1="517" x2="517" y1="726" y2="851"/><text fill="#000000" font-family="sans-serif" font-size="14" font-weight="bold" lengthAdjust="spacing" textLength="81" x="383" y="742.5352">Kubernetes</text><text fill="#000000" font-family="sans-serif" font-size="14" font-weight="bold" lengthAdjust="spacing" textLength="52" x="397.5" y="759.0234">Cluster</text><text fill="#000000" font-family="sans-serif" font-size="14" font-weight="bold" lengthAdjust="spacing" textLength="61" x="393" y="775.5117">(Worker)</text></g><!--entity client--><g id="elem_client"><rect fill="#F1F1F1" height="46.4883" rx="2.5" ry="2.5" style="stroke:#181818;stroke-width:0.5;" width="127" x="43.5" y="42"/><rect fill="#F1F1F1" height="10" style="stroke:#181818;stroke-width:0.5;" width="15" x="150.5" y="47"/><rect fill="#F1F1F1" height="2" style="stroke:#181818;stroke-width:0.5;" width="4" x="148.5" y="49"/><rect fill="#F1F1F1" height="2" style="stroke:#181818;stroke-width:0.5;" width="4" x="148.5" y="53"/><text fill="#000000" font-family="sans-serif" font-size="14" lengthAdjust="spacing" textLength="87" x="58.5" y="75.5352">tacker-client</text></g><!--entity serv--><g id="elem_serv"><rect fill="#F1F1F1" height="46.4883" rx="2.5" ry="2.5" style="stroke:#181818;stroke-width:0.5;" width="82" x="66" y="246"/><rect fill="#F1F1F1" height="10" style="stroke:#181818;stroke-width:0.5;" width="15" x="128" y="251"/><rect fill="#F1F1F1" height="2" style="stroke:#181818;stroke-width:0.5;" width="4" x="126" y="253"/><rect fill="#F1F1F1" height="2" style="stroke:#181818;stroke-width:0.5;" width="4" x="126" y="257"/><text fill="#000000" font-family="sans-serif" font-size="14" lengthAdjust="spacing" textLength="42" x="81" y="279.5352">server</text></g><!--entity cond--><g id="elem_cond"><rect fill="#F1F1F1" height="46.4883" rx="2.5" ry="2.5" style="stroke:#181818;stroke-width:0.5;" width="110" x="52" y="376"/><rect fill="#F1F1F1" height="10" style="stroke:#181818;stroke-width:0.5;" width="15" x="142" y="381"/><rect fill="#F1F1F1" height="2" style="stroke:#181818;stroke-width:0.5;" width="4" x="140" y="383"/><rect fill="#F1F1F1" height="2" style="stroke:#181818;stroke-width:0.5;" width="4" x="140" y="387"/><text fill="#000000" font-family="sans-serif" font-size="14" lengthAdjust="spacing" textLength="70" x="67" y="409.5352">conductor</text></g><!--entity infra--><g id="elem_infra"><rect fill="#F1F1F1" height="62.9766" rx="2.5" ry="2.5" style="stroke:#181818;stroke-width:0.5;" width="120" x="47" y="491"/><rect fill="#F1F1F1" height="10" style="stroke:#181818;stroke-width:0.5;" width="15" x="147" y="496"/><rect fill="#F1F1F1" height="2" style="stroke:#181818;stroke-width:0.5;" width="4" x="145" y="498"/><rect fill="#F1F1F1" height="2" style="stroke:#181818;stroke-width:0.5;" width="4" x="145" y="502"/><text fill="#000000" font-family="sans-serif" font-size="14" lengthAdjust="spacing" textLength="78" x="62" y="524.5352">Kubernetes</text><text fill="#000000" font-family="sans-serif" font-size="14" lengthAdjust="spacing" textLength="80" x="62" y="541.0234">infra-driver</text></g><!--entity ins1--><g id="elem_ins1"><polygon fill="#F1F1F1" points="344,799,354,789,410,789,410,825.4883,400,835.4883,344,835.4883,344,799" style="stroke:#181818;stroke-width:0.5;"/><line style="stroke:#181818;stroke-width:0.5;" x1="400" x2="410" y1="799" y2="789"/><line style="stroke:#181818;stroke-width:0.5;" x1="344" x2="400" y1="799" y2="799"/><line style="stroke:#181818;stroke-width:0.5;" x1="400" x2="400" y1="799" y2="835.4883"/><text fill="#000000" font-family="sans-serif" font-size="14" lengthAdjust="spacing" textLength="26" x="359" y="822.5352">Pod</text></g><!--entity ins2--><g id="elem_ins2"><polygon fill="#F1F1F1" points="445,799,455,789,511,789,511,825.4883,501,835.4883,445,835.4883,445,799" style="stroke:#181818;stroke-width:0.5;"/><line style="stroke:#181818;stroke-width:0.5;" x1="501" x2="511" y1="799" y2="789"/><line style="stroke:#181818;stroke-width:0.5;" x1="445" x2="501" y1="799" y2="799"/><line style="stroke:#181818;stroke-width:0.5;" x1="501" x2="501" y1="799" y2="835.4883"/><text fill="#000000" font-family="sans-serif" font-size="14" lengthAdjust="spacing" textLength="26" x="460" y="822.5352">Pod</text></g><!--entity k8s_m--><g id="elem_k8s_m"><polygon fill="#F1F1F1" points="318,493,328,483,436,483,436,552.4648,426,562.4648,318,562.4648,318,493" style="stroke:#181818;stroke-width:0.5;"/><line style="stroke:#181818;stroke-width:0.5;" x1="426" x2="436" y1="493" y2="483"/><line style="stroke:#181818;stroke-width:0.5;" x1="318" x2="426" y1="493" y2="493"/><line style="stroke:#181818;stroke-width:0.5;" x1="426" x2="426" y1="493" y2="562.4648"/><text fill="#000000" font-family="sans-serif" font-size="14" lengthAdjust="spacing" textLength="78" x="333" y="516.5352">Kubernetes</text><text fill="#000000" font-family="sans-serif" font-size="14" lengthAdjust="spacing" textLength="49" x="333" y="533.0234">Cluster</text><text fill="#000000" font-family="sans-serif" font-size="14" lengthAdjust="spacing" textLength="56" x="333" y="549.5117">(Master)</text></g><!--link client to serv--><g id="link_client_serv"><path d="M107,88.39 C107,127.22 107,200.61 107,239.51 " fill="none" id="client-to-serv" style="stroke:#181818;stroke-width:1.0;"/><polygon fill="#181818" points="107,245.51,111,236.51,107,240.51,103,236.51,107,245.51" style="stroke:#181818;stroke-width:1.0;"/><text fill="#000000" font-family="sans-serif" font-size="13" lengthAdjust="spacing" textLength="66" x="108" y="133.5684">1. Request</text><text fill="#000000" font-family="sans-serif" font-size="13" lengthAdjust="spacing" textLength="61" x="112.5" y="148.8789">scale VNF</text></g><!--link serv to cond--><g id="link_serv_cond"><path d="M107,292.3 C107,315.65 107,346.11 107,369.53 " fill="none" id="serv-to-cond" style="stroke:#181818;stroke-width:1.0;"/><polygon fill="#181818" points="107,375.53,111,366.53,107,370.53,103,366.53,107,375.53" style="stroke:#181818;stroke-width:1.0;"/></g><!--link cond to infra--><g id="link_cond_infra"><path d="M107,422.28 C107,441.47 107,463.34 107,484.66 " fill="none" id="cond-to-infra" style="stroke:#181818;stroke-width:1.0;"/><polygon fill="#181818" points="107,490.66,111,481.66,107,485.66,103,481.66,107,490.66" style="stroke:#181818;stroke-width:1.0;"/></g><!--link infra to k8s_m--><g id="link_infra_k8s_m"><path d="M167.26,522.5 C212.17,522.5 267.21,522.5 311.86,522.5 " fill="none" id="infra-to-k8s_m" style="stroke:#181818;stroke-width:1.0;"/><polygon fill="#181818" points="317.86,522.5,308.86,518.5,312.86,522.5,308.86,526.5,317.86,522.5" style="stroke:#181818;stroke-width:1.0;"/><text fill="#000000" font-family="sans-serif" font-size="13" lengthAdjust="spacing" textLength="114" x="185.5" y="501.0684">2. Call Kubernetes</text><text fill="#000000" font-family="sans-serif" font-size="13" lengthAdjust="spacing" textLength="20" x="234.5" y="516.3789">API</text></g><!--link k8s_m to ins1--><g id="link_k8s_m_ins1"><path d="M377,562.27 C377,623.28 377,733.73 377,782.57 " fill="none" id="k8s_m-to-ins1" style="stroke:#181818;stroke-width:1.0;"/><polygon fill="#181818" points="377,788.57,381,779.57,377,783.57,373,779.57,377,788.57" style="stroke:#181818;stroke-width:1.0;"/><text fill="#000000" font-family="sans-serif" font-size="13" lengthAdjust="spacing" textLength="87" x="378" y="623.5684">3. Change the</text><text fill="#000000" font-family="sans-serif" font-size="13" lengthAdjust="spacing" textLength="65" x="391" y="638.8789">number of</text><text fill="#000000" font-family="sans-serif" font-size="13" lengthAdjust="spacing" textLength="30" x="408.5" y="654.1895">Pods</text></g><!--link ins1 to ins2--><!--SRC=[VL5DImCn4BtdLmphGJsaq7gHFGXI44MKua4FLYGcqoOqczHyM4JwtyqcktGLrps4oRpt9k_DhXnh4AhjPv3MqC3u1XtN2aseu8j0-hXjjjQa1bG5fZtEF9IIx0bPbK65Cgxrw3uE-2zE3wR1RPaf-p4JreZ8WnsRDS1Rd-ds5-islg4p6D0lZJ8f0nLEzHvoepEH4XehyATYhgCFw9Rcv8wrnMcMRSxzQqEujb50TSsSs367y83UHiVHPuxSTQx_6_fatMOuT3T8MdGBApgdVZeEpGuPoF5HSg9PKDPugRQUb3y8b5xadTSmdIJ6UqGVbWOyPnhXyVwAj61cvLMsHxwL7UKJg5Dh6L8pRw26sGJcJ6iOfeFBnGt9U2VtqnhE4b4oiqO84XF7n2OfmAvIdN9uqjA0Faib19gN_faSxHi0]--></g></svg>