<?xml version="1.0" encoding="us-ascii" standalone="no"?><svg xmlns="http://www.w3.org/2000/svg" xmlns:xlink="http://www.w3.org/1999/xlink" contentStyleType="text/css" height="771px" preserveAspectRatio="none" style="width:529px;height:771px;background:#FFFFFF;" version="1.1" viewBox="0 0 529 771" width="529px" zoomAndPan="magnify"><defs/><g><!--cluster python-tackerclient--><g id="cluster_python-tackerclient"><rect fill="none" height="97" rx="2.5" ry="2.5" style="stroke:#181818;stroke-width:1.0;" width="160" x="27" y="7"/><path d="M180,7 L180,16.4883 L170,26.4883 L27,26.4883 " fill="none" style="stroke:#181818;stroke-width:1.0;"/><text fill="#000000" font-family="sans-serif" font-size="14" font-weight="bold" lengthAdjust="spacing" textLength="143" x="30" y="21.5352">python-tackerclient</text></g><!--cluster tacker--><g id="cluster_tacker"><rect fill="none" height="418" rx="2.5" ry="2.5" style="stroke:#181818;stroke-width:1.0;" width="200" x="7" y="168"/><path d="M61,168 L61,177.4883 L51,187.4883 L7,187.4883 " fill="none" style="stroke:#181818;stroke-width:1.0;"/><text fill="#000000" font-family="sans-serif" font-size="14" font-weight="bold" lengthAdjust="spacing" textLength="44" x="10" y="182.5352">tacker</text></g><!--cluster tacker-server--><g id="cluster_tacker-server"><rect fill="none" height="97" rx="2.5" ry="2.5" style="stroke:#181818;stroke-width:1.0;" width="114" x="50" y="211"/><rect fill="none" height="10" style="stroke:#181818;stroke-width:1.0;" width="15" x="144" y="216"/><rect fill="none" height="2" style="stroke:#181818;stroke-width:1.0;" width="4" x="142" y="218"/><rect fill="none" height="2" style="stroke:#181818;stroke-width:1.0;" width="4" x="142" y="222"/><text fill="#000000" font-family="sans-serif" font-size="14" font-weight="bold" lengthAdjust="spacing" textLength="97" x="58.5" y="237.5352">tacker-server</text></g><!--cluster tacker-conductor--><g id="cluster_tacker-conductor"><rect fill="none" height="221" rx="2.5" ry="2.5" style="stroke:#181818;stroke-width:1.0;" width="152" x="31" y="341"/><rect fill="none" height="10" style="stroke:#181818;stroke-width:1.0;" width="15" x="163" y="346"/><rect fill="none" height="2" style="stroke:#181818;stroke-width:1.0;" width="4" x="161" y="348"/><rect fill="none" height="2" style="stroke:#181818;stroke-width:1.0;" width="4" x="161" y="352"/><text fill="#000000" font-family="sans-serif" font-size="14" font-weight="bold" lengthAdjust="spacing" textLength="124" x="45" y="367.5352">tacker-conductor</text></g><!--cluster hw--><g id="cluster_hw"><path d="M332.1367,673.2097 C336.4308,666.6273 342.0585,666.21 346.5831,672.96 C349.8738,668.7141 353.5999,668.8253 356.8634,672.9931 C360.7573,666.7354 366.9192,666.5917 370.1487,673.6557 C372.8162,667.4205 378.5535,666.8636 382.0771,672.818 C384.9936,666.7215 391.0832,666.441 394.6034,672.179 C397.9493,665.3103 401.7554,664.7284 406.7628,670.5923 C410.2604,664.8871 416.4784,664.9478 419.5467,671.0568 C423.4795,665.8281 429.8917,665.0728 432.6835,672.2638 C435.9415,666.3224 440.6321,667.5094 443.9378,672.2134 C447.8531,665.4461 453.3916,665.6213 457.3734,672.1462 C460.8018,666.2627 465.667,667.3469 468.8111,672.4425 C473.6589,665.267 479.5707,666.3461 483.1501,673.6947 C486.0749,669.3963 491.0562,668.4563 493.5784,674.1163 C498.4856,669.3358 502.586,668.558 506.3989,675.3307 C513.9366,677.0842 516.7395,681.4658 511.2512,688.15 C519.1147,690.9138 519.7053,697.826 512.5489,701.9974 C520.5322,704.1589 522.5128,709.8052 516.3706,715.8607 C522.1736,720.1224 520.236,725.6637 514.1975,727.7634 C518.7216,734.157 519.2466,739.8964 509.9394,742.2145 C514.8161,748.4535 513.3635,752.5134 506.6451,755.9769 C503.5609,761.8112 497.4085,762.4232 493.9616,756.3638 C490.8421,761.6786 485.9063,762.0497 482.4924,756.6799 C478.5995,762.995 474.1884,763.9547 469.8003,757.1592 C466.1699,762.9183 460.1912,761.438 457.6307,755.9967 C453.9877,762.0884 449.3848,763.1574 444.6903,757.1183 C440.9642,763.5659 437.0923,762.1796 433.0282,757.4716 C430.0856,762.6259 425.2713,764.5384 421.3118,758.5398 C416.6657,763.7374 412.5263,764.058 408.4285,757.9168 C404.6572,764.7854 399.0917,764.009 395.6198,757.6275 C391.375,763.2347 387.5659,762.2353 383.7214,757.1807 C379.3452,762.4202 375.0738,763.5896 371.0141,756.8452 C367.675,763.0937 362.0233,763.0482 358.8656,756.6707 C352.9932,762.0172 348.6997,761.2313 344.88,754.3272 C341.6208,759.7538 336.9341,760.409 333.514,754.4884 C327.2501,752.033 327.0174,746.8886 331.5927,742.6711 C324.4445,739.2571 322.705,734.7803 328.201,728.368 C320.3139,725.6354 320.1508,719.0191 325.8922,714.0837 C320.2399,709.216 320.6383,704.6907 326.7188,700.5391 C321.8764,694.6105 323.5322,689.3089 331.3626,688.1183 C325.0431,683.7668 323.8434,676.8024 332.1367,673.2097 " fill="none" style="stroke:#181818;stroke-width:1.0;"/><text fill="#000000" font-family="sans-serif" font-size="14" font-weight="bold" lengthAdjust="spacing" textLength="146" x="346" y="691.5352">Hardware Resources</text></g><!--entity client--><g id="elem_client"><rect fill="#F1F1F1" height="46.4883" rx="2.5" ry="2.5" style="stroke:#181818;stroke-width:0.5;" width="127" x="43.5" y="42"/><rect fill="#F1F1F1" height="10" style="stroke:#181818;stroke-width:0.5;" width="15" x="150.5" y="47"/><rect fill="#F1F1F1" height="2" style="stroke:#181818;stroke-width:0.5;" width="4" x="148.5" y="49"/><rect fill="#F1F1F1" height="2" style="stroke:#181818;stroke-width:0.5;" width="4" x="148.5" y="53"/><text fill="#000000" font-family="sans-serif" font-size="14" lengthAdjust="spacing" textLength="87" x="58.5" y="75.5352">tacker-client</text></g><!--entity serv--><g id="elem_serv"><rect fill="#F1F1F1" height="46.4883" rx="2.5" ry="2.5" style="stroke:#181818;stroke-width:0.5;" width="82" x="66" y="246"/><rect fill="#F1F1F1" height="10" style="stroke:#181818;stroke-width:0.5;" width="15" x="128" y="251"/><rect fill="#F1F1F1" height="2" style="stroke:#181818;stroke-width:0.5;" width="4" x="126" y="253"/><rect fill="#F1F1F1" height="2" style="stroke:#181818;stroke-width:0.5;" width="4" x="126" y="257"/><text fill="#000000" font-family="sans-serif" font-size="14" lengthAdjust="spacing" textLength="42" x="81" y="279.5352">server</text></g><!--entity cond--><g id="elem_cond"><rect fill="#F1F1F1" height="46.4883" rx="2.5" ry="2.5" style="stroke:#181818;stroke-width:0.5;" width="110" x="52" y="376"/><rect fill="#F1F1F1" height="10" style="stroke:#181818;stroke-width:0.5;" width="15" x="142" y="381"/><rect fill="#F1F1F1" height="2" style="stroke:#181818;stroke-width:0.5;" width="4" x="140" y="383"/><rect fill="#F1F1F1" height="2" style="stroke:#181818;stroke-width:0.5;" width="4" x="140" y="387"/><text fill="#000000" font-family="sans-serif" font-size="14" lengthAdjust="spacing" textLength="70" x="67" y="409.5352">conductor</text></g><!--entity infra--><g id="elem_infra"><rect fill="#F1F1F1" height="62.9766" rx="2.5" ry="2.5" style="stroke:#181818;stroke-width:0.5;" width="120" x="47" y="483"/><rect fill="#F1F1F1" height="10" style="stroke:#181818;stroke-width:0.5;" width="15" x="147" y="488"/><rect fill="#F1F1F1" height="2" style="stroke:#181818;stroke-width:0.5;" width="4" x="145" y="490"/><rect fill="#F1F1F1" height="2" style="stroke:#181818;stroke-width:0.5;" width="4" x="145" y="494"/><text fill="#000000" font-family="sans-serif" font-size="14" lengthAdjust="spacing" textLength="73" x="62" y="516.5352">OpenStack</text><text fill="#000000" font-family="sans-serif" font-size="14" lengthAdjust="spacing" textLength="80" x="62" y="533.0234">infra-driver</text></g><!--entity ins1--><g id="elem_ins1"><polygon fill="#F1F1F1" points="340.5,710,350.5,700,401.5,700,401.5,736.4883,391.5,746.4883,340.5,746.4883,340.5,710" style="stroke:#181818;stroke-width:0.5;"/><line style="stroke:#181818;stroke-width:0.5;" x1="391.5" x2="401.5" y1="710" y2="700"/><line style="stroke:#181818;stroke-width:0.5;" x1="340.5" x2="391.5" y1="710" y2="710"/><line style="stroke:#181818;stroke-width:0.5;" x1="391.5" x2="391.5" y1="710" y2="746.4883"/><text fill="#000000" font-family="sans-serif" font-size="14" lengthAdjust="spacing" textLength="21" x="355.5" y="733.5352">VM</text></g><!--entity ins2--><g id="elem_ins2"><polygon fill="#F1F1F1" points="436.5,710,446.5,700,497.5,700,497.5,736.4883,487.5,746.4883,436.5,746.4883,436.5,710" style="stroke:#181818;stroke-width:0.5;"/><line style="stroke:#181818;stroke-width:0.5;" x1="487.5" x2="497.5" y1="710" y2="700"/><line style="stroke:#181818;stroke-width:0.5;" x1="436.5" x2="487.5" y1="710" y2="710"/><line style="stroke:#181818;stroke-width:0.5;" x1="487.5" x2="487.5" y1="710" y2="746.4883"/><text fill="#000000" font-family="sans-serif" font-size="14" lengthAdjust="spacing" textLength="21" x="451.5" y="733.5352">VM</text></g><!--entity heat--><g id="elem_heat"><polygon fill="#F1F1F1" points="314.5,493,324.5,483,427.5,483,427.5,535.9766,417.5,545.9766,314.5,545.9766,314.5,493" style="stroke:#181818;stroke-width:0.5;"/><line style="stroke:#181818;stroke-width:0.5;" x1="417.5" x2="427.5" y1="493" y2="483"/><line style="stroke:#181818;stroke-width:0.5;" x1="314.5" x2="417.5" y1="493" y2="493"/><line style="stroke:#181818;stroke-width:0.5;" x1="417.5" x2="417.5" y1="493" y2="545.9766"/><text fill="#000000" font-family="sans-serif" font-size="14" lengthAdjust="spacing" textLength="73" x="329.5" y="516.5352">OpenStack</text><text fill="#000000" font-family="sans-serif" font-size="14" lengthAdjust="spacing" textLength="31" x="329.5" y="533.0234">Heat</text></g><!--link client to serv--><g id="link_client_serv"><path d="M107,88.39 C107,127.22 107,200.61 107,239.51 " fill="none" id="client-to-serv" style="stroke:#181818;stroke-width:1.0;"/><polygon fill="#181818" points="107,245.51,111,236.51,107,240.51,103,236.51,107,245.51" style="stroke:#181818;stroke-width:1.0;"/><text fill="#000000" font-family="sans-serif" font-size="13" lengthAdjust="spacing" textLength="66" x="108" y="133.5684">1. Request</text><text fill="#000000" font-family="sans-serif" font-size="13" lengthAdjust="spacing" textLength="61" x="112.5" y="148.8789">scale VNF</text></g><!--link serv to cond--><g id="link_serv_cond"><path d="M107,292.3 C107,315.65 107,346.11 107,369.53 " fill="none" id="serv-to-cond" style="stroke:#181818;stroke-width:1.0;"/><polygon fill="#181818" points="107,375.53,111,366.53,107,370.53,103,366.53,107,375.53" style="stroke:#181818;stroke-width:1.0;"/></g><!--link cond to infra--><g id="link_cond_infra"><path d="M107,422.42 C107,439.61 107,457.52 107,476.53 " fill="none" id="cond-to-infra" style="stroke:#181818;stroke-width:1.0;"/><polygon fill="#181818" points="107,482.53,111,473.53,107,477.53,103,473.53,107,482.53" style="stroke:#181818;stroke-width:1.0;"/></g><!--link infra to heat--><g id="link_infra_heat"><path d="M167.24,514.5 C211.37,514.5 264.88,514.5 308.19,514.5 " fill="none" id="infra-to-heat" style="stroke:#181818;stroke-width:1.0;"/><polygon fill="#181818" points="314.19,514.5,305.19,510.5,309.19,514.5,305.19,518.5,314.19,514.5" style="stroke:#181818;stroke-width:1.0;"/><text fill="#000000" font-family="sans-serif" font-size="13" lengthAdjust="spacing" textLength="111" x="185.25" y="493.0684">2. Call OpenStack</text><text fill="#000000" font-family="sans-serif" font-size="13" lengthAdjust="spacing" textLength="53" x="216.25" y="508.3789">Heat API</text></g><!--link heat to ins1--><g id="link_heat_ins1"><path d="M371,546.42 C371,588.49 371,656.79 371,693.78 " fill="none" id="heat-to-ins1" style="stroke:#181818;stroke-width:1.0;"/><polygon fill="#181818" points="371,699.78,375,690.78,371,694.78,367,690.78,371,699.78" style="stroke:#181818;stroke-width:1.0;"/><text fill="#000000" font-family="sans-serif" font-size="13" lengthAdjust="spacing" textLength="87" x="372" y="615.5684">3. Change the</text><text fill="#000000" font-family="sans-serif" font-size="13" lengthAdjust="spacing" textLength="65" x="385" y="630.8789">number of</text><text fill="#000000" font-family="sans-serif" font-size="13" lengthAdjust="spacing" textLength="26" x="404.5" y="646.1895">VMs</text></g><!--link ins1 to ins2--><!--SRC=[TL31IWCn4BtdAuRru2b2wwq7GGIfXweez68zn6JQ1BUJDSbQHFhlJf9ThDBc42RpNjwyD-kWjWXDzvMi9vcKViUWMuUK6lWMm4VxRUU96z1KM8wuYb1BiHTYNOKgvVJVYE7p5__76K4MpcMXx4-Py6HwdVmfhGCy- -JNCTP3X_IS5LVaY2D84zneeJG63noGlC4_7-QewX8i5qAtlZVGp5KmEnKGdZ3wFcYCbR8RN5QLvMAO42T7kzCyK9oViKghalCKhUkYgDi6AQ_AVcOmkM36HuynhGYYLYt2ylvMPB2mIknybLSDL6wGmMriucOsFuFf1ToejeM3U93pmVNZdSYKGI1EPd39NAjeWv0iCe_wxHi6y6kkbuieCWlaYtN68BsESqgg7m00]--></g></svg>