<?xml version="1.0" encoding="us-ascii" standalone="no"?><svg xmlns="http://www.w3.org/2000/svg" xmlns:xlink="http://www.w3.org/1999/xlink" contentStyleType="text/css" height="1177px" preserveAspectRatio="none" style="width:510px;height:1177px;background:#FFFFFF;" version="1.1" viewBox="0 0 510 1177" width="510px" zoomAndPan="magnify"><defs/><g><!--cluster python-tackerclient--><g id="cluster_python-tackerclient"><rect fill="none" height="270" rx="2.5" ry="2.5" style="stroke:#181818;stroke-width:1.0;" width="468" x="7" y="7"/><path d="M160,7 L160,16.4883 L150,26.4883 L7,26.4883 " fill="none" style="stroke:#181818;stroke-width:1.0;"/><text fill="#000000" font-family="sans-serif" font-size="14" font-weight="bold" lengthAdjust="spacing" textLength="143" x="10" y="21.5352">python-tackerclient</text></g><!--cluster client--><g id="cluster_client"><rect fill="none" height="203" rx="2.5" ry="2.5" style="stroke:#181818;stroke-width:1.0;" width="420" x="31" y="50"/><rect fill="none" height="10" style="stroke:#181818;stroke-width:1.0;" width="15" x="431" y="55"/><rect fill="none" height="2" style="stroke:#181818;stroke-width:1.0;" width="4" x="429" y="57"/><rect fill="none" height="2" style="stroke:#181818;stroke-width:1.0;" width="4" x="429" y="61"/><text fill="#000000" font-family="sans-serif" font-size="14" font-weight="bold" lengthAdjust="spacing" textLength="93" x="194.5" y="76.5352">tacker-client</text></g><!--cluster vnfpkg--><g id="cluster_vnfpkg"><path d="M174.5,101 L267.5,101 A3.75,3.75 0 0 1 270,103.5 L277,123.4883 L416.5,123.4883 A2.5,2.5 0 0 1 419,125.9883 L419,218.5 A2.5,2.5 0 0 1 416.5,221 L174.5,221 A2.5,2.5 0 0 1 172,218.5 L172,103.5 A2.5,2.5 0 0 1 174.5,101 " fill="none" style="stroke:#000000;stroke-width:1.5;"/><line style="stroke:#000000;stroke-width:1.5;" x1="172" x2="277" y1="123.4883" y2="123.4883"/><text fill="#000000" font-family="sans-serif" font-size="14" font-weight="bold" lengthAdjust="spacing" textLength="92" x="176" y="116.5352">VNF Package</text></g><!--cluster tacker--><g id="cluster_tacker"><rect fill="none" height="418" rx="2.5" ry="2.5" style="stroke:#181818;stroke-width:1.0;" width="200" x="41" y="341"/><path d="M95,341 L95,350.4883 L85,360.4883 L41,360.4883 " fill="none" style="stroke:#181818;stroke-width:1.0;"/><text fill="#000000" font-family="sans-serif" font-size="14" font-weight="bold" lengthAdjust="spacing" textLength="44" x="44" y="355.5352">tacker</text></g><!--cluster tacker-server--><g id="cluster_tacker-server"><rect fill="none" height="97" rx="2.5" ry="2.5" style="stroke:#181818;stroke-width:1.0;" width="114" x="84" y="384"/><rect fill="none" height="10" style="stroke:#181818;stroke-width:1.0;" width="15" x="178" y="389"/><rect fill="none" height="2" style="stroke:#181818;stroke-width:1.0;" width="4" x="176" y="391"/><rect fill="none" height="2" style="stroke:#181818;stroke-width:1.0;" width="4" x="176" y="395"/><text fill="#000000" font-family="sans-serif" font-size="14" font-weight="bold" lengthAdjust="spacing" textLength="97" x="92.5" y="410.5352">tacker-server</text></g><!--cluster tacker-conductor--><g id="cluster_tacker-conductor"><rect fill="none" height="221" rx="2.5" ry="2.5" style="stroke:#181818;stroke-width:1.0;" width="152" x="65" y="514"/><rect fill="none" height="10" style="stroke:#181818;stroke-width:1.0;" width="15" x="197" y="519"/><rect fill="none" height="2" style="stroke:#181818;stroke-width:1.0;" width="4" x="195" y="521"/><rect fill="none" height="2" style="stroke:#181818;stroke-width:1.0;" width="4" x="195" y="525"/><text fill="#000000" font-family="sans-serif" font-size="14" font-weight="bold" lengthAdjust="spacing" textLength="124" x="79" y="540.5352">tacker-conductor</text></g><!--cluster hw--><g id="cluster_hw"><path d="M308.8908,972.9874 C312.7674,964.2209 318.5551,963.4676 324.5596,970.9334 C328.3574,964.29 333.1625,963.5992 337.9397,969.9228 C341.0817,962.6129 348.1006,962.1394 352.9183,968.0199 C357.5863,959.7766 362.2073,960.7761 367.5245,967.3814 C371.0777,959.9187 377.7356,959.7268 382.7441,965.7377 C387.2014,957.2121 392.6261,957.4345 397.9653,964.8981 C401.4424,959.7207 407.4153,959.2167 410.161,965.6653 C415.319,958.0326 421.221,958.4303 425.0865,966.866 C430.3485,959.7952 437.5123,961.4581 440.2477,969.4149 C445.7316,963.3945 450.4644,963.5207 454.222,971.1786 C460.4715,963.5454 465.6191,965.386 470.0171,973.086 C478.4397,966.8426 486.4355,968.8281 490,979 C490.9855,978.7498 491.5897,979.3924 491.218,980.3588 C497.3041,984.2584 498.0887,989.6024 492.3266,994.4352 C499.8559,998.0448 500.2928,1004.7629 493.04,1009.0921 C500.1462,1013.1066 498.6386,1019.6923 492.4271,1023.125 C499.2288,1027.5749 500.4506,1032.7911 493.6563,1038.3395 C500.2228,1040.9417 501.1826,1045.9954 495.9034,1050.7435 C503.6853,1055.9232 503.7997,1061.9001 496.0956,1067.2601 C501.9082,1071.3267 500.9747,1076.598 495.0109,1079.6321 C502.414,1085.8366 500.8858,1091.6069 493.1245,1096.0713 C500.7712,1099.6853 500.6348,1104.4826 494.2807,1109.3186 C500.456,1114.2561 500.2557,1119.4165 493.0663,1123.1835 C500.5863,1127.785 500.3611,1134.2411 492.4452,1138.2043 C500.1335,1148.2466 495.5758,1157.6264 483,1158 C483.9976,1157.9175 484.4691,1158.581 483.9228,1159.4686 C479.7122,1164.8658 474.6117,1164.7902 470.7154,1159.0943 C467.3121,1167.0783 461.0028,1166.4607 456.2003,1160.5567 C451.9826,1168.7182 443.8012,1169.065 439.5138,1160.6269 C436.1618,1168.1756 430.5761,1168.1093 425.6475,1162.2585 C422.0295,1169.5864 415.0893,1170.5762 410.8702,1162.8486 C406.557,1169.949 399.9552,1169.133 397.1707,1161.4336 C391.4078,1168.4433 386.506,1167.6958 381.079,1161.0381 C377.7668,1166.8289 372.6929,1167.2909 368.1298,1162.5806 C362.3252,1170.0062 357.6573,1168.1875 353.119,1161.2566 C347.684,1167.2814 343.0027,1166.6782 339.4576,1159.3265 C334.5154,1166.8192 327.7835,1167.1384 322.9465,1159.2137 C313.0557,1168.6832 302.2187,1164.7019 301,1151 C301.5765,1150.2245 302.0528,1150.3092 302.5474,1151.0818 C295.9227,1148.1437 294.7837,1141.747 301.5109,1137.7694 C294.0694,1133.8965 293.7242,1126.9297 301.2702,1122.8154 C295.7149,1117.7836 295.4119,1112.9612 302.6385,1109.2154 C295.1457,1105.6044 294.8554,1099.4407 300.8361,1094.2112 C294.946,1089.8703 294.2037,1082.9198 302.1999,1079.9023 C295.7688,1075.3749 296.1513,1071.3445 301.9979,1066.6303 C294.249,1062.6004 294.5743,1056.3274 301.96,1052.2576 C294.471,1046.9453 295.241,1042.1816 301.6938,1036.6318 C293.9515,1032.402 294.8129,1027.758 301.0492,1022.8733 C294.9132,1018.4381 295.2364,1010.8664 302.5292,1007.7449 C297.1682,1003.8967 296.6921,1000.3118 301.7843,995.811 C291.1257,986.3578 294.1823,975.0639 308,972 C308.7886,971.8554 309.1274,972.2072 308.8908,972.9874 " fill="none" style="stroke:#181818;stroke-width:1.0;"/><text fill="#000000" font-family="sans-serif" font-size="14" font-weight="bold" lengthAdjust="spacing" textLength="146" x="322.5" y="990.5352">Hardware Resources</text></g><!--cluster k8s_w--><g id="cluster_k8s_w"><polygon fill="none" points="317,1017,327,1007,474,1007,474,1132,464,1142,317,1142,317,1017" style="stroke:#181818;stroke-width:1.0;"/><line style="stroke:#181818;stroke-width:1.0;" x1="464" x2="474" y1="1017" y2="1007"/><line style="stroke:#181818;stroke-width:1.0;" x1="317" x2="464" y1="1017" y2="1017"/><line style="stroke:#181818;stroke-width:1.0;" x1="464" x2="464" y1="1017" y2="1142"/><text fill="#000000" font-family="sans-serif" font-size="14" font-weight="bold" lengthAdjust="spacing" textLength="81" x="351" y="1033.5352">Kubernetes</text><text fill="#000000" font-family="sans-serif" font-size="14" font-weight="bold" lengthAdjust="spacing" textLength="52" x="365.5" y="1050.0234">Cluster</text><text fill="#000000" font-family="sans-serif" font-size="14" font-weight="bold" lengthAdjust="spacing" textLength="61" x="361" y="1066.5117">(Worker)</text></g><!--entity inst_param--><g id="elem_inst_param"><path d="M47,146.5 L47,194.4766 A2.5,2.5 0 0 0 49.5,196.9766 L142.5,196.9766 A2.5,2.5 0 0 0 145,194.4766 L145,154 L135,144 L49.5,144 A2.5,2.5 0 0 0 47,146.5 " fill="#F1F1F1" style="stroke:#181818;stroke-width:0.5;"/><path d="M135,144 L135,151.5 A2.5,2.5 0 0 0 137.5,154 L145,154 " fill="#F1F1F1" style="stroke:#181818;stroke-width:0.5;"/><text fill="#000000" font-family="sans-serif" font-size="14" lengthAdjust="spacing" textLength="72" x="57" y="167.5352">Instantiate</text><text fill="#000000" font-family="sans-serif" font-size="14" lengthAdjust="spacing" textLength="78" x="57" y="184.0234">parameters</text></g><!--entity vnfd--><g id="elem_vnfd"><path d="M337.5,155 L337.5,186.4883 A2.5,2.5 0 0 0 340,188.9883 L392,188.9883 A2.5,2.5 0 0 0 394.5,186.4883 L394.5,162.5 L384.5,152.5 L340,152.5 A2.5,2.5 0 0 0 337.5,155 " fill="#F1F1F1" style="stroke:#181818;stroke-width:0.5;"/><path d="M384.5,152.5 L384.5,160 A2.5,2.5 0 0 0 387,162.5 L394.5,162.5 " fill="#F1F1F1" style="stroke:#181818;stroke-width:0.5;"/><text fill="#000000" font-family="sans-serif" font-size="14" lengthAdjust="spacing" textLength="37" x="347.5" y="176.0352">VNFD</text></g><!--entity cnfd--><g id="elem_cnfd"><path d="M215.5,146.5 L215.5,194.4766 A2.5,2.5 0 0 0 218,196.9766 L300,196.9766 A2.5,2.5 0 0 0 302.5,194.4766 L302.5,154 L292.5,144 L218,144 A2.5,2.5 0 0 0 215.5,146.5 " fill="#F1F1F1" style="stroke:#181818;stroke-width:0.5;"/><path d="M292.5,144 L292.5,151.5 A2.5,2.5 0 0 0 295,154 L302.5,154 " fill="#F1F1F1" style="stroke:#181818;stroke-width:0.5;"/><text fill="#000000" font-family="sans-serif" font-size="14" lengthAdjust="spacing" textLength="28" x="225.5" y="167.5352">CNF</text><text fill="#000000" font-family="sans-serif" font-size="14" lengthAdjust="spacing" textLength="67" x="225.5" y="184.0234">Definition</text></g><!--entity serv--><g id="elem_serv"><rect fill="#F1F1F1" height="46.4883" rx="2.5" ry="2.5" style="stroke:#181818;stroke-width:0.5;" width="82" x="100" y="419"/><rect fill="#F1F1F1" height="10" style="stroke:#181818;stroke-width:0.5;" width="15" x="162" y="424"/><rect fill="#F1F1F1" height="2" style="stroke:#181818;stroke-width:0.5;" width="4" x="160" y="426"/><rect fill="#F1F1F1" height="2" style="stroke:#181818;stroke-width:0.5;" width="4" x="160" y="430"/><text fill="#000000" font-family="sans-serif" font-size="14" lengthAdjust="spacing" textLength="42" x="115" y="452.5352">server</text></g><!--entity cond--><g id="elem_cond"><rect fill="#F1F1F1" height="46.4883" rx="2.5" ry="2.5" style="stroke:#181818;stroke-width:0.5;" width="110" x="86" y="549"/><rect fill="#F1F1F1" height="10" style="stroke:#181818;stroke-width:0.5;" width="15" x="176" y="554"/><rect fill="#F1F1F1" height="2" style="stroke:#181818;stroke-width:0.5;" width="4" x="174" y="556"/><rect fill="#F1F1F1" height="2" style="stroke:#181818;stroke-width:0.5;" width="4" x="174" y="560"/><text fill="#000000" font-family="sans-serif" font-size="14" lengthAdjust="spacing" textLength="70" x="101" y="582.5352">conductor</text></g><!--entity infra--><g id="elem_infra"><rect fill="#F1F1F1" height="62.9766" rx="2.5" ry="2.5" style="stroke:#181818;stroke-width:0.5;" width="120" x="81" y="656"/><rect fill="#F1F1F1" height="10" style="stroke:#181818;stroke-width:0.5;" width="15" x="181" y="661"/><rect fill="#F1F1F1" height="2" style="stroke:#181818;stroke-width:0.5;" width="4" x="179" y="663"/><rect fill="#F1F1F1" height="2" style="stroke:#181818;stroke-width:0.5;" width="4" x="179" y="667"/><text fill="#000000" font-family="sans-serif" font-size="14" lengthAdjust="spacing" textLength="35" x="96" y="689.5352">Helm</text><text fill="#000000" font-family="sans-serif" font-size="14" lengthAdjust="spacing" textLength="80" x="96" y="706.0234">infra-driver</text></g><!--entity ins1--><g id="elem_ins1"><polygon fill="#F1F1F1" points="355,1090,365,1080,421,1080,421,1116.4883,411,1126.4883,355,1126.4883,355,1090" style="stroke:#181818;stroke-width:0.5;"/><line style="stroke:#181818;stroke-width:0.5;" x1="411" x2="421" y1="1090" y2="1080"/><line style="stroke:#181818;stroke-width:0.5;" x1="355" x2="411" y1="1090" y2="1090"/><line style="stroke:#181818;stroke-width:0.5;" x1="411" x2="411" y1="1090" y2="1126.4883"/><text fill="#000000" font-family="sans-serif" font-size="14" lengthAdjust="spacing" textLength="26" x="370" y="1113.5352">Pod</text></g><!--entity Helm--><g id="elem_Helm"><polygon fill="#F1F1F1" points="103.5,848.5,113.5,838.5,178.5,838.5,178.5,874.9883,168.5,884.9883,103.5,884.9883,103.5,848.5" style="stroke:#181818;stroke-width:0.5;"/><line style="stroke:#181818;stroke-width:0.5;" x1="168.5" x2="178.5" y1="848.5" y2="838.5"/><line style="stroke:#181818;stroke-width:0.5;" x1="103.5" x2="168.5" y1="848.5" y2="848.5"/><line style="stroke:#181818;stroke-width:0.5;" x1="168.5" x2="168.5" y1="848.5" y2="884.9883"/><text fill="#000000" font-family="sans-serif" font-size="14" lengthAdjust="spacing" textLength="35" x="118.5" y="872.0352">Helm</text></g><!--entity k8s_m--><g id="elem_k8s_m"><polygon fill="#F1F1F1" points="329,832,339,822,447,822,447,891.4648,437,901.4648,329,901.4648,329,832" style="stroke:#181818;stroke-width:0.5;"/><line style="stroke:#181818;stroke-width:0.5;" x1="437" x2="447" y1="832" y2="822"/><line style="stroke:#181818;stroke-width:0.5;" x1="329" x2="437" y1="832" y2="832"/><line style="stroke:#181818;stroke-width:0.5;" x1="437" x2="437" y1="832" y2="901.4648"/><text fill="#000000" font-family="sans-serif" font-size="14" lengthAdjust="spacing" textLength="78" x="344" y="855.5352">Kubernetes</text><text fill="#000000" font-family="sans-serif" font-size="14" lengthAdjust="spacing" textLength="49" x="344" y="872.0234">Cluster</text><text fill="#000000" font-family="sans-serif" font-size="14" lengthAdjust="spacing" textLength="56" x="344" y="888.5117">(Master)</text></g><!--link vnfpkg to serv--><g id="link_vnfpkg_serv"><path d="M179.4744,221.124 C179.4548,221.8606 179.4345,222.6017 179.4135,223.347 C179.3716,224.8374 179.3268,226.3444 179.2792,227.8658 C179.0886,233.9513 178.8512,240.2664 178.5558,246.6691 C177.965,259.4744 177.1425,272.63 176,285 C171.53,333.37 158.5186,382.7555 149.6486,412.8055 " fill="none" id="vnfpkg-to-serv" style="stroke:#181818;stroke-width:1.0;"/><polygon fill="#181818" points="147.95,418.56,154.3343,411.0606,149.3655,413.7645,146.6615,408.7958,147.95,418.56" style="stroke:#181818;stroke-width:1.0;"/><text fill="#000000" font-family="sans-serif" font-size="13" lengthAdjust="spacing" textLength="66" x="178.5" y="306.5684">1. Request</text><text fill="#000000" font-family="sans-serif" font-size="13" lengthAdjust="spacing" textLength="67" x="180" y="321.8789">create VNF</text></g><!--link inst_param to serv--><g id="link_inst_param_serv"><path d="M81.54,197.35 C66.25,228.11 46.12,280.87 60,325 C71.57,361.79 95.386,392.6385 115.186,414.4385 " fill="none" id="inst_param-to-serv" style="stroke:#181818;stroke-width:1.0;"/><polygon fill="#181818" points="119.22,418.88,116.13,409.5284,115.8583,415.1788,110.208,414.9071,119.22,418.88" style="stroke:#181818;stroke-width:1.0;"/><text fill="#000000" font-family="sans-serif" font-size="13" lengthAdjust="spacing" textLength="66" x="78" y="306.5684">2. Request</text><text fill="#000000" font-family="sans-serif" font-size="13" lengthAdjust="spacing" textLength="96" x="65" y="321.8789">instantiate VNF</text></g><!--link serv to cond--><g id="link_serv_cond"><path d="M141,465.3 C141,488.65 141,519.11 141,542.53 " fill="none" id="serv-to-cond" style="stroke:#181818;stroke-width:1.0;"/><polygon fill="#181818" points="141,548.53,145,539.53,141,543.53,137,539.53,141,548.53" style="stroke:#181818;stroke-width:1.0;"/></g><!--link cond to infra--><g id="link_cond_infra"><path d="M141,595.42 C141,612.61 141,630.52 141,649.53 " fill="none" id="cond-to-infra" style="stroke:#181818;stroke-width:1.0;"/><polygon fill="#181818" points="141,655.53,145,646.53,141,650.53,137,646.53,141,655.53" style="stroke:#181818;stroke-width:1.0;"/></g><!--link infra to Helm--><g id="link_infra_Helm"><path d="M141,719.25 C141,753.46 141,801.89 141,832.22 " fill="none" id="infra-to-Helm" style="stroke:#181818;stroke-width:1.0;"/><polygon fill="#181818" points="141,838.22,145,829.22,141,833.22,137,829.22,141,838.22" style="stroke:#181818;stroke-width:1.0;"/><text fill="#000000" font-family="sans-serif" font-size="13" lengthAdjust="spacing" textLength="168" x="142" y="788.5684">3. Execute Helm command</text></g><!--link Helm to k8s_m--><g id="link_Helm_k8s_m"><path d="M178.78,861.5 C218.65,861.5 276.03,861.5 322.59,861.5 " fill="none" id="Helm-to-k8s_m" style="stroke:#181818;stroke-width:1.0;"/><polygon fill="#181818" points="328.59,861.5,319.59,857.5,323.59,861.5,319.59,865.5,328.59,861.5" style="stroke:#181818;stroke-width:1.0;"/><text fill="#000000" font-family="sans-serif" font-size="13" lengthAdjust="spacing" textLength="114" x="196.75" y="840.0684">4. Call Kubernetes</text><text fill="#000000" font-family="sans-serif" font-size="13" lengthAdjust="spacing" textLength="20" x="245.75" y="855.3789">API</text></g><!--link k8s_m to ins1--><g id="link_k8s_m_ins1"><path d="M388,901.25 C388,951.82 388,1032.68 388,1073.53 " fill="none" id="k8s_m-to-ins1" style="stroke:#181818;stroke-width:1.0;"/><polygon fill="#181818" points="388,1079.53,392,1070.53,388,1074.53,384,1070.53,388,1079.53" style="stroke:#181818;stroke-width:1.0;"/><text fill="#000000" font-family="sans-serif" font-size="13" lengthAdjust="spacing" textLength="94" x="389" y="944.5684">5. Create a Pod</text></g><!--SRC=[VPBVIyCm4CVVyrSSzK5zw63-0Dc389l38OxXWxuKHcpJBRIzr2JT5F5_zvAqjCfc7a8kzxcxtFUIQru9YEfFkrKOMvuMGgUb56WZ-690ArLLhP0k80hkkFDp0-7OacxLXF0DPNnPpc4L34_kCA-BpO1qAvTbG6STantmJvVp16SYboYjL1WA3z5lzZjWWSPoj99RaM3DNOjMQEC39VdM_ew5q6_6yY12QEzutqReNU__mtHEAk6Eh7_N0G4LPargrR5S0xzhbQn3r8CegmGbqklZJCkkkh_eUqELYS16dV7Ol0cD98b9S5esXhH9yEo9kyEvpr7Sc7N5qb8r6SLodUsv5l0iZ6fqAeAGsttx-F-IlYfT39Fk1ms7k9NAkhcC-rUVdb2rahjncwsi3Mk_JnpVUdadC1uHyTu8OnE4L0kQDT17Olry1_3549Rzx_0H3l6i5zfjtWew-jtRJi89N8xW_aEa3SMw2pUFYbEODs8jDrjBhDTl0bSZcFAoXA4sSBTQCEzlgvZn1Au932rm847O3m00]--></g></svg>