<?xml version="1.0" encoding="us-ascii" standalone="no"?><svg xmlns="http://www.w3.org/2000/svg" xmlns:xlink="http://www.w3.org/1999/xlink" contentStyleType="text/css" height="1029px" preserveAspectRatio="none" style="width:515px;height:1029px;background:#FFFFFF;" version="1.1" viewBox="0 0 515 1029" width="515px" zoomAndPan="magnify"><defs/><g><!--cluster python-tackerclient--><g id="cluster_python-tackerclient"><rect fill="none" height="270" rx="2.5" ry="2.5" style="stroke:#181818;stroke-width:1.0;" width="468" x="18" y="7"/><path d="M171,7 L171,16.4883 L161,26.4883 L18,26.4883 " fill="none" style="stroke:#181818;stroke-width:1.0;"/><text fill="#000000" font-family="sans-serif" font-size="14" font-weight="bold" lengthAdjust="spacing" textLength="143" x="21" y="21.5352">python-tackerclient</text></g><!--cluster client--><g id="cluster_client"><rect fill="none" height="203" rx="2.5" ry="2.5" style="stroke:#181818;stroke-width:1.0;" width="420" x="42" y="50"/><rect fill="none" height="10" style="stroke:#181818;stroke-width:1.0;" width="15" x="442" y="55"/><rect fill="none" height="2" style="stroke:#181818;stroke-width:1.0;" width="4" x="440" y="57"/><rect fill="none" height="2" style="stroke:#181818;stroke-width:1.0;" width="4" x="440" y="61"/><text fill="#000000" font-family="sans-serif" font-size="14" font-weight="bold" lengthAdjust="spacing" textLength="93" x="205.5" y="76.5352">tacker-client</text></g><!--cluster vnfpkg--><g id="cluster_vnfpkg"><path d="M185.5,101 L278.5,101 A3.75,3.75 0 0 1 281,103.5 L288,123.4883 L427.5,123.4883 A2.5,2.5 0 0 1 430,125.9883 L430,218.5 A2.5,2.5 0 0 1 427.5,221 L185.5,221 A2.5,2.5 0 0 1 183,218.5 L183,103.5 A2.5,2.5 0 0 1 185.5,101 " fill="none" style="stroke:#000000;stroke-width:1.5;"/><line style="stroke:#000000;stroke-width:1.5;" x1="183" x2="288" y1="123.4883" y2="123.4883"/><text fill="#000000" font-family="sans-serif" font-size="14" font-weight="bold" lengthAdjust="spacing" textLength="92" x="187" y="116.5352">VNF Package</text></g><!--cluster tacker--><g id="cluster_tacker"><rect fill="none" height="426" rx="2.5" ry="2.5" style="stroke:#181818;stroke-width:1.0;" width="200" x="7" y="341"/><path d="M61,341 L61,350.4883 L51,360.4883 L7,360.4883 " fill="none" style="stroke:#181818;stroke-width:1.0;"/><text fill="#000000" font-family="sans-serif" font-size="14" font-weight="bold" lengthAdjust="spacing" textLength="44" x="10" y="355.5352">tacker</text></g><!--cluster tacker-server--><g id="cluster_tacker-server"><rect fill="none" height="97" rx="2.5" ry="2.5" style="stroke:#181818;stroke-width:1.0;" width="114" x="50" y="384"/><rect fill="none" height="10" style="stroke:#181818;stroke-width:1.0;" width="15" x="144" y="389"/><rect fill="none" height="2" style="stroke:#181818;stroke-width:1.0;" width="4" x="142" y="391"/><rect fill="none" height="2" style="stroke:#181818;stroke-width:1.0;" width="4" x="142" y="395"/><text fill="#000000" font-family="sans-serif" font-size="14" font-weight="bold" lengthAdjust="spacing" textLength="97" x="58.5" y="410.5352">tacker-server</text></g><!--cluster tacker-conductor--><g id="cluster_tacker-conductor"><rect fill="none" height="229" rx="2.5" ry="2.5" style="stroke:#181818;stroke-width:1.0;" width="152" x="31" y="514"/><rect fill="none" height="10" style="stroke:#181818;stroke-width:1.0;" width="15" x="163" y="519"/><rect fill="none" height="2" style="stroke:#181818;stroke-width:1.0;" width="4" x="161" y="521"/><rect fill="none" height="2" style="stroke:#181818;stroke-width:1.0;" width="4" x="161" y="525"/><text fill="#000000" font-family="sans-serif" font-size="14" font-weight="bold" lengthAdjust="spacing" textLength="124" x="45" y="540.5352">tacker-conductor</text></g><!--cluster hw--><g id="cluster_hw"><path d="M313.8908,824.9874 C317.7674,816.2209 323.5551,815.4676 329.5596,822.9334 C333.3574,816.29 338.1625,815.5992 342.9397,821.9228 C346.0817,814.6129 353.1006,814.1394 357.9183,820.0199 C362.5863,811.7766 367.2073,812.7761 372.5245,819.3814 C376.0777,811.9187 382.7356,811.7268 387.7441,817.7377 C392.2014,809.2121 397.6261,809.4345 402.9653,816.8981 C406.4424,811.7207 412.4153,811.2167 415.161,817.6653 C420.319,810.0326 426.221,810.4303 430.0865,818.866 C435.3485,811.7952 442.5123,813.4581 445.2477,821.4149 C450.7316,815.3945 455.4644,815.5207 459.222,823.1786 C465.4715,815.5454 470.6191,817.386 475.0171,825.086 C483.4397,818.8426 491.4355,820.8281 495,831 C495.9855,830.7498 496.5897,831.3924 496.218,832.3588 C502.3041,836.2584 503.0887,841.6024 497.3266,846.4352 C504.8559,850.0448 505.2928,856.7629 498.04,861.0921 C505.1462,865.1066 503.6386,871.6923 497.4271,875.125 C504.2288,879.5749 505.4506,884.7911 498.6563,890.3395 C505.2228,892.9417 506.1826,897.9954 500.9034,902.7435 C508.6853,907.9232 508.7997,913.9001 501.0956,919.2601 C506.9082,923.3267 505.9747,928.598 500.0109,931.6321 C507.414,937.8366 505.8858,943.6069 498.1245,948.0713 C505.7712,951.6853 505.6348,956.4826 499.2807,961.3186 C505.456,966.2561 505.2557,971.4165 498.0663,975.1835 C505.5863,979.785 505.3611,986.2411 497.4452,990.2043 C505.1335,1000.2466 500.5758,1009.6264 488,1010 C488.9976,1009.9175 489.4691,1010.581 488.9228,1011.4686 C484.7122,1016.8658 479.6117,1016.7902 475.7154,1011.0943 C472.3121,1019.0783 466.0028,1018.4607 461.2003,1012.5567 C456.9826,1020.7182 448.8012,1021.065 444.5138,1012.6269 C441.1618,1020.1756 435.5761,1020.1093 430.6475,1014.2585 C427.0295,1021.5864 420.0893,1022.5762 415.8702,1014.8486 C411.557,1021.949 404.9552,1021.133 402.1707,1013.4336 C396.4078,1020.4433 391.506,1019.6958 386.079,1013.0381 C382.7668,1018.8289 377.6929,1019.2909 373.1298,1014.5806 C367.3252,1022.0062 362.6573,1020.1875 358.119,1013.2566 C352.684,1019.2814 348.0027,1018.6782 344.4576,1011.3265 C339.5154,1018.8192 332.7835,1019.1384 327.9465,1011.2137 C318.0557,1020.6832 307.2187,1016.7019 306,1003 C306.5765,1002.2245 307.0528,1002.3092 307.5474,1003.0818 C300.9227,1000.1437 299.7837,993.747 306.5109,989.7694 C299.0694,985.8965 298.7242,978.9297 306.2702,974.8154 C300.7149,969.7836 300.4119,964.9612 307.6385,961.2154 C300.1457,957.6044 299.8554,951.4407 305.8361,946.2112 C299.946,941.8703 299.2037,934.9198 307.1999,931.9023 C300.7688,927.3749 301.1513,923.3445 306.9979,918.6303 C299.249,914.6004 299.5743,908.3274 306.96,904.2576 C299.471,898.9453 300.241,894.1816 306.6938,888.6318 C298.9515,884.402 299.8129,879.758 306.0492,874.8733 C299.9132,870.4381 300.2364,862.8664 307.5292,859.7449 C302.1682,855.8967 301.6921,852.3118 306.7843,847.811 C296.1257,838.3578 299.1823,827.0639 313,824 C313.7886,823.8554 314.1274,824.2072 313.8908,824.9874 " fill="none" style="stroke:#181818;stroke-width:1.0;"/><text fill="#000000" font-family="sans-serif" font-size="14" font-weight="bold" lengthAdjust="spacing" textLength="146" x="327.5" y="842.5352">Hardware Resources</text></g><!--cluster k8s_w--><g id="cluster_k8s_w"><polygon fill="none" points="322,869,332,859,479,859,479,984,469,994,322,994,322,869" style="stroke:#181818;stroke-width:1.0;"/><line style="stroke:#181818;stroke-width:1.0;" x1="469" x2="479" y1="869" y2="859"/><line style="stroke:#181818;stroke-width:1.0;" x1="322" x2="469" y1="869" y2="869"/><line style="stroke:#181818;stroke-width:1.0;" x1="469" x2="469" y1="869" y2="994"/><text fill="#000000" font-family="sans-serif" font-size="14" font-weight="bold" lengthAdjust="spacing" textLength="81" x="356" y="885.5352">Kubernetes</text><text fill="#000000" font-family="sans-serif" font-size="14" font-weight="bold" lengthAdjust="spacing" textLength="52" x="370.5" y="902.0234">Cluster</text><text fill="#000000" font-family="sans-serif" font-size="14" font-weight="bold" lengthAdjust="spacing" textLength="61" x="366" y="918.5117">(Worker)</text></g><!--entity inst_param--><g id="elem_inst_param"><path d="M58,146.5 L58,194.4766 A2.5,2.5 0 0 0 60.5,196.9766 L153.5,196.9766 A2.5,2.5 0 0 0 156,194.4766 L156,154 L146,144 L60.5,144 A2.5,2.5 0 0 0 58,146.5 " fill="#F1F1F1" style="stroke:#181818;stroke-width:0.5;"/><path d="M146,144 L146,151.5 A2.5,2.5 0 0 0 148.5,154 L156,154 " fill="#F1F1F1" style="stroke:#181818;stroke-width:0.5;"/><text fill="#000000" font-family="sans-serif" font-size="14" lengthAdjust="spacing" textLength="72" x="68" y="167.5352">Instantiate</text><text fill="#000000" font-family="sans-serif" font-size="14" lengthAdjust="spacing" textLength="78" x="68" y="184.0234">parameters</text></g><!--entity vnfd--><g id="elem_vnfd"><path d="M348.5,155 L348.5,186.4883 A2.5,2.5 0 0 0 351,188.9883 L403,188.9883 A2.5,2.5 0 0 0 405.5,186.4883 L405.5,162.5 L395.5,152.5 L351,152.5 A2.5,2.5 0 0 0 348.5,155 " fill="#F1F1F1" style="stroke:#181818;stroke-width:0.5;"/><path d="M395.5,152.5 L395.5,160 A2.5,2.5 0 0 0 398,162.5 L405.5,162.5 " fill="#F1F1F1" style="stroke:#181818;stroke-width:0.5;"/><text fill="#000000" font-family="sans-serif" font-size="14" lengthAdjust="spacing" textLength="37" x="358.5" y="176.0352">VNFD</text></g><!--entity cnfd--><g id="elem_cnfd"><path d="M226.5,146.5 L226.5,194.4766 A2.5,2.5 0 0 0 229,196.9766 L311,196.9766 A2.5,2.5 0 0 0 313.5,194.4766 L313.5,154 L303.5,144 L229,144 A2.5,2.5 0 0 0 226.5,146.5 " fill="#F1F1F1" style="stroke:#181818;stroke-width:0.5;"/><path d="M303.5,144 L303.5,151.5 A2.5,2.5 0 0 0 306,154 L313.5,154 " fill="#F1F1F1" style="stroke:#181818;stroke-width:0.5;"/><text fill="#000000" font-family="sans-serif" font-size="14" lengthAdjust="spacing" textLength="28" x="236.5" y="167.5352">CNF</text><text fill="#000000" font-family="sans-serif" font-size="14" lengthAdjust="spacing" textLength="67" x="236.5" y="184.0234">Definition</text></g><!--entity serv--><g id="elem_serv"><rect fill="#F1F1F1" height="46.4883" rx="2.5" ry="2.5" style="stroke:#181818;stroke-width:0.5;" width="82" x="66" y="419"/><rect fill="#F1F1F1" height="10" style="stroke:#181818;stroke-width:0.5;" width="15" x="128" y="424"/><rect fill="#F1F1F1" height="2" style="stroke:#181818;stroke-width:0.5;" width="4" x="126" y="426"/><rect fill="#F1F1F1" height="2" style="stroke:#181818;stroke-width:0.5;" width="4" x="126" y="430"/><text fill="#000000" font-family="sans-serif" font-size="14" lengthAdjust="spacing" textLength="42" x="81" y="452.5352">server</text></g><!--entity cond--><g id="elem_cond"><rect fill="#F1F1F1" height="46.4883" rx="2.5" ry="2.5" style="stroke:#181818;stroke-width:0.5;" width="110" x="52" y="549"/><rect fill="#F1F1F1" height="10" style="stroke:#181818;stroke-width:0.5;" width="15" x="142" y="554"/><rect fill="#F1F1F1" height="2" style="stroke:#181818;stroke-width:0.5;" width="4" x="140" y="556"/><rect fill="#F1F1F1" height="2" style="stroke:#181818;stroke-width:0.5;" width="4" x="140" y="560"/><text fill="#000000" font-family="sans-serif" font-size="14" lengthAdjust="spacing" textLength="70" x="67" y="582.5352">conductor</text></g><!--entity infra--><g id="elem_infra"><rect fill="#F1F1F1" height="62.9766" rx="2.5" ry="2.5" style="stroke:#181818;stroke-width:0.5;" width="120" x="47" y="664"/><rect fill="#F1F1F1" height="10" style="stroke:#181818;stroke-width:0.5;" width="15" x="147" y="669"/><rect fill="#F1F1F1" height="2" style="stroke:#181818;stroke-width:0.5;" width="4" x="145" y="671"/><rect fill="#F1F1F1" height="2" style="stroke:#181818;stroke-width:0.5;" width="4" x="145" y="675"/><text fill="#000000" font-family="sans-serif" font-size="14" lengthAdjust="spacing" textLength="78" x="62" y="697.5352">Kubernetes</text><text fill="#000000" font-family="sans-serif" font-size="14" lengthAdjust="spacing" textLength="80" x="62" y="714.0234">infra-driver</text></g><!--entity ins1--><g id="elem_ins1"><polygon fill="#F1F1F1" points="344,942,354,932,410,932,410,968.4883,400,978.4883,344,978.4883,344,942" style="stroke:#181818;stroke-width:0.5;"/><line style="stroke:#181818;stroke-width:0.5;" x1="400" x2="410" y1="942" y2="932"/><line style="stroke:#181818;stroke-width:0.5;" x1="344" x2="400" y1="942" y2="942"/><line style="stroke:#181818;stroke-width:0.5;" x1="400" x2="400" y1="942" y2="978.4883"/><text fill="#000000" font-family="sans-serif" font-size="14" lengthAdjust="spacing" textLength="26" x="359" y="965.5352">Pod</text></g><!--entity k8s_m--><g id="elem_k8s_m"><polygon fill="#F1F1F1" points="318,666,328,656,436,656,436,725.4648,426,735.4648,318,735.4648,318,666" style="stroke:#181818;stroke-width:0.5;"/><line style="stroke:#181818;stroke-width:0.5;" x1="426" x2="436" y1="666" y2="656"/><line style="stroke:#181818;stroke-width:0.5;" x1="318" x2="426" y1="666" y2="666"/><line style="stroke:#181818;stroke-width:0.5;" x1="426" x2="426" y1="666" y2="735.4648"/><text fill="#000000" font-family="sans-serif" font-size="14" lengthAdjust="spacing" textLength="78" x="333" y="689.5352">Kubernetes</text><text fill="#000000" font-family="sans-serif" font-size="14" lengthAdjust="spacing" textLength="49" x="333" y="706.0234">Cluster</text><text fill="#000000" font-family="sans-serif" font-size="14" lengthAdjust="spacing" textLength="56" x="333" y="722.5117">(Master)</text></g><!--link vnfpkg to serv--><g id="link_vnfpkg_serv"><path d="M202.9824,221.3047 C203.0589,221.7632 203.1348,222.2236 203.21,222.6861 C203.3605,223.6109 203.5086,224.5436 203.6538,225.4838 C208.3,255.5675 210.065,293.25 199,325 C185.89,362.62 159.2636,393.0603 136.8736,414.5003 " fill="none" id="vnfpkg-to-serv" style="stroke:#181818;stroke-width:1.0;"/><polygon fill="#181818" points="132.54,418.65,141.8068,415.3145,136.1513,415.1919,136.2739,409.5364,132.54,418.65" style="stroke:#181818;stroke-width:1.0;"/><text fill="#000000" font-family="sans-serif" font-size="13" lengthAdjust="spacing" textLength="66" x="209.5" y="306.5684">1. Request</text><text fill="#000000" font-family="sans-serif" font-size="13" lengthAdjust="spacing" textLength="67" x="211" y="321.8789">create VNF</text></g><!--link inst_param to serv--><g id="link_inst_param_serv"><path d="M102.26,197.26 C97.22,227.73 90.29,279.99 93,325 C94.97,357.8 99.1658,389.6055 102.6358,412.8955 " fill="none" id="inst_param-to-serv" style="stroke:#181818;stroke-width:1.0;"/><polygon fill="#181818" points="103.52,418.83,106.1501,409.3388,102.7832,413.8846,98.2374,410.5177,103.52,418.83" style="stroke:#181818;stroke-width:1.0;"/><text fill="#000000" font-family="sans-serif" font-size="13" lengthAdjust="spacing" textLength="66" x="111" y="306.5684">2. Request</text><text fill="#000000" font-family="sans-serif" font-size="13" lengthAdjust="spacing" textLength="96" x="98" y="321.8789">instantiate VNF</text></g><!--link serv to cond--><g id="link_serv_cond"><path d="M107,465.3 C107,488.65 107,519.11 107,542.53 " fill="none" id="serv-to-cond" style="stroke:#181818;stroke-width:1.0;"/><polygon fill="#181818" points="107,548.53,111,539.53,107,543.53,103,539.53,107,548.53" style="stroke:#181818;stroke-width:1.0;"/></g><!--link cond to infra--><g id="link_cond_infra"><path d="M107,595.28 C107,614.47 107,636.34 107,657.66 " fill="none" id="cond-to-infra" style="stroke:#181818;stroke-width:1.0;"/><polygon fill="#181818" points="107,663.66,111,654.66,107,658.66,103,654.66,107,663.66" style="stroke:#181818;stroke-width:1.0;"/></g><!--link infra to k8s_m--><g id="link_infra_k8s_m"><path d="M167.26,695.5 C212.17,695.5 267.21,695.5 311.86,695.5 " fill="none" id="infra-to-k8s_m" style="stroke:#181818;stroke-width:1.0;"/><polygon fill="#181818" points="317.86,695.5,308.86,691.5,312.86,695.5,308.86,699.5,317.86,695.5" style="stroke:#181818;stroke-width:1.0;"/><text fill="#000000" font-family="sans-serif" font-size="13" lengthAdjust="spacing" textLength="114" x="185.5" y="674.0684">3. Call Kubernetes</text><text fill="#000000" font-family="sans-serif" font-size="13" lengthAdjust="spacing" textLength="20" x="234.5" y="689.3789">API</text></g><!--link k8s_m to ins1--><g id="link_k8s_m_ins1"><path d="M377,735.33 C377,789.98 377,881.81 377,925.67 " fill="none" id="k8s_m-to-ins1" style="stroke:#181818;stroke-width:1.0;"/><polygon fill="#181818" points="377,931.67,381,922.67,377,926.67,373,922.67,377,931.67" style="stroke:#181818;stroke-width:1.0;"/><text fill="#000000" font-family="sans-serif" font-size="13" lengthAdjust="spacing" textLength="94" x="378" y="796.5684">4. Create a Pod</text></g><!--SRC=[VLB1IWCn4BtdAuRre1wsKFKWFGZIKYnYAHxqiY1nDziDkvsiIRP5fF_k9EcogRJc49APzoRptgJKV2CWQRzjfJ2rFA-5pXifq2Rmmu1MhZQjGWf04j9fd-S6ml60TAib25zJnRVb75RXuf5RBDjw7I7TAcKJeBCUKvp8JvVp36UYb2YjL1WUZg5xTanOeB4ShUHMPDXo9z4ARJnHKkx3nrYWxXahWmb1tddTHkZjaF-3wPFqX3koeQyJ1YeikjogSxMYl9DAjrEev-vJQ2Hb9aE9f24jjEnxy8518Qf273EcJMV8b0olNhWxN7jQVMy-DYnlL5T0yiHriUDQmAimgjEv20vMkqFN_nLzLxgEY-uYfO6tKaK_aF7GwEK5lTPmDsTJoTQmmxz9qmVlwmJ68q9yTSBO327NWeOCz8FOCDW8V1E3vV0jFCD1FDOxx3P_2zRv7L8jrvMbe3Tc0hSZcFAcWLWqFAuMpESFT3EUm1q1GsySI2dx1G00]--></g></svg>