<?xml version="1.0" encoding="us-ascii" standalone="no"?><svg xmlns="http://www.w3.org/2000/svg" xmlns:xlink="http://www.w3.org/1999/xlink" contentStyleType="text/css" height="884px" preserveAspectRatio="none" style="width:702px;height:884px;background:#FFFFFF;" version="1.1" viewBox="0 0 702 884" width="702px" zoomAndPan="magnify"><defs/><g><!--cluster python-tackerclient--><g id="cluster_python-tackerclient"><rect fill="none" height="97" rx="2.5" ry="2.5" style="stroke:#181818;stroke-width:1.0;" width="160" x="31" y="7"/><path d="M184,7 L184,16.4883 L174,26.4883 L31,26.4883 " fill="none" style="stroke:#181818;stroke-width:1.0;"/><text fill="#000000" font-family="sans-serif" font-size="14" font-weight="bold" lengthAdjust="spacing" textLength="143" x="34" y="21.5352">python-tackerclient</text></g><!--cluster tacker--><g id="cluster_tacker"><rect fill="none" height="417.5" rx="2.5" ry="2.5" style="stroke:#181818;stroke-width:1.0;" width="208" x="7" y="168"/><path d="M61,168 L61,177.4883 L51,187.4883 L7,187.4883 " fill="none" style="stroke:#181818;stroke-width:1.0;"/><text fill="#000000" font-family="sans-serif" font-size="14" font-weight="bold" lengthAdjust="spacing" textLength="44" x="10" y="182.5352">tacker</text></g><!--cluster tacker-server--><g id="cluster_tacker-server"><rect fill="none" height="97" rx="2.5" ry="2.5" style="stroke:#181818;stroke-width:1.0;" width="114" x="54" y="211"/><rect fill="none" height="10" style="stroke:#181818;stroke-width:1.0;" width="15" x="148" y="216"/><rect fill="none" height="2" style="stroke:#181818;stroke-width:1.0;" width="4" x="146" y="218"/><rect fill="none" height="2" style="stroke:#181818;stroke-width:1.0;" width="4" x="146" y="222"/><text fill="#000000" font-family="sans-serif" font-size="14" font-weight="bold" lengthAdjust="spacing" textLength="97" x="62.5" y="237.5352">tacker-server</text></g><!--cluster tacker-conductor--><g id="cluster_tacker-conductor"><rect fill="none" height="220.5" rx="2.5" ry="2.5" style="stroke:#181818;stroke-width:1.0;" width="160" x="31" y="341"/><rect fill="none" height="10" style="stroke:#181818;stroke-width:1.0;" width="15" x="171" y="346"/><rect fill="none" height="2" style="stroke:#181818;stroke-width:1.0;" width="4" x="169" y="348"/><rect fill="none" height="2" style="stroke:#181818;stroke-width:1.0;" width="4" x="169" y="352"/><text fill="#000000" font-family="sans-serif" font-size="14" font-weight="bold" lengthAdjust="spacing" textLength="124" x="49" y="367.5352">tacker-conductor</text></g><!--cluster hw--><g id="cluster_hw"><path d="M113.4067,658.5135 C124.3339,635.4688 141.7781,638.3822 154.8231,656.3763 C167.4247,639.1907 182.4493,644.4709 190.311,661.3187 C201.3221,640.0409 219.3438,640.3402 234.2109,656.8374 C246.8255,638.8142 264.0117,639.9305 274.6348,659.0073 C285.9442,638.9518 296.8607,641.0501 310.3109,656.879 C318.8061,638.284 333.5289,640.4216 344.9278,653.7282 C357.3866,631.1939 372.886,630.9926 389.3771,649.3445 C403.3168,630.6108 421.0043,634.0298 428.8132,655.3767 C441.4384,640.5532 452.1936,641.2504 462.7763,657.6018 C473.5047,638.1957 487.0929,637.0474 499.7187,655.7631 C515.442,636.6407 529.4217,634.3462 544.3132,656.6582 C555.9818,639.2835 571.5278,644.4179 579.5954,660.4603 C593.0774,639.6425 609.4634,640.2615 621.0017,662.3366 C635.4037,644.2137 648.5015,647.4284 661,664.5 C662.9161,663.0207 664.7066,663.2259 665.31,665.8716 C686.0383,674.5852 690.8516,693.2497 671.24,707.6845 C693.2656,721.3219 692.8284,737.0729 671.8545,751.316 C695.5112,764.2326 694.633,786.3061 672.2281,799.5793 C686.1962,819.0429 682.2127,841.5424 654,843.5 C655.6195,840.9457 657.233,841.3045 658.8525,843.5 C648.6865,867.8594 635.1648,867.8569 617.913,850.4447 C604.1491,867.675 592.2281,866.9019 579.4671,849.3365 C568.3943,870.6866 548.6632,868.8635 538.9446,848.0354 C528.0203,865.6595 517.476,865.4404 504.2884,850.4397 C492.4684,872.3107 475.089,869.7772 461.2554,852.6623 C450.8313,869.013 436.3467,871.2088 425.233,853.3893 C416.1016,872.142 401.1912,874.7831 388.5597,856.8922 C371.5257,877.5649 358.8002,874.7475 346.046,852.6392 C334.2049,872.6756 320.343,873.4971 308.1664,852.9524 C293.6247,868.4846 279.958,866.8525 268.6535,849.1083 C258.6848,867.5621 241.4702,866.4497 229.521,851.4232 C218.7579,867.882 201.3078,866.9988 193.9642,847.9946 C180.391,869.1345 167.1888,869.4643 152.6169,848.9868 C130.8625,866.4894 115.9011,863.2498 106,836.5 C109.9983,834.6403 111.8741,836.6927 112.0462,840.548 C86.1278,830.7517 85.8786,814.9938 102.637,796.1526 C86.4652,784.6227 86.0994,766.5409 105.0321,757.1677 C86.7268,741.9994 83.0329,725.8703 106.5306,712.0916 C83.6977,692.0661 86.0557,671.6267 113,657.5 C113.6408,657.6077 113.7052,658.0289 113.4067,658.5135 " fill="none" style="stroke:#181818;stroke-width:1.0;"/><text fill="#000000" font-family="sans-serif" font-size="14" font-weight="bold" lengthAdjust="spacing" textLength="146" x="310.5" y="676.0352">Hardware Resources</text></g><!--cluster k8s_w--><g id="cluster_k8s_w"><polygon fill="none" points="122,702.5,132,692.5,645,692.5,645,817.5,635,827.5,122,827.5,122,702.5" style="stroke:#181818;stroke-width:1.0;"/><line style="stroke:#181818;stroke-width:1.0;" x1="635" x2="645" y1="702.5" y2="692.5"/><line style="stroke:#181818;stroke-width:1.0;" x1="122" x2="635" y1="702.5" y2="702.5"/><line style="stroke:#181818;stroke-width:1.0;" x1="635" x2="635" y1="702.5" y2="827.5"/><text fill="#000000" font-family="sans-serif" font-size="14" font-weight="bold" lengthAdjust="spacing" textLength="81" x="339" y="719.0352">Kubernetes</text><text fill="#000000" font-family="sans-serif" font-size="14" font-weight="bold" lengthAdjust="spacing" textLength="52" x="353.5" y="735.5234">Cluster</text><text fill="#000000" font-family="sans-serif" font-size="14" font-weight="bold" lengthAdjust="spacing" textLength="61" x="349" y="752.0117">(Worker)</text></g><!--entity client--><g id="elem_client"><rect fill="#F1F1F1" height="46.4883" rx="2.5" ry="2.5" style="stroke:#181818;stroke-width:0.5;" width="127" x="47.5" y="42"/><rect fill="#F1F1F1" height="10" style="stroke:#181818;stroke-width:0.5;" width="15" x="154.5" y="47"/><rect fill="#F1F1F1" height="2" style="stroke:#181818;stroke-width:0.5;" width="4" x="152.5" y="49"/><rect fill="#F1F1F1" height="2" style="stroke:#181818;stroke-width:0.5;" width="4" x="152.5" y="53"/><text fill="#000000" font-family="sans-serif" font-size="14" lengthAdjust="spacing" textLength="87" x="62.5" y="75.5352">tacker-client</text></g><!--entity serv--><g id="elem_serv"><rect fill="#F1F1F1" height="46.4883" rx="2.5" ry="2.5" style="stroke:#181818;stroke-width:0.5;" width="82" x="70" y="246"/><rect fill="#F1F1F1" height="10" style="stroke:#181818;stroke-width:0.5;" width="15" x="132" y="251"/><rect fill="#F1F1F1" height="2" style="stroke:#181818;stroke-width:0.5;" width="4" x="130" y="253"/><rect fill="#F1F1F1" height="2" style="stroke:#181818;stroke-width:0.5;" width="4" x="130" y="257"/><text fill="#000000" font-family="sans-serif" font-size="14" lengthAdjust="spacing" textLength="42" x="85" y="279.5352">server</text></g><!--entity cond--><g id="elem_cond"><rect fill="#F1F1F1" height="46.4883" rx="2.5" ry="2.5" style="stroke:#181818;stroke-width:0.5;" width="110" x="56" y="376"/><rect fill="#F1F1F1" height="10" style="stroke:#181818;stroke-width:0.5;" width="15" x="146" y="381"/><rect fill="#F1F1F1" height="2" style="stroke:#181818;stroke-width:0.5;" width="4" x="144" y="383"/><rect fill="#F1F1F1" height="2" style="stroke:#181818;stroke-width:0.5;" width="4" x="144" y="387"/><text fill="#000000" font-family="sans-serif" font-size="14" lengthAdjust="spacing" textLength="70" x="71" y="409.5352">conductor</text></g><!--entity infra--><g id="elem_infra"><rect fill="#F1F1F1" height="46.4883" rx="2.5" ry="2.5" style="stroke:#181818;stroke-width:0.5;" width="128" x="47" y="499.5"/><rect fill="#F1F1F1" height="10" style="stroke:#181818;stroke-width:0.5;" width="15" x="155" y="504.5"/><rect fill="#F1F1F1" height="2" style="stroke:#181818;stroke-width:0.5;" width="4" x="153" y="506.5"/><rect fill="#F1F1F1" height="2" style="stroke:#181818;stroke-width:0.5;" width="4" x="153" y="510.5"/><text fill="#000000" font-family="sans-serif" font-size="14" lengthAdjust="spacing" textLength="88" x="62" y="533.0352">mgmt-driver</text></g><!--entity ins1--><g id="elem_ins1"><polygon fill="#F1F1F1" points="138.5,775.5,148.5,765.5,253.5,765.5,253.5,801.9883,243.5,811.9883,138.5,811.9883,138.5,775.5" style="stroke:#181818;stroke-width:0.5;"/><line style="stroke:#181818;stroke-width:0.5;" x1="243.5" x2="253.5" y1="775.5" y2="765.5"/><line style="stroke:#181818;stroke-width:0.5;" x1="138.5" x2="243.5" y1="775.5" y2="775.5"/><line style="stroke:#181818;stroke-width:0.5;" x1="243.5" x2="243.5" y1="775.5" y2="811.9883"/><text fill="#000000" font-family="sans-serif" font-size="14" lengthAdjust="spacing" textLength="75" x="153.5" y="799.0352">ConfigMap</text></g><!--entity ins2--><g id="elem_ins2"><polygon fill="#F1F1F1" points="289,775.5,299,765.5,371,765.5,371,801.9883,361,811.9883,289,811.9883,289,775.5" style="stroke:#181818;stroke-width:0.5;"/><line style="stroke:#181818;stroke-width:0.5;" x1="361" x2="371" y1="775.5" y2="765.5"/><line style="stroke:#181818;stroke-width:0.5;" x1="289" x2="361" y1="775.5" y2="775.5"/><line style="stroke:#181818;stroke-width:0.5;" x1="361" x2="361" y1="775.5" y2="811.9883"/><text fill="#000000" font-family="sans-serif" font-size="14" lengthAdjust="spacing" textLength="42" x="304" y="799.0352">Secret</text></g><!--entity ins3--><g id="elem_ins3"><polygon fill="#F1F1F1" points="406,775.5,416,765.5,472,765.5,472,801.9883,462,811.9883,406,811.9883,406,775.5" style="stroke:#181818;stroke-width:0.5;"/><line style="stroke:#181818;stroke-width:0.5;" x1="462" x2="472" y1="775.5" y2="765.5"/><line style="stroke:#181818;stroke-width:0.5;" x1="406" x2="462" y1="775.5" y2="775.5"/><line style="stroke:#181818;stroke-width:0.5;" x1="462" x2="462" y1="775.5" y2="811.9883"/><text fill="#000000" font-family="sans-serif" font-size="14" lengthAdjust="spacing" textLength="26" x="421" y="799.0352">Pod</text></g><!--entity ins4--><g id="elem_ins4"><polygon fill="#F1F1F1" points="507,775.5,517,765.5,629,765.5,629,801.9883,619,811.9883,507,811.9883,507,775.5" style="stroke:#181818;stroke-width:0.5;"/><line style="stroke:#181818;stroke-width:0.5;" x1="619" x2="629" y1="775.5" y2="765.5"/><line style="stroke:#181818;stroke-width:0.5;" x1="507" x2="619" y1="775.5" y2="775.5"/><line style="stroke:#181818;stroke-width:0.5;" x1="619" x2="619" y1="775.5" y2="811.9883"/><text fill="#000000" font-family="sans-serif" font-size="14" lengthAdjust="spacing" textLength="82" x="522" y="799.0352">Deployment</text></g><!--entity k8s_m--><g id="elem_k8s_m"><polygon fill="#F1F1F1" points="326,493,336,483,444,483,444,552.4648,434,562.4648,326,562.4648,326,493" style="stroke:#181818;stroke-width:0.5;"/><line style="stroke:#181818;stroke-width:0.5;" x1="434" x2="444" y1="493" y2="483"/><line style="stroke:#181818;stroke-width:0.5;" x1="326" x2="434" y1="493" y2="493"/><line style="stroke:#181818;stroke-width:0.5;" x1="434" x2="434" y1="493" y2="562.4648"/><text fill="#000000" font-family="sans-serif" font-size="14" lengthAdjust="spacing" textLength="78" x="341" y="516.5352">Kubernetes</text><text fill="#000000" font-family="sans-serif" font-size="14" lengthAdjust="spacing" textLength="49" x="341" y="533.0234">Cluster</text><text fill="#000000" font-family="sans-serif" font-size="14" lengthAdjust="spacing" textLength="56" x="341" y="549.5117">(Master)</text></g><!--link client to serv--><g id="link_client_serv"><path d="M111,88.39 C111,127.22 111,200.61 111,239.51 " fill="none" id="client-to-serv" style="stroke:#181818;stroke-width:1.0;"/><polygon fill="#181818" points="111,245.51,115,236.51,111,240.51,107,236.51,111,245.51" style="stroke:#181818;stroke-width:1.0;"/><text fill="#000000" font-family="sans-serif" font-size="13" lengthAdjust="spacing" textLength="66" x="117" y="133.5684">1. Request</text><text fill="#000000" font-family="sans-serif" font-size="13" lengthAdjust="spacing" textLength="72" x="116" y="148.8789">update VNF</text></g><!--link serv to cond--><g id="link_serv_cond"><path d="M111,292.3 C111,315.65 111,346.11 111,369.53 " fill="none" id="serv-to-cond" style="stroke:#181818;stroke-width:1.0;"/><polygon fill="#181818" points="111,375.53,115,366.53,111,370.53,107,366.53,111,375.53" style="stroke:#181818;stroke-width:1.0;"/></g><!--link cond to infra--><g id="link_cond_infra"><path d="M111,422.28 C111,444.21 111,471.48 111,493.36 " fill="none" id="cond-to-infra" style="stroke:#181818;stroke-width:1.0;"/><polygon fill="#181818" points="111,499.36,115,490.36,111,494.36,107,490.36,111,499.36" style="stroke:#181818;stroke-width:1.0;"/></g><!--link infra to k8s_m--><g id="link_infra_k8s_m"><path d="M175.24,522.5 C220.8,522.5 275.47,522.5 319.84,522.5 " fill="none" id="infra-to-k8s_m" style="stroke:#181818;stroke-width:1.0;"/><polygon fill="#181818" points="325.84,522.5,316.84,518.5,320.84,522.5,316.84,526.5,325.84,522.5" style="stroke:#181818;stroke-width:1.0;"/><text fill="#000000" font-family="sans-serif" font-size="13" lengthAdjust="spacing" textLength="114" x="193.5" y="501.0684">2. Call Kubernetes</text><text fill="#000000" font-family="sans-serif" font-size="13" lengthAdjust="spacing" textLength="20" x="242.5" y="516.3789">API</text></g><!--link k8s_m to ins1--><g id="link_k8s_m_ins1"><path d="M326.58,562.42 C312.13,573.85 297.52,587.17 286,601.5 C244.2,653.51 217.5541,722.4469 205.0541,759.3669 " fill="none" id="k8s_m-to-ins1" style="stroke:#181818;stroke-width:1.0;"/><polygon fill="#181818" points="203.13,765.05,209.8049,757.8081,204.7334,760.3141,202.2275,755.2426,203.13,765.05" style="stroke:#181818;stroke-width:1.0;"/></g><!--link k8s_m to ins2--><g id="link_k8s_m_ins2"><path d="M330.58,562.41 C319,573.59 308.36,586.8 302,601.5 C278.08,656.8 300.7583,723.5104 316.6483,759.5304 " fill="none" id="k8s_m-to-ins2" style="stroke:#181818;stroke-width:1.0;"/><polygon fill="#181818" points="319.07,765.02,319.0972,755.1712,317.0519,760.4454,311.7777,758.4001,319.07,765.02" style="stroke:#181818;stroke-width:1.0;"/><text fill="#000000" font-family="sans-serif" font-size="13" lengthAdjust="spacing" textLength="84" x="324" y="615.0684">3. Update the</text><text fill="#000000" font-family="sans-serif" font-size="13" lengthAdjust="spacing" textLength="122" x="307" y="630.3789">deployed resources</text></g><!--link k8s_m to ins3--><g id="link_k8s_m_ins3"><path d="M418,562.41 C426.13,574.22 433.73,587.74 438,601.5 C455.62,658.24 449.3366,723.5789 443.8966,759.1689 " fill="none" id="k8s_m-to-ins3" style="stroke:#181818;stroke-width:1.0;"/><polygon fill="#181818" points="442.99,765.1,448.3039,756.8077,443.7455,760.1574,440.3958,755.5989,442.99,765.1" style="stroke:#181818;stroke-width:1.0;"/></g><!--link k8s_m to ins4--><g id="link_k8s_m_ins4"><path d="M431.54,562.42 C444.2,574.24 457.34,587.75 468,601.5 C509.68,655.24 541.1168,723.2365 556.5668,759.6565 " fill="none" id="k8s_m-to-ins4" style="stroke:#181818;stroke-width:1.0;"/><polygon fill="#181818" points="558.91,765.18,559.0776,755.3326,556.9573,760.577,551.7129,758.4568,558.91,765.18" style="stroke:#181818;stroke-width:1.0;"/></g><!--link ins1 to ins2--><!--link ins2 to ins3--><!--link ins3 to ins4--><!--SRC=[VP7VIyCm4CVVyrSSzK5zw63h7cGFWan4aSbGr0Sd4flR6jOcDKaTG_pVpO-6TMMp3o7Np_SkzxrRAbeX9FNM55AaXkPhL7d9KPW4VWZOBvTLBONz0Kd0QUHKGxYINqAMeL2G7C_LgBvtlAU9q1PsLo_vFTQ45Ap9ZJnMgyDTdpOwfAfMbKcPul5PBgoFzbrhIaXcFTqtdwW46jGBCIqRRL0jnDcCkikvJrjVw8-AvALi62ItLB4DLGYFg6MZSjHUKspQHlyh-YhLkbjqqp4NygPIBFbgHkksNpti2PumLsWY7VNeNBA8iXwwnhgKsogkrYh6kqcGqnFhfwI6Iw4BNciILWzfUkcNDO7Xm2g-6jHc8Q2f6JK8Bmytn54lyqjmXu_2gFq9gUAhmjYVVf0J60rWIiiIkaE2g_aTyRnDjyxtmj44iW4yXuTDWJQ5UKl8GCLLxATa- -6OkAgGlXMSCHJliIi_HtSSH9b3sK4q_WC0]--></g></svg>